<svg width="48" height="48" viewBox="0 0 48 48" fill="none" xmlns="http://www.w3.org/2000/svg">
<g clip-path="url(#clip0_120_9)">
<path d="M24 48C37.2548 48 48 37.2548 48 24C48 10.7452 37.2548 0 24 0C10.7452 0 0 10.7452 0 24C0 37.2548 10.7452 48 24 48Z" fill="url(#paint0_linear_120_9)"/>
<path d="M24 13C17.928 13 13 17.928 13 24C13 30.072 17.928 35 24 35C30.072 35 35 30.072 35 24C35 17.928 30.072 13 24 13ZM25.1 31.7H22.9V29.5H25.1V31.7ZM27.377 23.175L26.387 24.187C25.595 24.99 25.1 25.65 25.1 27.3H22.9V26.75C22.9 25.54 23.395 24.44 24.187 23.637L25.551 22.251C25.958 21.855 26.2 21.305 26.2 20.7C26.2 19.49 25.21 18.5 24 18.5C22.79 18.5 21.8 19.49 21.8 20.7H19.6C19.6 18.269 21.569 16.3 24 16.3C26.431 16.3 28.4 18.269 28.4 20.7C28.4 21.668 28.004 22.548 27.377 23.175Z" fill="url(#paint1_linear_120_9)"/>
</g>
<defs>
<linearGradient id="paint0_linear_120_9" x1="0" y1="31.8988" x2="48" y2="31.8988" gradientUnits="userSpaceOnUse">
<stop stop-color="#3F85C6"/>
<stop offset="0.6875" stop-color="#CD99FF"/>
</linearGradient>
<linearGradient id="paint1_linear_120_9" x1="24" y1="13" x2="24" y2="35" gradientUnits="userSpaceOnUse">
<stop stop-color="#0D091D"/>
<stop offset="0.927083" stop-color="#32284F"/>
<stop offset="1" stop-color="#332A53"/>
</linearGradient>
<clipPath id="clip0_120_9">
<rect width="48" height="48" fill="white"/>
</clipPath>
</defs>
</svg>
