<svg width="48" height="48" viewBox="0 0 48 48" fill="none" xmlns="http://www.w3.org/2000/svg">
<g clip-path="url(#clip0_262_62)">
<path d="M24 48C37.2548 48 48 37.2548 48 24C48 10.7452 37.2548 0 24 0C10.7452 0 0 10.7452 0 24C0 37.2548 10.7452 48 24 48Z" fill="url(#paint0_linear_262_62)"/>
<path d="M25.1226 15.4075C25.0846 14.6984 24.3599 14.8191 23.6528 14.8191C24.1751 14.9582 24.6693 15.1517 25.1226 15.4075Z" fill="white"/>
<path d="M17.5636 13.6306C14.8186 13.6306 13.5551 17.1051 15.7495 18.8525C16.4975 16.8551 17.9867 15.4209 19.9389 14.8548C19.4049 14.1165 18.5421 13.6306 17.5636 13.6306Z" fill="white"/>
<path d="M11.8929 18.3087C12.0048 18.6676 12.1497 19.012 12.3219 19.3383L11.4202 20.2405C11.178 20.4826 11.178 20.8756 11.4202 21.1183L13.0096 22.7082C13.1253 22.8239 13.2839 22.889 13.4492 22.889C13.6127 22.889 13.7702 22.8239 13.888 22.7082L14.7886 21.806C14.9238 21.8775 15.0736 21.9213 15.2136 21.983C15.2136 21.9728 15.2126 21.9621 15.2126 21.9518C15.2126 21.2146 15.2973 20.5191 15.4481 19.866C14.3606 19.1661 13.635 17.9512 13.635 16.5641C13.635 14.3975 15.3975 12.6345 17.5636 12.6345C19.0304 12.6345 20.2969 13.451 20.9729 14.6441C21.6946 14.5546 22.3726 14.5546 23.1887 14.7088C23.0837 14.3912 22.9602 14.0804 22.8055 13.7891L23.7071 12.8865C23.8248 12.7702 23.8899 12.6121 23.8899 12.4478C23.8899 12.2833 23.8248 12.1253 23.7071 12.0091L22.1187 10.4202C21.9971 10.2986 21.8386 10.2383 21.68 10.2383C21.5214 10.2383 21.3629 10.2986 21.2423 10.4202L20.3377 11.3228C20.0109 11.1497 19.6676 11.0048 19.3077 10.8953V9.62009C19.3077 9.27772 19.0314 9 18.6881 9H16.4402C16.0988 9 15.8196 9.27772 15.8196 9.62009V10.8953C15.4607 11.0047 15.1172 11.1496 14.7895 11.3228L13.888 10.4211C13.7663 10.2996 13.6078 10.2392 13.4492 10.2392C13.2907 10.2392 13.1312 10.2996 13.0106 10.4206L11.4202 12.0095C11.3044 12.1262 11.2393 12.2838 11.2393 12.4487C11.2393 12.6135 11.3044 12.7711 11.4202 12.8874L12.3219 13.7895C12.1496 14.1164 12.0048 14.4602 11.8949 14.8191H10.6207C10.2773 14.8191 10 15.0973 10 15.4402V17.6881C10 18.0299 10.2773 18.3087 10.6207 18.3087H11.8929Z" fill="#C5C5C5"/>
<path d="M31.365 30.3369C32.3591 29.7917 33.0419 28.7481 33.0419 27.5369C33.0419 25.7696 31.6034 24.332 29.836 24.332C29.2145 24.332 28.6385 24.5178 28.1464 24.8252C27.8517 25.9982 27.3877 27.1202 26.7808 28.0948C28.5014 28.4183 30.0801 29.2018 31.365 30.3369Z" fill="white"/>
<path d="M37.999 26.3242C37.999 25.9541 37.6984 25.6545 37.3297 25.6545H35.9544C35.8357 25.2668 35.6782 24.8953 35.4914 24.5427L36.465 23.5691C36.5915 23.4436 36.6615 23.2734 36.6615 23.0959C36.6615 22.9183 36.5914 22.7481 36.465 22.6222L34.7511 20.9078C34.6208 20.7769 34.4486 20.7112 34.2775 20.7112C34.1063 20.7112 33.9351 20.7769 33.8048 20.9078L32.8292 21.8819C32.477 21.6951 32.1065 21.5386 31.7174 21.4203V20.045C31.7174 19.6754 31.4187 19.3757 31.0491 19.3757H28.6242C28.4618 19.3757 28.3188 19.4409 28.2021 19.5372C28.4063 20.2823 28.5182 21.0901 28.5182 21.9519C28.5182 22.499 28.4755 23.0545 28.3957 23.6069C28.847 23.4406 29.3275 23.3361 29.8362 23.3361C32.1531 23.3361 34.0382 25.2207 34.0382 27.537C34.0382 29.0175 33.265 30.3151 32.1045 31.0636C32.9488 31.9896 33.62 33.0882 34.0567 34.3191C34.1286 34.3439 34.2035 34.362 34.2785 34.362C34.4496 34.362 34.6209 34.2968 34.7522 34.1659L36.4671 32.4515C36.5926 32.326 36.6616 32.1558 36.6616 31.9783C36.6616 31.8008 36.5926 31.6306 36.4671 31.5046L35.4914 30.5305C35.6782 30.1784 35.8357 29.8067 35.9545 29.4187H37.3298C37.5068 29.4187 37.679 29.3487 37.8035 29.2222C37.929 29.0972 38 28.9265 38 28.749L37.999 26.3242Z" fill="#C5C5C5"/>
<path d="M32.6911 34.925C31.6512 31.8654 28.9035 29.761 25.7315 29.4746C24.6693 30.5994 23.3542 31.313 21.865 31.313C20.3768 31.313 19.0607 30.5995 17.9996 29.4746C14.8257 29.761 12.0778 31.8654 11.038 34.9255L10.4632 36.6175C10.2988 37.1043 10.3775 37.6408 10.6771 38.0585C10.9767 38.4764 11.4592 38.7244 11.9727 38.7244H31.7563C32.2708 38.7244 32.7533 38.4764 33.0529 38.0585C33.3515 37.6408 33.4313 37.1043 33.2659 36.6175L32.6911 34.925Z" fill="white"/>
<path d="M16.7065 21.9517C16.7065 25.7467 19.0167 29.8189 21.8647 29.8189C24.7138 29.8189 27.0238 25.7467 27.0238 21.9517C27.0239 14.0851 16.7065 14.0695 16.7065 21.9517Z" fill="white"/>
</g>
<defs>
<linearGradient id="paint0_linear_262_62" x1="0" y1="31.8988" x2="48" y2="31.8988" gradientUnits="userSpaceOnUse">
<stop stop-color="#3F85C6" stop-opacity="0.42"/>
</linearGradient>
<clipPath id="clip0_262_62">
<rect width="48" height="48" fill="white"/>
</clipPath>
</defs>
</svg>
