<svg width="48" height="48" viewBox="0 0 48 48" fill="none" xmlns="http://www.w3.org/2000/svg">
<path d="M24 48C37.2548 48 48 37.2548 48 24C48 10.7452 37.2548 0 24 0C10.7452 0 0 10.7452 0 24C0 37.2548 10.7452 48 24 48Z" fill="url(#paint0_linear_252_84)"/>
<path d="M20.5323 12.1481C21.377 11.4721 22.434 11.0834 23.5093 11.0057C24.2089 10.9601 24.8782 11.1991 25.5428 11.3802C27.6371 11.9376 29.7466 12.4364 31.8551 12.9359C32.442 13.0194 32.933 13.4612 33.1862 13.9817C33.391 14.4709 33.1246 15.0027 32.7481 15.3232C32.3235 15.7062 31.855 16.0371 31.3991 16.3822C30.8094 16.8107 30.2415 17.2743 29.6139 17.6479C29.136 17.8005 28.6573 18.0338 28.1424 17.9864C25.4357 17.7143 22.7213 17.5199 20.0146 17.2487C18.5024 17.0885 16.9846 17.006 15.4705 16.8752C15.2193 16.8657 15.0856 16.6287 14.9292 16.4676C15.1349 16.1528 15.3776 15.8579 15.6914 15.6446C17.3117 14.4889 18.9234 13.3209 20.5323 12.1481Z" fill="#8CB913"/>
<path d="M31.3994 16.3823C31.8554 16.0372 32.3238 15.7063 32.7484 15.3232C32.9523 15.6153 33.2472 15.8931 33.2519 16.2732C33.2908 16.6904 33.0225 17.0554 32.7332 17.3247C31.5671 18.2917 30.3147 19.1497 29.0908 20.0399C28.2442 20.6789 27.3966 21.3179 26.5604 21.9692C25.6143 22.6964 24.4264 23.16 23.2203 23.0785C22.5604 23.051 21.9252 22.8282 21.3545 22.5049C19.5029 21.462 17.6305 20.4504 15.6851 19.5924C15.2945 19.4 14.8518 19.0302 14.9446 18.5429C15.0461 18.1419 15.3922 17.8802 15.6756 17.6063C17.4286 18.3799 19.1228 19.2786 20.7914 20.2182C21.3337 20.5263 21.8789 20.8534 22.4913 21.0012C23.5 21.2421 24.5827 21.0942 25.5109 20.64C26.2637 20.2978 26.8724 19.727 27.5284 19.2369C28.2243 18.7079 28.9154 18.1731 29.6142 17.6479C30.2418 17.2744 30.8097 16.8108 31.3994 16.3823Z" fill="#F9D900"/>
<path d="M14.9296 16.4675C15.086 16.6287 15.2197 16.8657 15.4709 16.8751C16.985 17.006 18.5028 17.0885 20.015 17.2487C22.7218 17.5199 25.4361 17.7143 28.1428 17.9863C28.6577 18.0337 29.1364 17.8005 29.6143 17.6478C28.9155 18.1731 28.2244 18.7078 27.5285 19.2368C26.8725 19.727 26.2638 20.2977 25.511 20.6399C24.5828 21.0941 23.5001 21.242 22.4914 21.0011C21.879 20.8532 21.3338 20.5262 20.7915 20.2181C19.1229 19.2785 17.4287 18.3797 15.6757 17.6061C15.2339 17.4051 14.8585 16.9823 14.9296 16.4675Z" fill="#5EA323"/>
<path d="M29.0907 20.0397C30.3146 19.1495 31.567 18.2915 32.7331 17.3245C32.9645 17.5909 33.2489 17.8772 33.2518 18.2554C33.2963 18.6726 33.0242 19.0347 32.7351 19.3021C31.2021 20.5763 29.5173 21.6515 27.9502 22.8811C27.4822 23.2345 27.0173 23.592 26.5556 23.9534C25.6094 24.6777 24.4233 25.1413 23.2192 25.0654C22.5613 25.0304 21.9242 24.8151 21.3544 24.4899C19.5018 23.4452 17.6238 22.4412 15.6783 21.5794C15.3635 21.4125 15.044 21.1651 14.9454 20.8067C14.8563 20.2758 15.335 19.907 15.6849 19.5922C17.6303 20.4502 19.5028 21.4618 21.3544 22.5047C21.9251 22.828 22.5603 23.0508 23.2202 23.0783C24.4262 23.1598 25.614 22.6962 26.5603 21.9691C27.3965 21.3177 28.2441 20.6787 29.0907 20.0397Z" fill="#D00421"/>
<path d="M27.9503 22.8812C29.5174 21.6516 31.2022 20.5764 32.7351 19.3022C32.9494 19.5848 33.2481 19.8654 33.2433 20.2474C33.286 20.7916 32.8508 21.2031 32.463 21.515C30.5888 22.9675 28.6196 24.2938 26.7652 25.7729C25.9687 26.428 25.0065 26.9048 23.976 27.03C23.1208 27.1371 22.2371 26.955 21.4835 26.5417C19.5968 25.4885 17.6988 24.4465 15.7144 23.5866C15.3191 23.3875 14.8584 23.0234 14.9389 22.5257C15.0262 22.1143 15.3836 21.8459 15.6784 21.5795C17.6239 22.4413 19.502 23.4454 21.3545 24.49C21.9243 24.8153 22.5615 25.0306 23.2194 25.0655C24.4235 25.1415 25.6095 24.6778 26.5557 23.9535C27.0175 23.5921 27.4824 23.2347 27.9503 22.8812Z" fill="#016BB2"/>
<path d="M10.0306 28.5849C10.7806 28.4947 11.5808 28.416 12.2985 28.7033C12.8929 28.9432 13.0588 29.7376 12.7715 30.2686C12.6644 30.4391 12.4994 30.5625 12.3496 30.6943C12.5497 30.8583 12.7725 31.0242 12.8587 31.2792C13.0664 31.8566 12.8502 32.6359 12.2311 32.8567C11.5325 33.1232 10.7569 33.0332 10.0306 32.9505C9.97475 32.2243 10.0145 31.4953 10.0041 30.7681C10.0145 30.0401 9.97572 29.311 10.0306 28.5849ZM10.5616 28.9944C10.5692 29.4798 10.5683 29.9651 10.5616 30.4497C11.0006 30.4449 11.4471 30.4952 11.8813 30.4069C12.4654 30.2838 12.5544 29.3129 11.9951 29.0996C11.5381 28.9232 11.0385 28.9868 10.5616 28.9944ZM10.5625 30.9019C10.5683 31.448 10.5683 31.994 10.5625 32.5401C11.1257 32.5411 11.832 32.6853 12.2539 32.2121C12.4871 31.8139 12.4274 31.1303 11.9202 30.973C11.4812 30.8402 11.0138 30.9198 10.5625 30.9019ZM13.6788 28.4975C13.8517 28.4956 14.0246 28.4956 14.1974 28.4975C14.2184 29.9898 14.2107 31.4831 14.2012 32.9752C14.0258 32.98 13.8504 32.9791 13.675 32.9734C13.6713 31.482 13.6637 29.9898 13.6788 28.4975ZM21.6531 29.0105C21.8484 28.7015 22.2209 28.5715 22.567 28.5289C23.0666 28.4776 23.571 28.5212 24.0659 28.5961C24.0715 28.7434 24.0756 28.8907 24.0783 29.038C23.5179 29.0483 22.9462 28.9441 22.3954 29.0759C22.0465 29.1565 21.9375 29.6665 22.2048 29.8959C22.7396 30.4221 23.5406 30.6137 24.0061 31.2213C24.4395 31.778 24.1503 32.6984 23.4791 32.9147C22.8827 33.1119 22.2352 33.0208 21.6265 32.9317C21.6216 32.7889 21.6181 32.646 21.6161 32.5032C22.1489 32.4937 22.7007 32.6103 23.2222 32.4586C23.6506 32.3335 23.7711 31.6944 23.4297 31.4139C22.9415 30.9672 22.2817 30.7549 21.8104 30.2847C21.4691 29.9642 21.4255 29.4077 21.6531 29.0105ZM32.9835 28.4966C33.1456 28.4928 33.3077 28.49 33.4707 28.489C33.5096 29.3508 33.4784 30.2145 33.485 31.0763C33.8842 30.681 34.2225 30.2315 34.6132 29.8295C34.7933 29.6247 35.0977 29.7329 35.3338 29.7167C34.9422 30.277 34.4217 30.7293 33.9818 31.2498C34.4159 31.8385 34.9526 32.3486 35.3365 32.9743C35.0967 32.9677 34.7838 33.0795 34.6198 32.8406C34.2311 32.3959 33.8983 31.9039 33.4915 31.4745C33.4821 31.9769 33.4944 32.4794 33.4803 32.9819C33.3115 32.9828 33.1426 32.9819 32.975 32.98C32.9665 31.4859 32.9493 29.9908 32.9835 28.4966ZM25.3506 29.0029C25.5165 28.983 25.6833 28.965 25.8493 28.9479C25.8597 29.1963 25.8654 29.4456 25.873 29.6959C26.1233 29.7044 26.3736 29.7149 26.6239 29.7356C26.6135 29.8722 26.604 30.0097 26.5926 30.1462C26.3508 30.1557 26.1081 30.1623 25.8663 30.1728C25.8692 30.9692 25.8246 31.7675 25.8976 32.5619C26.1403 32.5866 26.3839 32.6017 26.6276 32.6131C26.6361 32.7316 26.6456 32.8511 26.6551 32.9706C26.3309 33.0161 25.983 33.0806 25.6672 32.963C25.4037 32.8539 25.3297 32.5468 25.3259 32.2898C25.3041 31.5768 25.3458 30.863 25.3032 30.15C25.087 30.1244 24.8708 30.0969 24.6557 30.0694C24.648 29.9547 24.6405 29.84 24.6338 29.7253C24.8557 29.713 25.0765 29.7054 25.2984 29.6988C25.3136 29.4665 25.3287 29.2342 25.3506 29.0029ZM18.4201 30.3292C18.7519 29.5964 19.7845 29.476 20.4092 29.8809C20.9193 30.244 20.9459 30.9256 20.9174 31.4935C20.2044 31.5248 19.4905 31.4717 18.7795 31.5305C18.8013 31.905 18.8762 32.3903 19.2962 32.5155C19.7968 32.6188 20.3125 32.5174 20.8169 32.4993C20.7856 32.6425 20.8652 32.8947 20.6615 32.9317C20.2329 33.0408 19.7817 33.0398 19.3436 33.0085C18.8108 32.9621 18.3672 32.5146 18.3112 31.9855C18.2571 31.4376 18.2115 30.8516 18.4201 30.3292ZM19.1653 30.2212C18.8648 30.3975 18.8155 30.7701 18.7918 31.0858C19.3255 31.1019 19.8603 31.1047 20.3941 31.0791C20.3447 30.7833 20.3523 30.4127 20.0603 30.2354C19.791 30.0875 19.4422 30.0951 19.1653 30.2212ZM27.2277 29.7718C27.772 29.677 28.3493 29.5736 28.8878 29.7509C29.2689 29.8789 29.4661 30.2875 29.4604 30.6706C29.4737 31.4432 29.469 32.2168 29.4586 32.9895C29.1267 32.9697 28.7912 32.8199 28.465 32.9515C28.045 33.0843 27.4838 33.0711 27.2202 32.6625C26.9499 32.1988 26.9765 31.4347 27.5169 31.1769C27.9616 30.9768 28.4668 31.0317 28.9419 31.0195C28.9419 30.7255 28.9969 30.3112 28.6622 30.1747C28.2185 30.0544 27.7558 30.1765 27.3054 30.151C27.2296 30.0401 27.2515 29.897 27.2277 29.7718ZM27.8383 31.5011C27.6003 31.5864 27.5966 31.8784 27.6032 32.0888C27.5966 32.2861 27.6847 32.5032 27.8895 32.5638C28.2365 32.6586 28.6091 32.5421 28.9059 32.3544C28.9883 32.0454 28.9381 31.7182 28.9409 31.4024C28.573 31.4054 28.1881 31.3635 27.8383 31.5011ZM30.5782 29.9661C31.0409 29.5299 31.734 29.6514 32.3018 29.7509C32.3028 29.8884 32.3037 30.0259 32.3037 30.1643C31.8107 30.1851 31.1025 29.9368 30.8181 30.4847C30.6171 31.0186 30.6218 31.6546 30.8133 32.1903C31.0996 32.7534 31.8174 32.5003 32.317 32.5431C32.3103 32.6747 32.3028 32.8075 32.2962 32.9402C31.862 33.019 31.4022 33.0882 30.9717 32.9582C30.4616 32.7838 30.1762 32.2358 30.1772 31.7181C30.163 31.1228 30.0995 30.4127 30.5782 29.9661ZM36.2458 29.7575C36.7834 29.5746 37.3626 29.6797 37.9116 29.7472C37.9248 29.8809 37.9381 30.0155 37.9504 30.1501C37.4849 30.1653 37.0137 30.0751 36.5529 30.1567C36.333 30.19 36.2476 30.5151 36.4241 30.6497C36.8336 31.0508 37.4366 31.1958 37.8129 31.6376C38.1561 32.0272 38.0101 32.7327 37.5134 32.9204C36.9815 33.1166 36.3946 33.0105 35.8476 32.9365C35.8313 32.7988 35.8165 32.661 35.8031 32.5231C36.2496 32.5279 36.6989 32.6264 37.1446 32.5582C37.3986 32.5194 37.5788 32.1752 37.3939 31.9676C36.9796 31.5381 36.3407 31.3967 35.9633 30.9238C35.6674 30.5653 35.7794 29.9131 36.2458 29.7575ZM15.0848 29.712C15.2555 29.713 15.4261 29.7168 15.5978 29.7225C15.6072 30.4515 15.5835 31.1806 15.6015 31.9086C15.5958 32.1599 15.7058 32.4463 15.9636 32.5306C16.3334 32.6464 16.7041 32.4766 17.0463 32.3515C17.0758 31.4726 17.0369 30.5937 17.0682 29.7149C17.2321 29.712 17.3971 29.7111 17.5621 29.7111C17.5877 30.8099 17.5925 31.9106 17.5593 33.0085C17.3242 32.9848 17.1004 32.873 16.8654 32.8739C16.4358 33.0019 15.9314 33.145 15.522 32.8815C15.1589 32.6626 15.082 32.2064 15.0716 31.8168C15.0612 31.1152 15.0535 30.4127 15.0848 29.712ZM18.2077 33.9139C18.4922 33.9158 18.7908 33.8693 19.062 33.9765C19.4763 34.1396 19.5019 34.8022 19.1312 35.0251C18.8838 35.1445 18.5994 35.1246 18.3329 35.154C18.332 35.4517 18.3879 35.7711 18.2334 36.0433C18.1547 35.336 18.1974 34.6231 18.2077 33.9139ZM18.331 34.0637C18.3367 34.3652 18.3348 34.6676 18.3291 34.9701C18.5983 34.9768 18.9312 35.062 19.1417 34.8411C19.2933 34.7085 19.2479 34.4847 19.2241 34.3093C19.0601 33.9774 18.6325 34.06 18.331 34.0637ZM23.5341 33.9206C23.899 33.9215 24.3362 33.823 24.6329 34.095C24.8404 34.2703 24.7315 34.551 24.6575 34.7634C24.522 35.0649 24.9135 35.3587 24.7249 35.6659C24.5077 36.1077 23.9332 36.0176 23.5294 35.9901C23.5189 35.301 23.5131 34.6097 23.5341 33.9206ZM23.6667 34.0514C23.6629 34.3159 23.664 34.5804 23.6678 34.8459C23.9142 34.8364 24.1683 34.8649 24.4091 34.7966C24.6082 34.7398 24.6546 34.4922 24.6224 34.3131C24.4375 33.968 23.9882 34.0685 23.6667 34.0514ZM23.6629 34.989C23.6611 35.2886 23.6629 35.5891 23.6725 35.8896C23.9133 35.8774 24.1655 35.9039 24.3968 35.8214C24.7058 35.6848 24.7305 35.1928 24.4395 35.0211C24.1844 34.9625 23.9209 34.9881 23.6629 34.989ZM25.1391 33.9452C25.3231 33.8428 25.3809 34.2239 25.197 34.239C25.0642 34.2201 25.0501 34.0211 25.1391 33.9452ZM19.6783 34.8449C19.6953 34.5292 19.6137 34.1831 19.7883 33.8968C19.8366 34.6088 19.8527 35.3303 19.7787 36.0414C19.6052 35.666 19.702 35.2431 19.6783 34.8449ZM20.3097 34.478C20.5827 34.5055 20.9373 34.4136 21.1297 34.6657C21.2549 35.0734 21.1743 35.5104 21.1952 35.9305C20.9572 35.9513 20.723 36.0072 20.4841 35.9996C20.0859 35.9504 20.0271 35.2725 20.4102 35.1549C20.6244 35.0829 20.8529 35.0762 21.0757 35.044C21.0378 34.9085 21.034 34.7501 20.9212 34.6496C20.7164 34.6032 20.505 34.6193 20.2973 34.6174C20.3002 34.5823 20.3068 34.5131 20.3097 34.478ZM20.4348 35.2782C20.2632 35.3616 20.284 35.5844 20.3277 35.7389C20.4841 35.9987 20.8064 35.8261 21.0369 35.7987C21.0425 35.6006 21.0472 35.4034 21.052 35.2062C20.8462 35.2223 20.6301 35.2004 20.4348 35.2782ZM21.5175 34.441C21.7934 34.8923 21.8521 35.4308 22.0532 35.9134C22.2978 35.4554 22.2683 34.8781 22.6125 34.4732C22.5377 34.9455 22.3717 35.3948 22.2494 35.8556C22.1831 36.0613 22.1384 36.2888 21.9905 36.4548C21.8407 36.6016 21.616 36.5031 21.434 36.504C21.6482 36.414 21.8673 36.3296 22.0616 36.1987C21.7896 35.648 21.5782 35.0544 21.5175 34.441ZM25.8085 34.5766C26.1129 34.4457 26.457 34.5122 26.7803 34.4922C26.7537 34.8042 26.8845 35.2431 26.5214 35.4044C26.2589 35.4536 25.9895 35.4318 25.725 35.4574C26.0341 35.6678 26.4503 35.647 26.7385 35.8897C26.9357 36.1315 26.711 36.4946 26.4275 36.5278C26.1384 36.5724 25.7421 36.5581 25.6198 36.2357C25.6102 35.9844 25.7468 35.7456 25.6985 35.4934C25.6881 35.191 25.5051 34.7966 25.8085 34.5766ZM25.9157 34.6686C25.8113 34.7339 25.7592 34.8279 25.7592 34.9501C25.7033 35.4564 26.7111 35.4612 26.64 34.9455C26.6504 34.5908 26.1621 34.5614 25.9157 34.6686ZM25.8768 35.7115C25.8217 35.882 25.6928 36.0603 25.7715 36.2442C25.9431 36.4624 26.2788 36.4462 26.5129 36.3542C26.6826 36.2737 26.6238 36.0727 26.6438 35.9248C26.3887 35.8499 26.1337 35.7778 25.8768 35.7115ZM27.3065 34.5672C27.5936 34.4543 27.9123 34.5093 28.2137 34.4922C28.209 34.7966 28.3616 35.2062 28.0251 35.391C27.7521 35.4469 27.4704 35.4393 27.1965 35.4849C27.5368 35.6498 27.9521 35.6612 28.246 35.9172C28.3418 36.1646 28.1986 36.4669 27.9331 36.5201C27.6449 36.5648 27.2269 36.5855 27.1046 36.2509C27.0932 35.9616 27.1937 35.6782 27.1567 35.3873C27.1509 35.1103 27.0011 34.7387 27.3065 34.5672ZM27.4221 34.6581C27.187 34.7483 27.1377 35.1284 27.3766 35.244C27.6287 35.4261 28.1597 35.3274 28.1076 34.9424C28.1009 34.5956 27.6714 34.5633 27.4221 34.6581ZM27.4116 35.7362C27.2097 35.831 27.2268 36.0783 27.186 36.2632C27.4894 36.468 28.1682 36.5353 28.1388 36.0101C27.9444 35.8261 27.6658 35.775 27.4116 35.7362ZM28.6138 34.8136C28.7295 34.476 29.1921 34.3842 29.4643 34.5823C29.6416 34.7349 29.6814 34.9843 29.6804 35.2062C29.3818 35.3646 29.0035 35.2593 28.6745 35.301C28.7153 35.5001 28.719 35.7751 28.957 35.8442C29.2054 35.8831 29.4586 35.8708 29.706 35.9219C29.395 35.9997 29.0092 36.1049 28.7399 35.868C28.4764 35.5948 28.4962 35.1473 28.6138 34.8136ZM28.6716 35.1483C28.975 35.1597 29.2794 35.1588 29.5828 35.1397C29.5088 34.9027 29.4187 34.5671 29.1002 34.607C28.7997 34.5965 28.7096 34.9113 28.6716 35.1483ZM29.9999 34.5292C30.2122 34.5198 30.4237 34.5008 30.6361 34.4912C30.474 34.5823 30.3081 34.6667 30.1431 34.7519C30.1393 35.1805 30.161 35.6101 30.1156 36.0367C30.0795 35.9749 30.0438 35.9129 30.0084 35.8507C29.9705 35.411 30.0094 34.9692 29.9999 34.5292ZM25.1505 34.4714C25.3013 34.6942 25.2634 34.9701 25.2709 35.2241C25.2671 35.5 25.2946 35.7902 25.16 36.0423C25.0889 35.5228 25.0993 34.9928 25.1505 34.4714Z" fill="#F0EFED"/>
<defs>
<linearGradient id="paint0_linear_252_84" x1="0" y1="31.8988" x2="48" y2="31.8988" gradientUnits="userSpaceOnUse">
<stop stop-color="#3F85C6" stop-opacity="0.42"/>
</linearGradient>
</defs>
</svg>
