<svg width="500" height="500" viewBox="0 0 500 500" fill="none" xmlns="http://www.w3.org/2000/svg">
<path d="M500 382.4H0V382.65H500V382.4Z" fill="#EBEBEB"/>
<path d="M85.5809 391.92H52.4609V392.17H85.5809V391.92Z" fill="#EBEBEB"/>
<path d="M225.001 392.05H171.141V392.3H225.001V392.05Z" fill="#EBEBEB"/>
<path d="M124.96 397.08H105.77V397.33H124.96V397.08Z" fill="#EBEBEB"/>
<path d="M446 396.96H426.77V397.21H446V396.96Z" fill="#EBEBEB"/>
<path d="M417.86 396.96H387.57V397.21H417.86V396.96Z" fill="#EBEBEB"/>
<path d="M370.89 395.31H328.33V395.56H370.89V395.31Z" fill="#EBEBEB"/>
<path d="M237.001 337.8H43.9109C42.3983 337.797 40.9485 337.195 39.8798 336.124C38.8112 335.054 38.2109 333.603 38.2109 332.09V60.66C38.2241 59.156 38.8301 57.718 39.8974 56.6582C40.9646 55.5985 42.4069 55.0026 43.9109 55H237.001C238.515 55 239.968 55.6016 241.039 56.6724C242.109 57.7433 242.711 59.1956 242.711 60.71V332.09C242.711 333.604 242.109 335.057 241.039 336.128C239.968 337.198 238.515 337.8 237.001 337.8ZM43.9109 55.2C42.4646 55.2026 41.0784 55.7791 40.0566 56.8027C39.0348 57.8264 38.4609 59.2136 38.4609 60.66V332.09C38.4609 333.536 39.0348 334.924 40.0566 335.947C41.0784 336.971 42.4646 337.547 43.9109 337.55H237.001C238.448 337.547 239.835 336.971 240.859 335.948C241.882 334.924 242.458 333.537 242.461 332.09V60.66C242.458 59.2127 241.882 57.8255 240.859 56.8021C239.835 55.7787 238.448 55.2026 237.001 55.2H43.9109Z" fill="#EBEBEB"/>
<path d="M453.31 337.8H260.21C258.696 337.797 257.246 337.195 256.175 336.125C255.105 335.054 254.503 333.604 254.5 332.09V60.66C254.516 59.1551 255.124 57.7171 256.193 56.6576C257.262 55.5981 258.705 55.0025 260.21 55H453.31C454.812 55.0052 456.252 55.6022 457.317 56.6617C458.382 57.7212 458.987 59.1578 459 60.66V332.09C459 333.601 458.401 335.05 457.335 336.121C456.268 337.191 454.821 337.795 453.31 337.8ZM260.21 55.2C258.763 55.2026 257.375 55.7787 256.352 56.8021C255.329 57.8255 254.753 59.2127 254.75 60.66V332.09C254.753 333.537 255.329 334.924 256.352 335.948C257.375 336.971 258.763 337.547 260.21 337.55H453.31C454.757 337.547 456.145 336.971 457.168 335.948C458.191 334.924 458.767 333.537 458.77 332.09V60.66C458.767 59.2127 458.191 57.8255 457.168 56.8021C456.145 55.7787 454.757 55.2026 453.31 55.2H260.21Z" fill="#EBEBEB"/>
<path opacity="0.6" d="M75.9199 93.4H172.57L173.39 90.04H76.7399L75.9199 93.4Z" fill="#F0F0F0"/>
<path opacity="0.6" d="M75.9199 101.21H172.57L173.39 97.86H76.7399L75.9199 101.21Z" fill="#F0F0F0"/>
<path opacity="0.6" d="M75.9199 109.03H172.57L173.39 105.67H76.7399L75.9199 109.03Z" fill="#F0F0F0"/>
<path opacity="0.6" d="M75.9199 116.84H172.57L173.39 113.49H76.7399L75.9199 116.84Z" fill="#F0F0F0"/>
<path opacity="0.6" d="M75.9199 124.66H172.57L173.39 121.31H76.7399L75.9199 124.66Z" fill="#F0F0F0"/>
<path opacity="0.6" d="M75.9199 132.48H172.57L173.39 129.12H76.7399L75.9199 132.48Z" fill="#F0F0F0"/>
<path d="M243.121 262.73H182.031C181.169 262.73 180.471 263.428 180.471 264.29V289.77C180.471 290.632 181.169 291.33 182.031 291.33H243.121C243.982 291.33 244.681 290.632 244.681 289.77V264.29C244.681 263.428 243.982 262.73 243.121 262.73Z" fill="#3F85C6"/>
<path opacity="0.6" d="M243.121 262.73H182.031C181.169 262.73 180.471 263.428 180.471 264.29V289.77C180.471 290.632 181.169 291.33 182.031 291.33H243.121C243.982 291.33 244.681 290.632 244.681 289.77V264.29C244.681 263.428 243.982 262.73 243.121 262.73Z" fill="white"/>
<path opacity="0.1" d="M243.109 262.73H181.999C181.586 262.73 181.189 262.894 180.896 263.187C180.604 263.48 180.439 263.876 180.439 264.29V272.46L212.239 278.72C212.434 278.76 212.635 278.76 212.829 278.72L244.639 272.46V264.29C244.64 263.881 244.479 263.489 244.193 263.197C243.907 262.906 243.518 262.738 243.109 262.73Z" fill="black"/>
<path d="M244.45 252.27H225.79V249.14C225.787 247.847 225.272 246.607 224.358 245.692C223.443 244.778 222.203 244.263 220.91 244.26H204.24C202.946 244.263 201.707 244.778 200.792 245.692C199.878 246.607 199.363 247.847 199.36 249.14V252.27H180.71C180.301 252.27 179.91 252.432 179.621 252.721C179.332 253.01 179.17 253.402 179.17 253.81V269.22C179.172 269.576 179.296 269.92 179.522 270.195C179.748 270.47 180.061 270.659 180.41 270.73L212.28 277C212.475 277.03 212.674 277.03 212.87 277L244.74 270.73C245.09 270.659 245.404 270.471 245.632 270.196C245.859 269.921 245.986 269.577 245.99 269.22V253.81C245.99 253.402 245.828 253.01 245.539 252.721C245.25 252.432 244.858 252.27 244.45 252.27ZM203.07 249.14C203.072 248.83 203.196 248.532 203.415 248.312C203.633 248.092 203.93 247.965 204.24 247.96H220.91C221.22 247.965 221.516 248.092 221.735 248.312C221.954 248.532 222.077 248.83 222.08 249.14V252.27H203.08L203.07 249.14Z" fill="#3F85C6"/>
<path opacity="0.6" d="M244.45 252.27H225.79V249.14C225.787 247.847 225.272 246.607 224.358 245.692C223.443 244.778 222.203 244.263 220.91 244.26H204.24C202.946 244.263 201.707 244.778 200.792 245.692C199.878 246.607 199.363 247.847 199.36 249.14V252.27H180.71C180.301 252.27 179.91 252.432 179.621 252.721C179.332 253.01 179.17 253.402 179.17 253.81V269.22C179.172 269.576 179.296 269.92 179.522 270.195C179.748 270.47 180.061 270.659 180.41 270.73L212.28 277C212.475 277.03 212.674 277.03 212.87 277L244.74 270.73C245.09 270.659 245.404 270.471 245.632 270.196C245.859 269.921 245.986 269.577 245.99 269.22V253.81C245.99 253.402 245.828 253.01 245.539 252.721C245.25 252.432 244.858 252.27 244.45 252.27ZM203.07 249.14C203.072 248.83 203.196 248.532 203.415 248.312C203.633 248.092 203.93 247.965 204.24 247.96H220.91C221.22 247.965 221.516 248.092 221.735 248.312C221.954 248.532 222.077 248.83 222.08 249.14V252.27H203.08L203.07 249.14Z" fill="white"/>
<path d="M215.871 272.79H209.291C208.473 272.79 207.811 273.453 207.811 274.27V278.43C207.811 279.247 208.473 279.91 209.291 279.91H215.871C216.688 279.91 217.351 279.247 217.351 278.43V274.27C217.351 273.453 216.688 272.79 215.871 272.79Z" fill="#3F85C6"/>
<path opacity="0.3" d="M215.871 272.79H209.291C208.473 272.79 207.811 273.453 207.811 274.27V278.43C207.811 279.247 208.473 279.91 209.291 279.91H215.871C216.688 279.91 217.351 279.247 217.351 278.43V274.27C217.351 273.453 216.688 272.79 215.871 272.79Z" fill="white"/>
<path d="M243.121 78.77H182.031C181.169 78.77 180.471 79.4685 180.471 80.33V105.81C180.471 106.672 181.169 107.37 182.031 107.37H243.121C243.982 107.37 244.681 106.672 244.681 105.81V80.33C244.681 79.4685 243.982 78.77 243.121 78.77Z" fill="#3F85C6"/>
<path opacity="0.6" d="M243.121 78.77H182.031C181.169 78.77 180.471 79.4685 180.471 80.33V105.81C180.471 106.672 181.169 107.37 182.031 107.37H243.121C243.982 107.37 244.681 106.672 244.681 105.81V80.33C244.681 79.4685 243.982 78.77 243.121 78.77Z" fill="white"/>
<path opacity="0.1" d="M243.109 78.77H181.999C181.586 78.77 181.189 78.9344 180.896 79.2269C180.604 79.5195 180.439 79.9163 180.439 80.33V88.5L212.239 94.76C212.434 94.7999 212.635 94.7999 212.829 94.76L244.639 88.5V80.33C244.64 79.9214 244.479 79.5291 244.193 79.2374C243.907 78.9457 243.518 78.7779 243.109 78.77Z" fill="black"/>
<path d="M244.45 68.31H225.79V65.18C225.787 63.8866 225.272 62.6469 224.358 61.7323C223.443 60.8177 222.203 60.3027 220.91 60.3H204.24C202.946 60.3027 201.707 60.8177 200.792 61.7323C199.878 62.6469 199.363 63.8866 199.36 65.18V68.31H180.71C180.301 68.31 179.91 68.4723 179.621 68.7611C179.332 69.0499 179.17 69.4416 179.17 69.85V85.2601C179.17 85.6163 179.294 85.9615 179.52 86.2369C179.746 86.5122 180.06 86.7006 180.41 86.77L212.28 93C212.475 93.0399 212.675 93.0399 212.87 93L244.74 86.7301C245.086 86.6644 245.399 86.4831 245.628 86.216C245.857 85.9488 245.988 85.6117 246 85.2601V69.85C246 69.647 245.96 69.4459 245.882 69.2584C245.804 69.0709 245.689 68.9007 245.545 68.7576C245.401 68.6144 245.23 68.5012 245.042 68.4244C244.854 68.3476 244.653 68.3087 244.45 68.31ZM203.07 65.18C203.07 64.8688 203.193 64.5702 203.412 64.3492C203.631 64.1282 203.929 64.0027 204.24 64H220.91C221.219 64.0027 221.515 64.1268 221.734 64.3456C221.953 64.5645 222.077 64.8606 222.08 65.17V68.3001H203.08L203.07 65.18Z" fill="#3F85C6"/>
<path opacity="0.6" d="M244.45 68.31H225.79V65.18C225.787 63.8866 225.272 62.6469 224.358 61.7323C223.443 60.8177 222.203 60.3027 220.91 60.3H204.24C202.946 60.3027 201.707 60.8177 200.792 61.7323C199.878 62.6469 199.363 63.8866 199.36 65.18V68.31H180.71C180.301 68.31 179.91 68.4723 179.621 68.7611C179.332 69.0499 179.17 69.4416 179.17 69.85V85.2601C179.17 85.6163 179.294 85.9615 179.52 86.2369C179.746 86.5122 180.06 86.7006 180.41 86.77L212.28 93C212.475 93.0399 212.675 93.0399 212.87 93L244.74 86.7301C245.086 86.6644 245.399 86.4831 245.628 86.216C245.857 85.9488 245.988 85.6117 246 85.2601V69.85C246 69.647 245.96 69.4459 245.882 69.2584C245.804 69.0709 245.689 68.9007 245.545 68.7576C245.401 68.6144 245.23 68.5012 245.042 68.4244C244.854 68.3476 244.653 68.3087 244.45 68.31ZM203.07 65.18C203.07 64.8688 203.193 64.5702 203.412 64.3492C203.631 64.1282 203.929 64.0027 204.24 64H220.91C221.219 64.0027 221.515 64.1268 221.734 64.3456C221.953 64.5645 222.077 64.8606 222.08 65.17V68.3001H203.08L203.07 65.18Z" fill="white"/>
<path d="M215.871 88.84H209.291C208.473 88.84 207.811 89.5026 207.811 90.32V94.48C207.811 95.2974 208.473 95.96 209.291 95.96H215.871C216.688 95.96 217.351 95.2974 217.351 94.48V90.32C217.351 89.5026 216.688 88.84 215.871 88.84Z" fill="#3F85C6"/>
<path opacity="0.3" d="M215.871 88.84H209.291C208.473 88.84 207.811 89.5026 207.811 90.32V94.48C207.811 95.2974 208.473 95.96 209.291 95.96H215.871C216.688 95.96 217.351 95.2974 217.351 94.48V90.32C217.351 89.5026 216.688 88.84 215.871 88.84Z" fill="white"/>
<path d="M147.961 262.73H86.8706C86.009 262.73 85.3105 263.428 85.3105 264.29V289.77C85.3105 290.632 86.009 291.33 86.8706 291.33H147.961C148.822 291.33 149.521 290.632 149.521 289.77V264.29C149.521 263.428 148.822 262.73 147.961 262.73Z" fill="#3F85C6"/>
<path opacity="0.6" d="M147.961 262.73H86.8706C86.009 262.73 85.3105 263.428 85.3105 264.29V289.77C85.3105 290.632 86.009 291.33 86.8706 291.33H147.961C148.822 291.33 149.521 290.632 149.521 289.77V264.29C149.521 263.428 148.822 262.73 147.961 262.73Z" fill="white"/>
<path opacity="0.1" d="M148.001 262.73H86.8706C86.4568 262.73 86.06 262.894 85.7675 263.187C85.4749 263.48 85.3105 263.876 85.3105 264.29V272.46L117.111 278.72C117.309 278.76 117.513 278.76 117.711 278.72L149.521 272.46V264.29C149.521 263.883 149.362 263.492 149.078 263.201C148.794 262.909 148.407 262.74 148.001 262.73Z" fill="black"/>
<path d="M149.28 252.27H130.62V249.14C130.617 247.847 130.102 246.607 129.188 245.692C128.273 244.778 127.033 244.263 125.74 244.26H109.08C107.787 244.263 106.547 244.778 105.632 245.692C104.718 246.607 104.203 247.847 104.2 249.14V252.27H85.54C85.1316 252.27 84.7399 252.432 84.4511 252.721C84.1623 253.01 84 253.402 84 253.81V269.22C84.002 269.576 84.1263 269.92 84.3521 270.195C84.5779 270.47 84.8914 270.659 85.24 270.73L117.11 277C117.309 277.03 117.511 277.03 117.71 277L149.58 270.73C149.929 270.659 150.242 270.47 150.468 270.195C150.694 269.92 150.818 269.576 150.82 269.22V253.81C150.82 253.402 150.658 253.01 150.369 252.721C150.08 252.432 149.688 252.27 149.28 252.27ZM107.9 249.14C107.905 248.829 108.031 248.532 108.251 248.311C108.471 248.091 108.769 247.965 109.08 247.96H125.74C126.051 247.965 126.349 248.091 126.569 248.311C126.789 248.532 126.915 248.829 126.92 249.14V252.27H107.92L107.9 249.14Z" fill="#3F85C6"/>
<path opacity="0.6" d="M149.28 252.27H130.62V249.14C130.617 247.847 130.102 246.607 129.188 245.692C128.273 244.778 127.033 244.263 125.74 244.26H109.08C107.787 244.263 106.547 244.778 105.632 245.692C104.718 246.607 104.203 247.847 104.2 249.14V252.27H85.54C85.1316 252.27 84.7399 252.432 84.4511 252.721C84.1623 253.01 84 253.402 84 253.81V269.22C84.002 269.576 84.1263 269.92 84.3521 270.195C84.5779 270.47 84.8914 270.659 85.24 270.73L117.11 277C117.309 277.03 117.511 277.03 117.71 277L149.58 270.73C149.929 270.659 150.242 270.47 150.468 270.195C150.694 269.92 150.818 269.576 150.82 269.22V253.81C150.82 253.402 150.658 253.01 150.369 252.721C150.08 252.432 149.688 252.27 149.28 252.27ZM107.9 249.14C107.905 248.829 108.031 248.532 108.251 248.311C108.471 248.091 108.769 247.965 109.08 247.96H125.74C126.051 247.965 126.349 248.091 126.569 248.311C126.789 248.532 126.915 248.829 126.92 249.14V252.27H107.92L107.9 249.14Z" fill="white"/>
<path d="M120.701 272.79H114.121C113.303 272.79 112.641 273.453 112.641 274.27V278.43C112.641 279.247 113.303 279.91 114.121 279.91H120.701C121.518 279.91 122.181 279.247 122.181 278.43V274.27C122.181 273.453 121.518 272.79 120.701 272.79Z" fill="#3F85C6"/>
<path opacity="0.3" d="M120.701 272.79H114.121C113.303 272.79 112.641 273.453 112.641 274.27V278.43C112.641 279.247 113.303 279.91 114.121 279.91H120.701C121.518 279.91 122.181 279.247 122.181 278.43V274.27C122.181 273.453 121.518 272.79 120.701 272.79Z" fill="white"/>
<path d="M147.961 78.77H86.8706C86.009 78.77 85.3105 79.4685 85.3105 80.33V105.81C85.3105 106.672 86.009 107.37 86.8706 107.37H147.961C148.822 107.37 149.521 106.672 149.521 105.81V80.33C149.521 79.4685 148.822 78.77 147.961 78.77Z" fill="#3F85C6"/>
<path opacity="0.6" d="M147.961 78.77H86.8706C86.009 78.77 85.3105 79.4685 85.3105 80.33V105.81C85.3105 106.672 86.009 107.37 86.8706 107.37H147.961C148.822 107.37 149.521 106.672 149.521 105.81V80.33C149.521 79.4685 148.822 78.77 147.961 78.77Z" fill="white"/>
<path opacity="0.1" d="M148.001 78.77H86.8706C86.4568 78.77 86.06 78.9344 85.7675 79.2269C85.4749 79.5195 85.3105 79.9163 85.3105 80.33V88.5L117.111 94.76C117.309 94.8002 117.513 94.8002 117.711 94.76L149.521 88.5V80.33C149.521 79.9231 149.362 79.5323 149.078 79.2408C148.794 78.9494 148.407 78.7805 148.001 78.77Z" fill="black"/>
<path d="M149.28 68.31H130.62V65.18C130.617 63.8866 130.102 62.6469 129.188 61.7323C128.273 60.8177 127.033 60.3027 125.74 60.3H109.08C107.787 60.3027 106.547 60.8177 105.632 61.7323C104.718 62.6469 104.203 63.8866 104.2 65.18V68.31H85.54C85.1316 68.31 84.7399 68.4723 84.4511 68.7611C84.1623 69.0499 84 69.4416 84 69.85V85.2601C84.0001 85.6163 84.1238 85.9615 84.3499 86.2369C84.576 86.5122 84.8905 86.7006 85.24 86.77L117.11 93C117.308 93.0402 117.512 93.0402 117.71 93L149.58 86.7301C149.929 86.6606 150.244 86.4722 150.47 86.1969C150.696 85.9215 150.82 85.5763 150.82 85.2201V69.85C150.82 69.4416 150.658 69.0499 150.369 68.7611C150.08 68.4723 149.688 68.31 149.28 68.31ZM107.9 65.18C107.903 64.8679 108.028 64.5693 108.249 64.3486C108.469 64.1278 108.768 64.0027 109.08 64H125.74C126.05 64.0026 126.348 64.1264 126.568 64.345C126.788 64.5636 126.915 64.8596 126.92 65.17V68.3001H107.92L107.9 65.18Z" fill="#3F85C6"/>
<path opacity="0.6" d="M149.28 68.31H130.62V65.18C130.617 63.8866 130.102 62.6469 129.188 61.7323C128.273 60.8177 127.033 60.3027 125.74 60.3H109.08C107.787 60.3027 106.547 60.8177 105.632 61.7323C104.718 62.6469 104.203 63.8866 104.2 65.18V68.31H85.54C85.1316 68.31 84.7399 68.4723 84.4511 68.7611C84.1623 69.0499 84 69.4416 84 69.85V85.2601C84.0001 85.6163 84.1238 85.9615 84.3499 86.2369C84.576 86.5122 84.8905 86.7006 85.24 86.77L117.11 93C117.308 93.0402 117.512 93.0402 117.71 93L149.58 86.7301C149.929 86.6606 150.244 86.4722 150.47 86.1969C150.696 85.9215 150.82 85.5763 150.82 85.2201V69.85C150.82 69.4416 150.658 69.0499 150.369 68.7611C150.08 68.4723 149.688 68.31 149.28 68.31ZM107.9 65.18C107.903 64.8679 108.028 64.5693 108.249 64.3486C108.469 64.1278 108.768 64.0027 109.08 64H125.74C126.05 64.0026 126.348 64.1264 126.568 64.345C126.788 64.5636 126.915 64.8596 126.92 65.17V68.3001H107.92L107.9 65.18Z" fill="white"/>
<path d="M120.701 88.84H114.121C113.303 88.84 112.641 89.5026 112.641 90.32V94.48C112.641 95.2974 113.303 95.96 114.121 95.96H120.701C121.518 95.96 122.181 95.2974 122.181 94.48V90.32C122.181 89.5026 121.518 88.84 120.701 88.84Z" fill="#3F85C6"/>
<path opacity="0.3" d="M120.701 88.84H114.121C113.303 88.84 112.641 89.5026 112.641 90.32V94.48C112.641 95.2974 113.303 95.96 114.121 95.96H120.701C121.518 95.96 122.181 95.2974 122.181 94.48V90.32C122.181 89.5026 121.518 88.84 120.701 88.84Z" fill="white"/>
<path d="M140.001 199.35H86.8708C86.4544 199.35 86.0551 199.185 85.7606 198.89C85.4662 198.596 85.3008 198.196 85.3008 197.78V172.31C85.3023 172.1 85.3466 171.892 85.4308 171.7C85.4714 171.61 85.5182 171.523 85.5708 171.44C85.6264 171.354 85.6938 171.277 85.7708 171.21C86.0621 170.917 86.4577 170.752 86.8708 170.75H137.161C136.742 174.24 136.605 177.758 136.751 181.27C136.751 181.84 136.751 182.41 136.841 182.97C136.911 184.02 136.991 185.08 137.111 186.13C137.625 190.623 138.594 195.052 140.001 199.35Z" fill="#3F85C6"/>
<path opacity="0.6" d="M140.001 199.35H86.8708C86.4544 199.35 86.0551 199.185 85.7606 198.89C85.4662 198.596 85.3008 198.196 85.3008 197.78V172.31C85.3023 172.1 85.3466 171.892 85.4308 171.7C85.4714 171.61 85.5182 171.523 85.5708 171.44C85.6264 171.354 85.6938 171.277 85.7708 171.21C86.0621 170.917 86.4577 170.752 86.8708 170.75H137.161C136.742 174.24 136.605 177.758 136.751 181.27C136.751 181.84 136.751 182.41 136.841 182.97C136.911 184.02 136.991 185.08 137.111 186.13C137.625 190.623 138.594 195.052 140.001 199.35Z" fill="white"/>
<path opacity="0.1" d="M137.161 170.75C136.742 174.24 136.605 177.758 136.751 181.27C136.751 181.84 136.751 182.41 136.841 182.97L122.181 185.85L117.701 186.73C117.507 186.78 117.304 186.78 117.111 186.73L112.641 185.86L85.3105 180.48V172.3C85.3137 172.094 85.3544 171.891 85.4305 171.7C85.4712 171.61 85.518 171.523 85.5705 171.44C85.6262 171.354 85.6935 171.277 85.7705 171.21C86.0618 170.917 86.4574 170.752 86.8706 170.75H137.161Z" fill="black"/>
<path d="M139.25 160.29H130.63V157.16C130.625 155.866 130.108 154.626 129.191 153.712C128.275 152.797 127.034 152.283 125.74 152.28H109.08C107.786 152.28 106.544 152.794 105.629 153.709C104.714 154.625 104.2 155.866 104.2 157.16V160.29H85.54C85.3378 160.29 85.1375 160.33 84.9507 160.407C84.7638 160.485 84.5941 160.598 84.4511 160.741C84.3081 160.884 84.1946 161.054 84.1172 161.241C84.0398 161.428 84 161.628 84 161.83V177.23C84.0002 177.589 84.1249 177.937 84.3528 178.214C84.5808 178.491 84.8979 178.681 85.25 178.75H85.31L112.64 184.14L117.11 185.01C117.305 185.05 117.505 185.05 117.7 185.01L122.18 184.13L136.75 181.26C136.605 177.748 136.742 174.23 137.16 170.74C137.575 167.206 138.274 163.712 139.25 160.29ZM107.9 157.16C107.905 156.85 108.032 156.554 108.252 156.335C108.472 156.116 108.77 155.993 109.08 155.99H125.74C126.049 155.993 126.346 156.117 126.564 156.336C126.783 156.554 126.907 156.851 126.91 157.16V160.29H107.91L107.9 157.16Z" fill="#3F85C6"/>
<path opacity="0.6" d="M139.25 160.29H130.63V157.16C130.625 155.866 130.108 154.626 129.191 153.712C128.275 152.797 127.034 152.283 125.74 152.28H109.08C107.786 152.28 106.544 152.794 105.629 153.709C104.714 154.625 104.2 155.866 104.2 157.16V160.29H85.54C85.3378 160.29 85.1375 160.33 84.9507 160.407C84.7638 160.485 84.5941 160.598 84.4511 160.741C84.3081 160.884 84.1946 161.054 84.1172 161.241C84.0398 161.428 84 161.628 84 161.83V177.23C84.0002 177.589 84.1249 177.937 84.3528 178.214C84.5808 178.491 84.8979 178.681 85.25 178.75H85.31L112.64 184.14L117.11 185.01C117.305 185.05 117.505 185.05 117.7 185.01L122.18 184.13L136.75 181.26C136.605 177.748 136.742 174.23 137.16 170.74C137.575 167.206 138.274 163.712 139.25 160.29ZM107.9 157.16C107.905 156.85 108.032 156.554 108.252 156.335C108.472 156.116 108.77 155.993 109.08 155.99H125.74C126.049 155.993 126.346 156.117 126.564 156.336C126.783 156.554 126.907 156.851 126.91 157.16V160.29H107.91L107.9 157.16Z" fill="white"/>
<path d="M120.701 180.81H114.121C113.303 180.81 112.641 181.473 112.641 182.29V186.45C112.641 187.267 113.303 187.93 114.121 187.93H120.701C121.518 187.93 122.181 187.267 122.181 186.45V182.29C122.181 181.473 121.518 180.81 120.701 180.81Z" fill="#3F85C6"/>
<path opacity="0.3" d="M120.701 180.81H114.121C113.303 180.81 112.641 181.473 112.641 182.29V186.45C112.641 187.267 113.303 187.93 114.121 187.93H120.701C121.518 187.93 122.181 187.267 122.181 186.45V182.29C122.181 181.473 121.518 180.81 120.701 180.81Z" fill="white"/>
<path d="M277.19 291.32H338.28C339.141 291.32 339.84 290.622 339.84 289.76V264.28C339.84 263.418 339.141 262.72 338.28 262.72H277.19C276.328 262.72 275.63 263.418 275.63 264.28V289.76C275.63 290.622 276.328 291.32 277.19 291.32Z" fill="#3F85C6"/>
<path opacity="0.6" d="M277.19 291.32H338.28C339.141 291.32 339.84 290.622 339.84 289.76V264.28C339.84 263.418 339.141 262.72 338.28 262.72H277.19C276.328 262.72 275.63 263.418 275.63 264.28V289.76C275.63 290.622 276.328 291.32 277.19 291.32Z" fill="white"/>
<path opacity="0.1" d="M277.2 262.73H338.28C338.693 262.73 339.09 262.894 339.383 263.187C339.675 263.479 339.84 263.876 339.84 264.29V272.46L308 278.72C307.805 278.76 307.604 278.76 307.41 278.72L275.6 272.46V264.29C275.6 264.082 275.641 263.876 275.722 263.684C275.803 263.492 275.921 263.318 276.071 263.173C276.22 263.027 276.396 262.913 276.59 262.837C276.784 262.761 276.991 262.725 277.2 262.73Z" fill="black"/>
<path d="M275.869 252.27H294.529V249.14C294.532 247.847 295.047 246.607 295.961 245.692C296.876 244.778 298.116 244.263 299.409 244.26H316.079C317.372 244.263 318.612 244.778 319.527 245.692C320.441 246.607 320.956 247.847 320.959 249.14V252.27H339.609C339.811 252.27 340.012 252.31 340.198 252.387C340.385 252.465 340.555 252.578 340.698 252.721C340.841 252.864 340.954 253.034 341.032 253.221C341.109 253.408 341.149 253.608 341.149 253.81V269.22C341.147 269.576 341.023 269.92 340.797 270.195C340.571 270.47 340.258 270.659 339.909 270.73L307.999 277C307.8 277.03 307.598 277.03 307.399 277L275.529 270.73C275.18 270.659 274.867 270.47 274.641 270.195C274.415 269.92 274.291 269.576 274.289 269.22V253.81C274.289 253.604 274.33 253.401 274.41 253.211C274.49 253.022 274.607 252.85 274.754 252.707C274.901 252.563 275.076 252.451 275.267 252.376C275.459 252.301 275.663 252.265 275.869 252.27ZM317.249 249.14C317.246 248.83 317.123 248.532 316.904 248.312C316.686 248.092 316.389 247.965 316.079 247.96H299.409C299.098 247.965 298.801 248.091 298.58 248.311C298.36 248.532 298.234 248.829 298.229 249.14V252.27H317.229L317.249 249.14Z" fill="#3F85C6"/>
<path opacity="0.6" d="M275.869 252.27H294.529V249.14C294.532 247.847 295.047 246.607 295.961 245.692C296.876 244.778 298.116 244.263 299.409 244.26H316.079C317.372 244.263 318.612 244.778 319.527 245.692C320.441 246.607 320.956 247.847 320.959 249.14V252.27H339.609C339.811 252.27 340.012 252.31 340.198 252.387C340.385 252.465 340.555 252.578 340.698 252.721C340.841 252.864 340.954 253.034 341.032 253.221C341.109 253.408 341.149 253.608 341.149 253.81V269.22C341.147 269.576 341.023 269.92 340.797 270.195C340.571 270.47 340.258 270.659 339.909 270.73L307.999 277C307.8 277.03 307.598 277.03 307.399 277L275.529 270.73C275.18 270.659 274.867 270.47 274.641 270.195C274.415 269.92 274.291 269.576 274.289 269.22V253.81C274.289 253.604 274.33 253.401 274.41 253.211C274.49 253.022 274.607 252.85 274.754 252.707C274.901 252.563 275.076 252.451 275.267 252.376C275.459 252.301 275.663 252.265 275.869 252.27ZM317.249 249.14C317.246 248.83 317.123 248.532 316.904 248.312C316.686 248.092 316.389 247.965 316.079 247.96H299.409C299.098 247.965 298.801 248.091 298.58 248.311C298.36 248.532 298.234 248.829 298.229 249.14V252.27H317.229L317.249 249.14Z" fill="white"/>
<path d="M304.45 279.91H311.03C311.847 279.91 312.51 279.247 312.51 278.43V274.27C312.51 273.453 311.847 272.79 311.03 272.79H304.45C303.632 272.79 302.97 273.453 302.97 274.27V278.43C302.97 279.247 303.632 279.91 304.45 279.91Z" fill="#3F85C6"/>
<path opacity="0.3" d="M304.45 279.91H311.03C311.847 279.91 312.51 279.247 312.51 278.43V274.27C312.51 273.453 311.847 272.79 311.03 272.79H304.45C303.632 272.79 302.97 273.453 302.97 274.27V278.43C302.97 279.247 303.632 279.91 304.45 279.91Z" fill="white"/>
<path d="M277.19 107.36L338.28 107.36C339.141 107.36 339.84 106.662 339.84 105.8V80.32C339.84 79.4584 339.141 78.76 338.28 78.76H277.19C276.328 78.76 275.63 79.4584 275.63 80.32V105.8C275.63 106.662 276.328 107.36 277.19 107.36Z" fill="#3F85C6"/>
<path opacity="0.6" d="M277.19 107.36L338.28 107.36C339.141 107.36 339.84 106.662 339.84 105.8V80.32C339.84 79.4584 339.141 78.76 338.28 78.76H277.19C276.328 78.76 275.63 79.4584 275.63 80.32V105.8C275.63 106.662 276.328 107.36 277.19 107.36Z" fill="white"/>
<path opacity="0.1" d="M277.201 78.77H338.281C338.694 78.77 339.091 78.9344 339.384 79.2269C339.676 79.5195 339.841 79.9163 339.841 80.33V88.5L308.001 94.76C307.806 94.7999 307.605 94.7999 307.411 94.76L275.641 88.5V80.33C275.641 79.9163 275.805 79.5195 276.098 79.2269C276.39 78.9344 276.787 78.77 277.201 78.77Z" fill="black"/>
<path d="M275.869 68.31H294.529V65.18C294.532 63.8866 295.047 62.6469 295.961 61.7323C296.876 60.8177 298.116 60.3027 299.409 60.3H316.079C316.723 60.2961 317.361 60.4193 317.957 60.6627C318.553 60.906 319.096 61.2647 319.553 61.7181C320.01 62.1715 320.373 62.7107 320.621 63.3048C320.869 63.8989 320.998 64.5362 320.999 65.18V68.31H339.649C340.057 68.31 340.449 68.4723 340.738 68.7611C341.027 69.0499 341.189 69.4416 341.189 69.85V85.26C341.189 85.6163 341.065 85.9615 340.839 86.2369C340.613 86.5122 340.299 86.7006 339.949 86.77L307.999 93C307.801 93.0402 307.597 93.0402 307.399 93L275.529 86.73C275.18 86.6606 274.865 86.4722 274.639 86.1968C274.413 85.9215 274.289 85.5763 274.289 85.22V69.85C274.289 69.6444 274.33 69.4408 274.41 69.2513C274.49 69.0618 274.607 68.8902 274.754 68.7467C274.901 68.6031 275.076 68.4906 275.267 68.4156C275.459 68.3406 275.663 68.3047 275.869 68.31ZM317.249 65.18C317.249 64.8688 317.126 64.5702 316.907 64.3491C316.688 64.1281 316.39 64.0027 316.079 64H299.409C299.099 64.0026 298.801 64.1264 298.581 64.345C298.361 64.5635 298.234 64.8596 298.229 65.17V68.3H317.229L317.249 65.18Z" fill="#3F85C6"/>
<path opacity="0.6" d="M275.869 68.31H294.529V65.18C294.532 63.8866 295.047 62.6469 295.961 61.7323C296.876 60.8177 298.116 60.3027 299.409 60.3H316.079C316.723 60.2961 317.361 60.4193 317.957 60.6627C318.553 60.906 319.096 61.2647 319.553 61.7181C320.01 62.1715 320.373 62.7107 320.621 63.3048C320.869 63.8989 320.998 64.5362 320.999 65.18V68.31H339.649C340.057 68.31 340.449 68.4723 340.738 68.7611C341.027 69.0499 341.189 69.4416 341.189 69.85V85.26C341.189 85.6163 341.065 85.9615 340.839 86.2369C340.613 86.5122 340.299 86.7006 339.949 86.77L307.999 93C307.801 93.0402 307.597 93.0402 307.399 93L275.529 86.73C275.18 86.6606 274.865 86.4722 274.639 86.1968C274.413 85.9215 274.289 85.5763 274.289 85.22V69.85C274.289 69.6444 274.33 69.4408 274.41 69.2513C274.49 69.0618 274.607 68.8902 274.754 68.7467C274.901 68.6031 275.076 68.4906 275.267 68.4156C275.459 68.3406 275.663 68.3047 275.869 68.31ZM317.249 65.18C317.249 64.8688 317.126 64.5702 316.907 64.3491C316.688 64.1281 316.39 64.0027 316.079 64H299.409C299.099 64.0026 298.801 64.1264 298.581 64.345C298.361 64.5635 298.234 64.8596 298.229 65.17V68.3H317.229L317.249 65.18Z" fill="white"/>
<path d="M304.45 95.9501H311.03C311.847 95.9501 312.51 95.2875 312.51 94.4701V90.3101C312.51 89.4927 311.847 88.8301 311.03 88.8301H304.45C303.632 88.8301 302.97 89.4927 302.97 90.3101V94.4701C302.97 95.2875 303.632 95.9501 304.45 95.9501Z" fill="#3F85C6"/>
<path opacity="0.3" d="M304.45 95.9501H311.03C311.847 95.9501 312.51 95.2875 312.51 94.4701V90.3101C312.51 89.4927 311.847 88.8301 311.03 88.8301H304.45C303.632 88.8301 302.97 89.4927 302.97 90.3101V94.4701C302.97 95.2875 303.632 95.9501 304.45 95.9501Z" fill="white"/>
<path d="M285.189 199.35H338.289C338.704 199.347 339.101 199.181 339.393 198.887C339.685 198.592 339.849 198.195 339.849 197.78V172.31C339.848 172.1 339.804 171.892 339.719 171.7C339.683 171.608 339.636 171.521 339.579 171.44C339.524 171.354 339.456 171.277 339.379 171.21C339.236 171.064 339.065 170.948 338.876 170.869C338.687 170.79 338.484 170.75 338.279 170.75H287.999C288.418 174.24 288.555 177.758 288.409 181.27C288.409 181.84 288.409 182.41 288.319 182.97C288.259 184.02 288.169 185.08 288.049 186.13C287.544 190.622 286.586 195.051 285.189 199.35Z" fill="#3F85C6"/>
<path opacity="0.6" d="M285.189 199.35H338.289C338.704 199.347 339.101 199.181 339.393 198.887C339.685 198.592 339.849 198.195 339.849 197.78V172.31C339.848 172.1 339.804 171.892 339.719 171.7C339.683 171.608 339.636 171.521 339.579 171.44C339.524 171.354 339.456 171.277 339.379 171.21C339.236 171.064 339.065 170.948 338.876 170.869C338.687 170.79 338.484 170.75 338.279 170.75H287.999C288.418 174.24 288.555 177.758 288.409 181.27C288.409 181.84 288.409 182.41 288.319 182.97C288.259 184.02 288.169 185.08 288.049 186.13C287.544 190.622 286.586 195.051 285.189 199.35Z" fill="white"/>
<path opacity="0.1" d="M288 170.75C288.418 174.24 288.555 177.758 288.41 181.27C288.41 181.84 288.41 182.41 288.32 182.97L303 185.85L307.48 186.73C307.674 186.78 307.877 186.78 308.07 186.73L312.54 185.86L339.87 180.48V172.3C339.867 172.094 339.826 171.891 339.75 171.7C339.713 171.608 339.666 171.521 339.61 171.44C339.554 171.354 339.487 171.277 339.41 171.21C339.266 171.064 339.095 170.948 338.906 170.869C338.717 170.79 338.515 170.75 338.31 170.75H288Z" fill="black"/>
<path d="M285.899 160.29H294.529V157.16C294.532 155.867 295.047 154.627 295.962 153.712C296.876 152.798 298.116 152.283 299.409 152.28H316.069C317.365 152.28 318.607 152.794 319.524 153.709C320.44 154.624 320.957 155.865 320.959 157.16V160.29H339.609C340.018 160.29 340.41 160.452 340.698 160.741C340.987 161.03 341.149 161.422 341.149 161.83V177.23C341.15 177.588 341.026 177.934 340.8 178.211C340.574 178.488 340.26 178.679 339.909 178.75H339.839L312.509 184.14L307.999 185C307.805 185.04 307.604 185.04 307.409 185L302.929 184.12L288.359 181.25C288.643 174.162 287.799 167.074 285.859 160.25L285.899 160.29ZM317.249 157.16C317.244 156.85 317.118 156.554 316.897 156.335C316.677 156.116 316.38 155.993 316.069 155.99H299.409C299.1 155.993 298.804 156.117 298.585 156.336C298.366 156.554 298.242 156.851 298.239 157.16V160.29H317.239L317.249 157.16Z" fill="#3F85C6"/>
<path opacity="0.6" d="M285.899 160.29H294.529V157.16C294.532 155.867 295.047 154.627 295.962 153.712C296.876 152.798 298.116 152.283 299.409 152.28H316.069C317.365 152.28 318.607 152.794 319.524 153.709C320.44 154.624 320.957 155.865 320.959 157.16V160.29H339.609C340.018 160.29 340.41 160.452 340.698 160.741C340.987 161.03 341.149 161.422 341.149 161.83V177.23C341.15 177.588 341.026 177.934 340.8 178.211C340.574 178.488 340.26 178.679 339.909 178.75H339.839L312.509 184.14L307.999 185C307.805 185.04 307.604 185.04 307.409 185L302.929 184.12L288.359 181.25C288.643 174.162 287.799 167.074 285.859 160.25L285.899 160.29ZM317.249 157.16C317.244 156.85 317.118 156.554 316.897 156.335C316.677 156.116 316.38 155.993 316.069 155.99H299.409C299.1 155.993 298.804 156.117 298.585 156.336C298.366 156.554 298.242 156.851 298.239 157.16V160.29H317.239L317.249 157.16Z" fill="white"/>
<path d="M304.45 187.94H311.03C311.847 187.94 312.51 187.277 312.51 186.46V182.3C312.51 181.483 311.847 180.82 311.03 180.82H304.45C303.632 180.82 302.97 181.483 302.97 182.3V186.46C302.97 187.277 303.632 187.94 304.45 187.94Z" fill="#3F85C6"/>
<path opacity="0.3" d="M304.45 187.94H311.03C311.847 187.94 312.51 187.277 312.51 186.46V182.3C312.51 181.483 311.847 180.82 311.03 180.82H304.45C303.632 180.82 302.97 181.483 302.97 182.3V186.46C302.97 187.277 303.632 187.94 304.45 187.94Z" fill="white"/>
<path d="M259.7 164.54H171.92C170.683 164.54 169.68 165.543 169.68 166.78V203.39C169.68 204.627 170.683 205.63 171.92 205.63H259.7C260.937 205.63 261.94 204.627 261.94 203.39V166.78C261.94 165.543 260.937 164.54 259.7 164.54Z" fill="#3F85C6"/>
<path d="M227.78 158H203.83C202.015 157.997 200.274 157.275 198.99 155.991C197.706 154.707 196.983 152.966 196.98 151.15V145C196.983 143.184 197.706 141.443 198.99 140.159C200.274 138.875 202.015 138.153 203.83 138.15H227.78C229.597 138.15 231.34 138.872 232.624 140.156C233.909 141.441 234.63 143.183 234.63 145V151.12C234.634 152.022 234.46 152.916 234.118 153.751C233.775 154.585 233.271 155.344 232.635 155.983C231.998 156.622 231.242 157.13 230.409 157.476C229.576 157.822 228.683 158 227.78 158ZM203.83 143.18C203.348 143.185 202.887 143.378 202.546 143.718C202.204 144.058 202.008 144.518 202 145V151.12C202 151.611 202.195 152.081 202.542 152.428C202.889 152.775 203.36 152.97 203.85 152.97H227.8C228.291 152.97 228.762 152.775 229.109 152.428C229.456 152.081 229.65 151.611 229.65 151.12V145C229.65 144.509 229.456 144.039 229.109 143.692C228.762 143.345 228.291 143.15 227.8 143.15L203.83 143.18Z" fill="#3F85C6"/>
<path opacity="0.2" d="M259.69 164.54H171.93C171.635 164.539 171.342 164.596 171.069 164.708C170.796 164.82 170.548 164.984 170.339 165.193C170.13 165.401 169.964 165.648 169.851 165.921C169.738 166.193 169.68 166.485 169.68 166.78V178.53L215.38 187.53C215.66 187.591 215.95 187.591 216.23 187.53L261.94 178.53V166.78C261.94 166.485 261.881 166.193 261.768 165.921C261.655 165.648 261.489 165.401 261.28 165.193C261.071 164.984 260.823 164.82 260.55 164.708C260.277 164.596 259.985 164.539 259.69 164.54Z" fill="black"/>
<path d="M262 176L216.21 185C215.925 185.05 215.634 185.05 215.35 185L169.56 176C169.056 175.901 168.603 175.63 168.277 175.235C167.951 174.839 167.771 174.343 167.77 173.83V151.73C167.77 151.44 167.827 151.152 167.938 150.884C168.049 150.616 168.212 150.373 168.417 150.167C168.622 149.962 168.866 149.799 169.134 149.688C169.402 149.577 169.689 149.52 169.98 149.52H261.6C261.89 149.52 262.177 149.577 262.445 149.688C262.713 149.799 262.957 149.962 263.162 150.167C263.367 150.373 263.53 150.616 263.641 150.884C263.752 151.152 263.81 151.44 263.81 151.73V173.87C263.799 174.379 263.614 174.869 263.284 175.258C262.954 175.646 262.5 175.908 262 176Z" fill="#3F85C6"/>
<path d="M220.551 179.01H211.081C209.91 179.01 208.961 179.959 208.961 181.13V187.12C208.961 188.291 209.91 189.24 211.081 189.24H220.551C221.722 189.24 222.671 188.291 222.671 187.12V181.13C222.671 179.959 221.722 179.01 220.551 179.01Z" fill="#3F85C6"/>
<path opacity="0.4" d="M220.551 179.01H211.081C209.91 179.01 208.961 179.959 208.961 181.13V187.12C208.961 188.291 209.91 189.24 211.081 189.24H220.551C221.722 189.24 222.671 188.291 222.671 187.12V181.13C222.671 179.959 221.722 179.01 220.551 179.01Z" fill="black"/>
<path d="M380.9 187.21C382.05 189.58 382.9 191.82 383.9 194.16C384.9 196.5 385.63 198.83 386.41 201.22C387.991 206.066 389.159 211.037 389.9 216.08C390 216.71 390.05 217.39 390.12 218.08L390.22 219.08C390.22 219.26 390.22 219.39 390.22 219.6V220.25C390.254 221.766 390.123 223.282 389.83 224.77C389.334 227.356 388.629 229.898 387.72 232.37C386.012 237.069 383.884 241.604 381.36 245.92L376.28 243.77C377.41 239.21 378.55 234.56 379.41 230.07C379.831 227.919 380.128 225.745 380.3 223.56C380.359 222.667 380.339 221.77 380.24 220.88L380.13 220.25L379.99 219.45C379.88 218.92 379.81 218.39 379.68 217.85C378.683 213.436 377.394 209.093 375.82 204.85C375.06 202.68 374.22 200.52 373.38 198.35C372.54 196.18 371.61 194 370.75 192L380.9 187.21Z" fill="#7F3E3B"/>
<path d="M376.5 242.44L372.6 246.24L381.11 250.24C381.11 250.24 383.17 246.64 381.75 243.38L376.5 242.44Z" fill="#7F3E3B"/>
<path d="M369.459 251.91L376.639 254.85L381.109 250.2L372.599 246.24L369.459 251.91Z" fill="#7F3E3B"/>
<path opacity="0.2" d="M223.809 247.81C237.959 246.225 251.322 240.48 262.208 231.301C273.093 222.123 281.013 209.922 284.966 196.243C288.918 182.564 288.726 168.02 284.413 154.449C280.1 140.879 271.861 128.893 260.736 120.005C249.611 111.118 236.101 105.728 221.914 104.518C207.726 103.308 193.499 106.331 181.03 113.207C168.561 120.082 158.41 130.5 151.862 143.144C145.313 155.787 142.66 170.089 144.239 184.24C145.287 193.64 148.178 202.74 152.744 211.023C157.311 219.305 163.465 226.606 170.854 232.51C178.243 238.413 186.723 242.803 195.809 245.428C204.895 248.053 214.41 248.863 223.809 247.81Z" fill="#3F85C6"/>
<path opacity="0.1" d="M171.42 119.54L280.92 207C281.39 206 281.83 205 282.26 204C285.004 197.471 286.757 190.568 287.46 183.52L192.88 108C185.118 110.588 177.859 114.492 171.42 119.54Z" fill="white"/>
<path opacity="0.1" d="M146.16 157.87L249.1 240.12C258.881 235.019 267.359 227.738 273.88 218.84L161.46 129C154.215 137.324 148.98 147.201 146.16 157.87Z" fill="white"/>
<path d="M393.169 257.12C393.038 255.3 392.442 253.544 391.439 252.02C390.711 250.899 389.691 249.997 388.489 249.41L381.659 246.06C377.119 243.81 372.549 241.62 367.979 239.43C363.409 237.24 358.809 235.09 354.229 232.92C349.649 230.75 345.029 228.64 340.399 226.57C331.159 222.383 321.859 218.31 312.499 214.35C307.819 212.35 303.129 210.43 298.399 208.55C297.018 208.006 295.896 206.958 295.259 205.617C294.622 204.277 294.519 202.744 294.969 201.33C301.301 181.368 299.859 159.752 290.933 140.807C282.006 121.863 266.254 106.989 246.83 99.1635C227.405 91.3377 205.741 91.1372 186.175 98.6023C166.609 106.067 150.584 120.647 141.309 139.423C132.034 158.199 130.192 179.785 136.153 199.861C142.114 219.936 155.438 237.02 173.457 247.691C191.476 258.362 212.86 261.834 233.33 257.412C253.799 252.989 271.843 240.998 283.849 223.84C284.699 222.62 285.981 221.769 287.435 221.459C288.889 221.149 290.406 221.403 291.679 222.17C296.053 224.77 300.446 227.327 304.859 229.84C313.679 234.867 322.566 239.767 331.519 244.54C335.989 246.96 340.519 249.29 344.969 251.66C349.419 254.03 353.969 256.34 358.499 258.66C363.029 260.98 367.499 263.25 372.089 265.49L378.899 268.87C380.096 269.472 381.434 269.734 382.769 269.63C384.587 269.501 386.34 268.905 387.859 267.9C389.671 266.787 391.131 265.184 392.071 263.277C393.011 261.369 393.391 259.235 393.169 257.12ZM186.799 235C175.175 229.264 165.512 220.209 159.033 208.981C152.555 197.753 149.551 184.855 150.403 171.92C151.255 158.985 155.923 146.593 163.818 136.311C171.713 126.029 182.479 118.32 194.756 114.157C207.032 109.994 220.268 109.566 232.788 112.926C245.308 116.285 256.551 123.282 265.094 133.032C273.637 142.782 279.098 154.846 280.784 167.699C282.471 180.552 280.308 193.616 274.569 205.24C270.761 212.957 265.469 219.849 258.997 225.521C252.525 231.194 244.999 235.536 236.848 238.299C228.698 241.063 220.083 242.194 211.496 241.628C202.908 241.061 194.516 238.809 186.799 235Z" fill="#3F85C6"/>
<path d="M343.189 156.3C343.189 156.89 342.879 157.37 342.489 157.37C342.099 157.37 341.789 156.89 341.789 156.3C341.789 155.71 342.099 155.22 342.489 155.22C342.879 155.22 343.189 155.7 343.189 156.3Z" fill="#263238"/>
<path d="M342.929 157.37C342.227 159.181 341.278 160.887 340.109 162.44C340.514 162.729 340.977 162.927 341.466 163.018C341.955 163.11 342.458 163.093 342.939 162.97L342.929 157.37Z" fill="#630F0F"/>
<path d="M345.29 153C345.362 152.998 345.432 152.973 345.49 152.93C345.548 152.886 345.591 152.825 345.613 152.756C345.635 152.687 345.635 152.612 345.613 152.543C345.591 152.474 345.548 152.414 345.49 152.37C345.048 152.039 344.534 151.817 343.99 151.723C343.445 151.629 342.887 151.666 342.36 151.83C342.312 151.843 342.268 151.865 342.23 151.896C342.192 151.927 342.161 151.966 342.139 152.01C342.117 152.053 342.105 152.101 342.102 152.15C342.1 152.199 342.107 152.248 342.125 152.293C342.142 152.339 342.169 152.38 342.204 152.415C342.239 152.45 342.28 152.477 342.326 152.494C342.371 152.512 342.42 152.52 342.469 152.517C342.518 152.515 342.566 152.502 342.61 152.48C343.029 152.355 343.472 152.331 343.903 152.409C344.334 152.487 344.74 152.666 345.09 152.93C345.146 152.976 345.217 153.001 345.29 153Z" fill="#263238"/>
<path d="M363.419 160.76C362.359 166.14 361.309 175.99 365.069 179.57C365.069 179.57 363.599 185.02 353.619 185.02C342.619 185.02 348.369 179.57 348.369 179.57C354.369 178.14 354.209 173.69 353.159 169.57L363.419 160.76Z" fill="#7F3E3B"/>
<path d="M366.999 176.2C367.829 176.47 366.749 181.41 366.749 181.41C366.749 181.41 365.379 184.86 348.359 183.66C347.049 183.56 347.549 178.82 348.799 178.13C352.829 175.93 364.319 175.32 366.999 176.2Z" fill="#263238"/>
<path d="M401.569 382.81C402.489 382.72 403.829 381.03 404.209 380.41C404.225 380.383 404.234 380.352 404.234 380.32C404.234 380.288 404.225 380.257 404.209 380.23C404.192 380.2 404.167 380.177 404.137 380.162C404.106 380.148 404.072 380.144 404.039 380.15C403.939 380.15 401.519 380.61 400.929 381.55C400.866 381.649 400.825 381.759 400.808 381.875C400.791 381.99 400.798 382.108 400.829 382.22C400.959 382.66 401.209 382.78 401.409 382.81H401.569ZM403.679 380.58C403.029 381.48 401.959 382.53 401.449 382.46C401.399 382.46 401.249 382.46 401.159 382.12C401.139 382.055 401.134 381.986 401.145 381.918C401.155 381.851 401.18 381.787 401.219 381.73C401.908 381.114 402.763 380.714 403.679 380.58Z" fill="#3F85C6"/>
<path d="M403.579 380.58C403.758 380.565 403.936 380.535 404.109 380.49C404.139 380.481 404.165 380.464 404.186 380.441C404.208 380.418 404.222 380.39 404.229 380.36C404.235 380.329 404.233 380.297 404.222 380.267C404.212 380.237 404.193 380.211 404.169 380.19C404.109 380.13 402.489 378.75 401.389 378.86C401.257 378.869 401.128 378.905 401.011 378.967C400.894 379.029 400.791 379.115 400.709 379.22C400.615 379.311 400.556 379.432 400.544 379.562C400.531 379.692 400.565 379.823 400.639 379.93C400.999 380.5 402.579 380.68 403.579 380.58ZM403.659 380.23C402.659 380.35 401.199 380.15 400.919 379.74C400.919 379.74 400.839 379.61 400.979 379.43C401.036 379.364 401.104 379.31 401.182 379.27C401.259 379.231 401.343 379.207 401.429 379.2C402.258 379.315 403.035 379.673 403.659 380.23Z" fill="#3F85C6"/>
<path d="M332.819 409.11C333.577 409.107 334.333 409.04 335.079 408.91C335.112 408.901 335.143 408.883 335.168 408.859C335.192 408.834 335.21 408.803 335.219 408.77C335.225 408.734 335.22 408.698 335.203 408.665C335.187 408.633 335.161 408.607 335.129 408.59C335.019 408.52 332.459 407.06 331.229 407.39C330.999 407.449 330.801 407.596 330.679 407.8C330.601 407.911 330.559 408.044 330.559 408.18C330.559 408.316 330.601 408.449 330.679 408.56C330.999 409 331.879 409.11 332.819 409.11ZM334.519 408.65C333.149 408.84 331.289 408.83 330.949 408.36C330.899 408.3 330.859 408.19 330.949 407.97C330.986 407.908 331.035 407.855 331.093 407.814C331.152 407.772 331.219 407.744 331.289 407.73C332.079 407.52 333.619 408.19 334.519 408.65Z" fill="#3F85C6"/>
<path d="M335 408.91C335.036 408.92 335.074 408.92 335.11 408.91C335.133 408.89 335.151 408.866 335.163 408.838C335.175 408.81 335.181 408.78 335.18 408.75C335.18 408.67 334.97 406.69 334.04 405.92C333.902 405.805 333.742 405.719 333.57 405.668C333.398 405.616 333.218 405.6 333.04 405.62C332.56 405.67 332.43 405.91 332.39 406.11C332.26 406.94 334.02 408.53 334.9 408.93L335 408.91ZM333.21 405.91C333.433 405.916 333.648 405.997 333.82 406.14C334.375 406.774 334.724 407.563 334.82 408.4C333.91 407.86 332.72 406.61 332.82 406.11C332.82 406.11 332.82 405.95 333.16 405.92L333.21 405.91Z" fill="#3F85C6"/>
<path d="M343.119 408.74H335.779L335.039 391.72H342.389L343.119 408.74Z" fill="#7F3E3B"/>
<path d="M410.63 375.03L404.9 379.62L390.32 369.5L396.06 364.91L410.63 375.03Z" fill="#7F3E3B"/>
<path d="M403.849 379.33L409.709 373.52C409.814 373.419 409.95 373.356 410.096 373.341C410.241 373.327 410.386 373.362 410.509 373.44L416.139 377.06C416.276 377.148 416.391 377.267 416.475 377.406C416.559 377.545 416.61 377.701 416.624 377.863C416.639 378.025 416.616 378.188 416.558 378.34C416.5 378.492 416.408 378.629 416.289 378.74C414.209 380.74 413.099 381.6 410.519 384.15C408.939 385.73 405.069 390.43 402.879 392.6C400.689 394.77 398.249 392.89 398.959 391.8C402.109 386.94 403.179 382.93 403.319 380.49C403.349 380.052 403.538 379.64 403.849 379.33Z" fill="#263238"/>
<path d="M335.82 407.89H343.82C343.965 407.889 344.106 407.939 344.219 408.03C344.332 408.121 344.41 408.248 344.44 408.39L345.89 414.92C345.926 415.077 345.927 415.24 345.891 415.397C345.855 415.554 345.783 415.701 345.682 415.826C345.581 415.952 345.452 416.052 345.306 416.12C345.161 416.189 345.001 416.223 344.84 416.22C341.94 416.22 337.76 416.01 334.12 416.01C329.87 416.01 326.2 416.24 321.21 416.24C318.21 416.24 317.36 413.19 318.62 412.91C324.37 411.66 329.06 411.52 334.02 408.46C334.555 408.106 335.178 407.908 335.82 407.89Z" fill="#263238"/>
<path d="M379.549 181.77C385.919 184.77 388.549 205.33 388.549 205.33L373.899 211.08C371.626 205.513 369.783 199.779 368.389 193.93C366.339 184.65 372.999 178.65 379.549 181.77Z" fill="#3F85C6"/>
<path opacity="0.3" d="M379.549 181.77C385.919 184.77 388.549 205.33 388.549 205.33L373.899 211.08C371.626 205.513 369.783 199.779 368.389 193.93C366.339 184.65 372.999 178.65 379.549 181.77Z" fill="white"/>
<path opacity="0.2" d="M370.059 187.8C369.56 187.558 369.037 187.367 368.499 187.23C367.915 189.423 367.894 191.727 368.439 193.93C369.827 199.78 371.666 205.514 373.939 211.08L378.769 209.19C377.879 203.82 375.149 190.24 370.059 187.8Z" fill="black"/>
<path d="M337.069 181.61C337.069 181.61 329.249 190.44 336.629 245.11H375.929C376.199 239.11 372.409 209.65 378.229 181.23C373.882 180.394 369.486 179.84 365.069 179.57C359.507 179.25 353.931 179.25 348.369 179.57C344.555 179.954 340.776 180.636 337.069 181.61Z" fill="#3F85C6"/>
<path opacity="0.3" d="M337.069 181.61C337.069 181.61 329.249 190.44 336.629 245.11H375.929C376.199 239.11 372.409 209.65 378.229 181.23C373.882 180.394 369.486 179.84 365.069 179.57C359.507 179.25 353.931 179.25 348.369 179.57C344.555 179.954 340.776 180.636 337.069 181.61Z" fill="white"/>
<path opacity="0.2" d="M344.999 193.33C343.219 187.99 338.939 186.28 334.579 189.45C333.699 194.63 333.079 202.98 333.789 216.22L341.459 216.15C341.459 216.15 347.629 201.28 344.999 193.33Z" fill="black"/>
<path d="M343.559 191.14C343.239 193.82 342.799 196.25 342.309 198.78C341.819 201.31 341.249 203.78 340.599 206.27C339.315 211.359 337.568 216.32 335.379 221.09C334.809 222.32 334.149 223.53 333.449 224.74C333.089 225.35 332.729 225.96 332.319 226.56C331.787 227.394 331.16 228.162 330.449 228.85C329.069 230.13 327.433 231.101 325.649 231.7C324.2 232.208 322.702 232.56 321.179 232.75C318.461 233.087 315.714 233.121 312.989 232.85C311.655 232.743 310.355 232.573 309.089 232.34C307.789 232.11 306.559 231.87 305.219 231.52L305.869 226.04C310.433 225.848 314.965 225.178 319.389 224.04C320.289 223.774 321.162 223.426 321.999 223C322.548 222.748 323.028 222.367 323.399 221.89C323.319 221.96 324.049 220.75 324.479 219.89C324.909 219.03 325.389 217.89 325.799 216.89C326.639 214.83 327.359 212.65 328.019 210.42C328.679 208.19 329.259 205.92 329.799 203.62C330.339 201.32 330.799 199 331.299 196.62C331.799 194.24 332.159 191.88 332.519 189.67L343.559 191.14Z" fill="#7F3E3B"/>
<path d="M346.889 187C348.959 193.71 340.559 213.71 340.559 213.71L322.869 209.26C323.952 202.938 325.775 196.766 328.299 190.87C333.999 178.39 344.399 178.91 346.889 187Z" fill="#3F85C6"/>
<path opacity="0.3" d="M346.889 187C348.959 193.71 340.559 213.71 340.559 213.71L322.869 209.26C323.952 202.938 325.775 196.766 328.299 190.87C333.999 178.39 344.399 178.91 346.889 187Z" fill="white"/>
<path d="M306.119 226.07L297.799 225.86L301.799 234.51C301.799 234.51 305.179 234.96 307.959 230.39L310.889 226.9L307.519 226.22C307.057 226.13 306.589 226.08 306.119 226.07Z" fill="#7F3E3B"/>
<path d="M292.549 227.47L297.319 234.64L301.809 234.51L297.799 225.86L292.549 227.47Z" fill="#7F3E3B"/>
<path opacity="0.2" d="M335.049 391.73L335.419 400.5H342.769L342.389 391.73H335.049Z" fill="black"/>
<path opacity="0.2" d="M396.06 364.91L390.32 369.5L397.84 374.72L403.58 370.13L396.06 364.91Z" fill="black"/>
<path d="M363 155C362.56 162.28 362.68 166.56 359 170.3C353.48 175.92 344.49 172.6 342.75 165.3C341.18 158.76 342.17 147.96 349.29 145.05C350.86 144.401 352.57 144.164 354.258 144.364C355.945 144.564 357.553 145.193 358.928 146.191C360.303 147.188 361.399 148.522 362.112 150.064C362.825 151.607 363.131 153.306 363 155Z" fill="#7F3E3B"/>
<path d="M368.879 148.24C368.879 148.24 372.709 149.38 371.509 153.75C369.699 160.39 365.439 168.03 359.939 168.51C353.089 169.12 349.999 162.05 349.099 154.74C344.999 151.93 341.959 149.3 342.939 146.38C344.439 141.88 349.879 138 358.539 139C367.199 140 371.509 145.6 368.879 148.24Z" fill="#263238"/>
<path d="M353.27 156.24C353.137 158.046 352.413 159.757 351.21 161.11C349.61 162.87 347.93 161.77 347.65 159.63C347.4 157.69 347.92 154.44 349.88 153.47C351.84 152.5 353.4 154.06 353.27 156.24Z" fill="#7F3E3B"/>
<path d="M350.57 245.11C350.57 245.11 348.09 294.63 352.92 315.61C360.57 348.83 394.2 375.45 394.2 375.45L405 366.8C405 366.8 377.33 346.21 374.84 318.55C372.61 293.71 375.91 265.18 375.91 245.11H350.57Z" fill="#3F85C6"/>
<path opacity="0.2" d="M350.57 245.11C350.57 245.11 348.09 294.63 352.92 315.61C360.57 348.83 394.2 375.45 394.2 375.45L405 366.8C405 366.8 377.33 346.21 374.84 318.55C372.61 293.71 375.91 265.18 375.91 245.11H350.57Z" fill="black"/>
<path opacity="0.2" d="M354.259 259.78C353.259 257.85 351.309 263.6 349.949 270.98C349.949 281.16 350.129 292.74 351.019 302.55C357.809 290 356.369 263.78 354.259 259.78Z" fill="black"/>
<path d="M389.299 373.32L393.399 376.5L405.869 366.39L402.129 363L389.299 373.32Z" fill="#2C6BDB"/>
<path opacity="0.4" d="M389.299 373.32L393.399 376.5L405.869 366.39L402.129 363L389.299 373.32Z" fill="#FAFAFA"/>
<path d="M336.629 245.11C336.629 245.11 325.569 292.01 324.789 314.41C323.919 339.54 332.679 398.8 332.679 398.8H345.129C345.129 398.8 346.659 339.08 347.219 316.19C347.819 291.24 362.459 245.11 362.459 245.11H336.629Z" fill="#3F85C6"/>
<path opacity="0.2" d="M336.629 245.11C336.629 245.11 325.569 292.01 324.789 314.41C323.919 339.54 332.679 398.8 332.679 398.8H345.129C345.129 398.8 346.659 339.08 347.219 316.19C347.819 291.24 362.459 245.11 362.459 245.11H336.629Z" fill="black"/>
<path d="M330.289 393.84C330.229 393.84 330.989 399.01 330.989 399.01H346.129L346.539 394.4L330.289 393.84Z" fill="#2C6BDB"/>
<path opacity="0.4" d="M330.289 393.84C330.229 393.84 330.989 399.01 330.989 399.01H346.129L346.539 394.4L330.289 393.84Z" fill="#FAFAFA"/>
</svg>
