<svg width="50" height="51" viewBox="0 0 50 51" fill="none" xmlns="http://www.w3.org/2000/svg">
<path d="M29.8 49.5H8.2C5.96349 49.5 4.84523 49.5 3.96311 49.0941C2.78699 48.5528 1.85255 47.5144 1.36538 46.2077C1 45.2275 1 43.9851 1 41.5C1 39.0149 1 37.7725 1.36538 36.7923C1.85255 35.4856 2.78699 34.4472 3.96311 33.9059C4.84523 33.5 5.96349 33.5 8.2 33.5H41.8C44.0366 33.5 45.1547 33.5 46.037 33.9059C47.213 34.4472 48.1475 35.4856 48.6347 36.7923C49 37.7725 49 39.0149 49 41.5C49 43.9851 49 45.2275 48.6347 46.2077C48.1475 47.5144 47.213 48.5528 46.037 49.0941C45.1547 49.5 44.0366 49.5 41.8 49.5H39.4" stroke="url(#paint0_linear_378_61)" stroke-width="1.75" stroke-linecap="round"/>
<path d="M1 25.5C1 23.0149 1 21.7725 1.36538 20.7923C1.85255 19.4855 2.78699 18.4473 3.96311 17.906C4.84523 17.5 5.96349 17.5 8.2 17.5H41.8C44.0366 17.5 45.1547 17.5 46.037 17.906C47.213 18.4473 48.1475 19.4855 48.6347 20.7923C49 21.7725 49 23.0149 49 25.5C49 27.9851 49 29.2275 48.6347 30.2077C48.1475 31.5144 47.213 32.5528 46.037 33.0941C45.1547 33.5 44.0366 33.5 41.8 33.5H8.2C5.96349 33.5 4.84523 33.5 3.96311 33.0941C2.78699 32.5528 1.85255 31.5144 1.36538 30.2077C1 29.2275 1 27.9851 1 25.5Z" stroke="url(#paint1_linear_378_61)" stroke-width="1.75"/>
<path d="M20.2 1.5H41.8C44.0366 1.5 45.1547 1.5 46.037 1.90597C47.213 2.44728 48.1475 3.48555 48.6347 4.79235C49 5.77248 49 7.01499 49 9.5C49 11.985 49 13.2275 48.6347 14.2077C48.1475 15.5145 47.213 16.5527 46.037 17.094C45.1547 17.5 44.0366 17.5 41.8 17.5H8.2C5.96349 17.5 4.84523 17.5 3.96311 17.094C2.78699 16.5527 1.85255 15.5145 1.36538 14.2077C1 13.2275 1 11.985 1 9.5C1 7.01499 1 5.77248 1.36538 4.79235C1.85255 3.48555 2.78699 2.44728 3.96311 1.90597C4.84523 1.5 5.96349 1.5 8.2 1.5H10.6" stroke="url(#paint2_linear_378_61)" stroke-width="1.75" stroke-linecap="round"/>
<path d="M8.1998 28.1667C9.52529 28.1667 10.5998 26.9728 10.5998 25.5C10.5998 24.0273 9.52529 22.8334 8.1998 22.8334C6.87432 22.8334 5.7998 24.0273 5.7998 25.5C5.7998 26.9728 6.87432 28.1667 8.1998 28.1667Z" fill="url(#paint3_linear_378_61)"/>
<path d="M8.1998 12.1667C9.52529 12.1667 10.5998 10.9728 10.5998 9.50004C10.5998 8.02728 9.52529 6.83337 8.1998 6.83337C6.87432 6.83337 5.7998 8.02728 5.7998 9.50004C5.7998 10.9728 6.87432 12.1667 8.1998 12.1667Z" fill="url(#paint4_linear_378_61)"/>
<path d="M8.1998 44.1667C9.52529 44.1667 10.5998 42.9728 10.5998 41.5C10.5998 40.0273 9.52529 38.8334 8.1998 38.8334C6.87432 38.8334 5.7998 40.0273 5.7998 41.5C5.7998 42.9728 6.87432 44.1667 8.1998 44.1667Z" fill="url(#paint5_linear_378_61)"/>
<defs>
<linearGradient id="paint0_linear_378_61" x1="1" y1="44.1329" x2="49" y2="44.1329" gradientUnits="userSpaceOnUse">
<stop stop-color="#3F85C6"/>
<stop offset="0.6875" stop-color="#CD99FF"/>
</linearGradient>
<linearGradient id="paint1_linear_378_61" x1="1" y1="28.1329" x2="49" y2="28.1329" gradientUnits="userSpaceOnUse">
<stop stop-color="#3F85C6"/>
<stop offset="0.6875" stop-color="#CD99FF"/>
</linearGradient>
<linearGradient id="paint2_linear_378_61" x1="1" y1="12.1329" x2="49" y2="12.1329" gradientUnits="userSpaceOnUse">
<stop stop-color="#3F85C6"/>
<stop offset="0.6875" stop-color="#CD99FF"/>
</linearGradient>
<linearGradient id="paint3_linear_378_61" x1="5.7998" y1="26.3777" x2="10.5998" y2="26.3777" gradientUnits="userSpaceOnUse">
<stop stop-color="#3F85C6"/>
<stop offset="0.6875" stop-color="#CD99FF"/>
</linearGradient>
<linearGradient id="paint4_linear_378_61" x1="5.7998" y1="10.3777" x2="10.5998" y2="10.3777" gradientUnits="userSpaceOnUse">
<stop stop-color="#3F85C6"/>
<stop offset="0.6875" stop-color="#CD99FF"/>
</linearGradient>
<linearGradient id="paint5_linear_378_61" x1="5.7998" y1="42.3777" x2="10.5998" y2="42.3777" gradientUnits="userSpaceOnUse">
<stop stop-color="#3F85C6"/>
<stop offset="0.6875" stop-color="#CD99FF"/>
</linearGradient>
</defs>
</svg>
