<svg width="48" height="48" viewBox="0 0 48 48" fill="none" xmlns="http://www.w3.org/2000/svg">
<path d="M1.6 27.2H0V47.1999C0 47.6799 0.32 47.9999 0.8 47.9999H21.6V46.4H1.6V27.2Z" fill="url(#paint0_linear_378_67)"/>
<path d="M46.3999 46.4H26.3999V47.9999H47.1999C47.6799 47.9999 47.9999 47.6799 47.9999 47.1999V27.2H46.3999V46.4Z" fill="url(#paint1_linear_378_67)"/>
<path d="M47.1999 0H26.3999V1.6H46.3999V6.4H28.7999V8H46.3999V22.4H47.9999V0.8C47.9999 0.32 47.6799 0 47.1999 0Z" fill="url(#paint2_linear_378_67)"/>
<path d="M1.6 8H19.2V6.4H1.6V1.6H21.6V0H0.8C0.32 0 0 0.32 0 0.8V22.4H1.6V8Z" fill="url(#paint3_linear_378_67)"/>
<path d="M4.8002 3.19995H3.2002V4.79995H4.8002V3.19995Z" fill="url(#paint4_linear_378_67)"/>
<path d="M7.9999 3.19995H6.3999V4.79995H7.9999V3.19995Z" fill="url(#paint5_linear_378_67)"/>
<path d="M11.2001 3.19995H9.6001V4.79995H11.2001V3.19995Z" fill="url(#paint6_linear_378_67)"/>
<path d="M44.8001 3.19995H41.6001V4.79995H44.8001V3.19995Z" fill="url(#paint7_linear_378_67)"/>
<path d="M12.7998 12.8V20.8V28.8V36.8C12.7998 37.28 13.1198 37.6 13.5998 37.6H34.3998C34.8798 37.6 35.1998 37.28 35.1998 36.8V28.8V20.8V12.8C35.1998 12.32 34.8798 12 34.3998 12H13.5998C13.1198 12 12.7998 12.32 12.7998 12.8ZM33.5998 28H14.3998V21.6H33.5998V28ZM33.5998 36H14.3998V29.6H33.5998V36ZM14.3998 13.6H33.5998V20H14.3998V13.6Z" fill="url(#paint8_linear_378_67)"/>
<path d="M17.6 15.2H16V18.4H17.6V15.2Z" fill="url(#paint9_linear_378_67)"/>
<path d="M20.8002 15.2H19.2002V18.4H20.8002V15.2Z" fill="url(#paint10_linear_378_67)"/>
<path d="M23.9999 15.2H22.3999V18.4H23.9999V15.2Z" fill="url(#paint11_linear_378_67)"/>
<path d="M17.6 23.2H16V26.4H17.6V23.2Z" fill="url(#paint12_linear_378_67)"/>
<path d="M20.8002 23.2H19.2002V26.4H20.8002V23.2Z" fill="url(#paint13_linear_378_67)"/>
<path d="M23.9999 23.2H22.3999V26.4H23.9999V23.2Z" fill="url(#paint14_linear_378_67)"/>
<path d="M28.8002 16H27.2002V17.6H28.8002V16Z" fill="url(#paint15_linear_378_67)"/>
<path d="M31.9999 16H30.3999V17.6H31.9999V16Z" fill="url(#paint16_linear_378_67)"/>
<path d="M28.8002 24H27.2002V25.6H28.8002V24Z" fill="url(#paint17_linear_378_67)"/>
<path d="M31.9999 24H30.3999V25.6H31.9999V24Z" fill="url(#paint18_linear_378_67)"/>
<path d="M28.0002 32H23.2002V33.6H28.0002V32Z" fill="url(#paint19_linear_378_67)"/>
<path d="M31.2001 32H29.6001V33.6H31.2001V32Z" fill="url(#paint20_linear_378_67)"/>
<path d="M21.6 32H20V33.6H21.6V32Z" fill="url(#paint21_linear_378_67)"/>
<path d="M18.3998 32H16.7998V33.6H18.3998V32Z" fill="url(#paint22_linear_378_67)"/>
<path d="M41.3601 22.9601L40.2401 21.8401L37.8401 24.2401C37.5201 24.5601 37.5201 25.0401 37.8401 25.3601L40.2401 27.7601L41.3601 26.6401L40.3201 25.6001H48.0001V24.0001H40.3201L41.3601 22.9601Z" fill="url(#paint23_linear_378_67)"/>
<path d="M6.64 26.6401L7.76 27.7601L10.16 25.3601C10.48 25.0401 10.48 24.5601 10.16 24.2401L7.76 21.8401L6.64 22.9601L7.68 24.0001H0V25.6001H7.68L6.64 26.6401Z" fill="url(#paint24_linear_378_67)"/>
<path d="M26.96 42.64L24.56 40.24C24.24 39.92 23.76 39.92 23.44 40.24L21.04 42.64L22.16 43.76L23.2 42.72V48H24.8V42.72L25.84 43.76L26.96 42.64Z" fill="url(#paint25_linear_378_67)"/>
<path d="M21.04 6.96L23.44 9.36C23.6 9.52 23.76 9.6 24 9.6C24.24 9.6 24.4 9.52 24.56 9.36L26.96 6.96L25.84 5.84L24.8 6.88V0H23.2V6.88L22.16 5.84L21.04 6.96Z" fill="url(#paint26_linear_378_67)"/>
<defs>
<linearGradient id="paint0_linear_378_67" x1="0" y1="41.0228" x2="21.6" y2="41.0228" gradientUnits="userSpaceOnUse">
<stop stop-color="#3F85C6"/>
<stop offset="0.6875" stop-color="#CD99FF"/>
</linearGradient>
<linearGradient id="paint1_linear_378_67" x1="26.3999" y1="41.0228" x2="47.9999" y2="41.0228" gradientUnits="userSpaceOnUse">
<stop stop-color="#3F85C6"/>
<stop offset="0.6875" stop-color="#CD99FF"/>
</linearGradient>
<linearGradient id="paint2_linear_378_67" x1="26.3999" y1="14.8861" x2="47.9999" y2="14.8861" gradientUnits="userSpaceOnUse">
<stop stop-color="#3F85C6"/>
<stop offset="0.6875" stop-color="#CD99FF"/>
</linearGradient>
<linearGradient id="paint3_linear_378_67" x1="0" y1="14.8861" x2="21.6" y2="14.8861" gradientUnits="userSpaceOnUse">
<stop stop-color="#3F85C6"/>
<stop offset="0.6875" stop-color="#CD99FF"/>
</linearGradient>
<linearGradient id="paint4_linear_378_67" x1="3.2002" y1="4.26324" x2="4.8002" y2="4.26324" gradientUnits="userSpaceOnUse">
<stop stop-color="#3F85C6"/>
<stop offset="0.6875" stop-color="#CD99FF"/>
</linearGradient>
<linearGradient id="paint5_linear_378_67" x1="6.3999" y1="4.26324" x2="7.9999" y2="4.26324" gradientUnits="userSpaceOnUse">
<stop stop-color="#3F85C6"/>
<stop offset="0.6875" stop-color="#CD99FF"/>
</linearGradient>
<linearGradient id="paint6_linear_378_67" x1="9.6001" y1="4.26324" x2="11.2001" y2="4.26324" gradientUnits="userSpaceOnUse">
<stop stop-color="#3F85C6"/>
<stop offset="0.6875" stop-color="#CD99FF"/>
</linearGradient>
<linearGradient id="paint7_linear_378_67" x1="41.6001" y1="4.26324" x2="44.8001" y2="4.26324" gradientUnits="userSpaceOnUse">
<stop stop-color="#3F85C6"/>
<stop offset="0.6875" stop-color="#CD99FF"/>
</linearGradient>
<linearGradient id="paint8_linear_378_67" x1="12.7998" y1="29.0127" x2="35.1998" y2="29.0127" gradientUnits="userSpaceOnUse">
<stop stop-color="#3F85C6"/>
<stop offset="0.6875" stop-color="#CD99FF"/>
</linearGradient>
<linearGradient id="paint9_linear_378_67" x1="16" y1="17.3265" x2="17.6" y2="17.3265" gradientUnits="userSpaceOnUse">
<stop stop-color="#3F85C6"/>
<stop offset="0.6875" stop-color="#CD99FF"/>
</linearGradient>
<linearGradient id="paint10_linear_378_67" x1="19.2002" y1="17.3265" x2="20.8002" y2="17.3265" gradientUnits="userSpaceOnUse">
<stop stop-color="#3F85C6"/>
<stop offset="0.6875" stop-color="#CD99FF"/>
</linearGradient>
<linearGradient id="paint11_linear_378_67" x1="22.3999" y1="17.3265" x2="23.9999" y2="17.3265" gradientUnits="userSpaceOnUse">
<stop stop-color="#3F85C6"/>
<stop offset="0.6875" stop-color="#CD99FF"/>
</linearGradient>
<linearGradient id="paint12_linear_378_67" x1="16" y1="25.3265" x2="17.6" y2="25.3265" gradientUnits="userSpaceOnUse">
<stop stop-color="#3F85C6"/>
<stop offset="0.6875" stop-color="#CD99FF"/>
</linearGradient>
<linearGradient id="paint13_linear_378_67" x1="19.2002" y1="25.3265" x2="20.8002" y2="25.3265" gradientUnits="userSpaceOnUse">
<stop stop-color="#3F85C6"/>
<stop offset="0.6875" stop-color="#CD99FF"/>
</linearGradient>
<linearGradient id="paint14_linear_378_67" x1="22.3999" y1="25.3265" x2="23.9999" y2="25.3265" gradientUnits="userSpaceOnUse">
<stop stop-color="#3F85C6"/>
<stop offset="0.6875" stop-color="#CD99FF"/>
</linearGradient>
<linearGradient id="paint15_linear_378_67" x1="27.2002" y1="17.0633" x2="28.8002" y2="17.0633" gradientUnits="userSpaceOnUse">
<stop stop-color="#3F85C6"/>
<stop offset="0.6875" stop-color="#CD99FF"/>
</linearGradient>
<linearGradient id="paint16_linear_378_67" x1="30.3999" y1="17.0633" x2="31.9999" y2="17.0633" gradientUnits="userSpaceOnUse">
<stop stop-color="#3F85C6"/>
<stop offset="0.6875" stop-color="#CD99FF"/>
</linearGradient>
<linearGradient id="paint17_linear_378_67" x1="27.2002" y1="25.0633" x2="28.8002" y2="25.0633" gradientUnits="userSpaceOnUse">
<stop stop-color="#3F85C6"/>
<stop offset="0.6875" stop-color="#CD99FF"/>
</linearGradient>
<linearGradient id="paint18_linear_378_67" x1="30.3999" y1="25.0633" x2="31.9999" y2="25.0633" gradientUnits="userSpaceOnUse">
<stop stop-color="#3F85C6"/>
<stop offset="0.6875" stop-color="#CD99FF"/>
</linearGradient>
<linearGradient id="paint19_linear_378_67" x1="23.2002" y1="33.0633" x2="28.0002" y2="33.0633" gradientUnits="userSpaceOnUse">
<stop stop-color="#3F85C6"/>
<stop offset="0.6875" stop-color="#CD99FF"/>
</linearGradient>
<linearGradient id="paint20_linear_378_67" x1="29.6001" y1="33.0633" x2="31.2001" y2="33.0633" gradientUnits="userSpaceOnUse">
<stop stop-color="#3F85C6"/>
<stop offset="0.6875" stop-color="#CD99FF"/>
</linearGradient>
<linearGradient id="paint21_linear_378_67" x1="20" y1="33.0633" x2="21.6" y2="33.0633" gradientUnits="userSpaceOnUse">
<stop stop-color="#3F85C6"/>
<stop offset="0.6875" stop-color="#CD99FF"/>
</linearGradient>
<linearGradient id="paint22_linear_378_67" x1="16.7998" y1="33.0633" x2="18.3998" y2="33.0633" gradientUnits="userSpaceOnUse">
<stop stop-color="#3F85C6"/>
<stop offset="0.6875" stop-color="#CD99FF"/>
</linearGradient>
<linearGradient id="paint23_linear_378_67" x1="37.6001" y1="25.7743" x2="48.0001" y2="25.7743" gradientUnits="userSpaceOnUse">
<stop stop-color="#3F85C6"/>
<stop offset="0.6875" stop-color="#CD99FF"/>
</linearGradient>
<linearGradient id="paint24_linear_378_67" x1="0" y1="25.7743" x2="10.4" y2="25.7743" gradientUnits="userSpaceOnUse">
<stop stop-color="#3F85C6"/>
<stop offset="0.6875" stop-color="#CD99FF"/>
</linearGradient>
<linearGradient id="paint25_linear_378_67" x1="21.04" y1="45.3165" x2="26.96" y2="45.3165" gradientUnits="userSpaceOnUse">
<stop stop-color="#3F85C6"/>
<stop offset="0.6875" stop-color="#CD99FF"/>
</linearGradient>
<linearGradient id="paint26_linear_378_67" x1="21.04" y1="6.37976" x2="26.96" y2="6.37976" gradientUnits="userSpaceOnUse">
<stop stop-color="#3F85C6"/>
<stop offset="0.6875" stop-color="#CD99FF"/>
</linearGradient>
</defs>
</svg>
