<svg width="48" height="48" viewBox="0 0 48 48" fill="none" xmlns="http://www.w3.org/2000/svg">
<path d="M24 48C37.2548 48 48 37.2548 48 24C48 10.7452 37.2548 0 24 0C10.7452 0 0 10.7452 0 24C0 37.2548 10.7452 48 24 48Z" fill="url(#paint0_linear_252_84)"/>
<path d="M21.7895 9L32.5444 12.36C32.8444 12.4536 33.1065 12.6407 33.2927 12.8939C33.4788 13.1471 33.5791 13.4531 33.5789 13.7674V16.3684H36.5263C36.9172 16.3684 37.292 16.5237 37.5684 16.8001C37.8447 17.0764 38 17.4513 38 17.8421V20.7895H18.8421V17.8421C18.8421 17.4513 18.9974 17.0764 19.2737 16.8001C19.5501 16.5237 19.9249 16.3684 20.3158 16.3684H30.6316V14.8505L21.7895 12.0859L12.9474 14.8505V25.7617C12.9472 26.6639 13.1541 27.5542 13.5521 28.3638C13.9502 29.1735 14.5288 29.881 15.2434 30.4318L15.5219 30.6322L21.7895 34.9074L27.3629 31.1053H20.3158C19.9249 31.1053 19.5501 30.95 19.2737 30.6736C18.9974 30.3973 18.8421 30.0224 18.8421 29.6316V23.7368H38V29.6316C38 30.0224 37.8447 30.3973 37.5684 30.6736C37.292 30.95 36.9172 31.1053 36.5263 31.1053L31.7811 31.1067C31.2107 31.8583 30.5181 32.5215 29.7179 33.0667L21.7895 38.4737L13.8611 33.0682C12.6711 32.2569 11.6973 31.1671 11.0244 29.8938C10.3515 28.6204 9.99985 27.2019 10 25.7617V13.7674C10.0002 13.4534 10.1006 13.1477 10.2867 12.8948C10.4728 12.6419 10.7348 12.455 11.0345 12.3615L21.7895 9Z" fill="#88DBFF"/>
<defs>
<linearGradient id="paint0_linear_252_84" x1="0" y1="31.8988" x2="48" y2="31.8988" gradientUnits="userSpaceOnUse">
<stop stop-color="#3F85C6" stop-opacity="0.42"/>
</linearGradient>
</defs>
</svg>
