<svg width="48" height="48" viewBox="0 0 48 48" fill="none" xmlns="http://www.w3.org/2000/svg">
<g clip-path="url(#clip0_120_9)">
<path d="M24 48C37.2548 48 48 37.2548 48 24C48 10.7452 37.2548 0 24 0C10.7452 0 0 10.7452 0 24C0 37.2548 10.7452 48 24 48Z" fill="url(#paint0_linear_120_9)"/>
<path d="M20.7 13H15.2C13.985 13 13 13.985 13 15.2V22.9C13 24.115 13.985 25.1 15.2 25.1H20.7C21.915 25.1 22.9 24.115 22.9 22.9V15.2C22.9 13.985 21.915 13 20.7 13Z" fill="url(#paint1_linear_120_9)"/>
<path d="M32.8001 13H27.3001C26.0851 13 25.1001 13.985 25.1001 15.2V18.5C25.1001 19.715 26.0851 20.7 27.3001 20.7H32.8001C34.0151 20.7 35.0001 19.715 35.0001 18.5V15.2C35.0001 13.985 34.0151 13 32.8001 13Z" fill="url(#paint2_linear_120_9)"/>
<path d="M20.7 27.3H15.2C13.985 27.3 13 28.285 13 29.5V32.8C13 34.0151 13.985 35 15.2 35H20.7C21.915 35 22.9 34.0151 22.9 32.8V29.5C22.9 28.285 21.915 27.3 20.7 27.3Z" fill="url(#paint3_linear_120_9)"/>
<path d="M32.8001 22.8999H27.3001C26.0851 22.8999 25.1001 23.8849 25.1001 25.0999V32.7999C25.1001 34.0149 26.0851 34.9999 27.3001 34.9999H32.8001C34.0151 34.9999 35.0001 34.0149 35.0001 32.7999V25.0999C35.0001 23.8849 34.0151 22.8999 32.8001 22.8999Z" fill="url(#paint4_linear_120_9)"/>
</g>
<defs>
<linearGradient id="paint0_linear_120_9" x1="0" y1="31.8988" x2="48" y2="31.8988" gradientUnits="userSpaceOnUse">
<stop stop-color="#3F85C6"/>
<stop offset="0.6875" stop-color="#CD99FF"/>
</linearGradient>
<linearGradient id="paint1_linear_120_9" x1="17.95" y1="13" x2="17.95" y2="25.1" gradientUnits="userSpaceOnUse">
<stop stop-color="#0D091D"/>
<stop offset="0.927083" stop-color="#32284F"/>
<stop offset="1" stop-color="#332A53"/>
</linearGradient>
<linearGradient id="paint2_linear_120_9" x1="30.0501" y1="13" x2="30.0501" y2="20.7" gradientUnits="userSpaceOnUse">
<stop stop-color="#0D091D"/>
<stop offset="0.927083" stop-color="#32284F"/>
<stop offset="1" stop-color="#332A53"/>
</linearGradient>
<linearGradient id="paint3_linear_120_9" x1="17.95" y1="27.3" x2="17.95" y2="35" gradientUnits="userSpaceOnUse">
<stop stop-color="#0D091D"/>
<stop offset="0.927083" stop-color="#32284F"/>
<stop offset="1" stop-color="#332A53"/>
</linearGradient>
<linearGradient id="paint4_linear_120_9" x1="30.0501" y1="22.8999" x2="30.0501" y2="34.9999" gradientUnits="userSpaceOnUse">
<stop stop-color="#0D091D"/>
<stop offset="0.927083" stop-color="#32284F"/>
<stop offset="1" stop-color="#332A53"/>
</linearGradient>
<clipPath id="clip0_120_9">
<rect width="48" height="48" fill="white"/>
</clipPath>
</defs>
</svg>
