<svg width="49" height="48" viewBox="0 0 49 48" fill="none" xmlns="http://www.w3.org/2000/svg">
<path d="M37.8585 31.7014L39.6204 32.735C38.0025 35.5622 35.6559 37.9078 32.8403 39.5049L33.8306 41.3086C31.425 42.673 28.714 43.5439 25.8291 43.7909L25.4839 39.6759C25.0402 39.7137 24.5927 39.7379 24.1398 39.7379C15.3974 39.7379 8.28514 32.5235 8.28514 23.6557C8.28514 14.7878 15.3974 7.57355 24.1398 7.57355C26.6926 7.57355 29.1047 8.19266 31.2433 9.28482C31.2433 9.28371 31.2433 9.28298 31.2437 9.28225L32.1558 7.43629C34.9612 8.86865 37.3389 11.0262 39.0585 13.659L37.3624 14.7959C39.0235 17.3384 39.9942 20.3837 39.9942 23.6557C39.9942 26.5858 39.2138 29.333 37.8585 31.7014ZM44.6411 31.6343C45.0763 30.4879 45.4244 29.298 45.6686 28.0701L47.6664 28.4795V28.4796C47.9814 26.8915 48.1399 25.2756 48.1396 23.6557C48.1396 12.1914 40.3248 2.5836 29.8057 6.20765e-07L29.3245 2.00963C27.6607 1.5997 25.9258 1.37694 24.1398 1.37694C22.3443 1.37694 20.6004 1.60154 18.9291 2.0155L18.4453 0.00660839C7.94031 2.60048 0.139648 12.2016 0.139648 23.6557C0.139648 37.1007 10.8849 48 24.1398 48C34.3639 48 43.0893 41.5123 46.5474 32.3762L44.6411 31.6343Z" fill="url(#paint0_linear_154_9)"/>
<path d="M21.4551 7.67665C23.0319 7.89134 24.5227 8.44623 25.8779 9.28223L26.6327 7.43627C25.1036 6.49274 23.4216 5.86666 21.6422 5.62445L21.4551 7.67665Z" fill="url(#paint1_radial_154_9)"/>
<path d="M5.86301 34.0498L4.41846 35.1121C6.23617 38.8128 8.90544 41.8169 12.0924 43.7124L12.8254 41.8529C9.93399 40.1331 7.51232 37.4075 5.86301 34.0498Z" fill="url(#paint2_radial_154_9)"/>
<path d="M5.00879 15.2495L8.07262 16.9678C9.15722 14.0733 10.9206 11.6384 13.1141 9.9737L11.3453 6.45905C8.5885 8.55162 6.37206 11.6116 5.00879 15.2495Z" fill="url(#paint3_radial_154_9)"/>
<path d="M32.2445 29.4183C31.9951 30.2115 31.694 30.9727 31.3494 31.6999L32.8071 32.7331C31.4691 35.5605 29.5291 37.9078 27.1992 39.5049L28.0186 41.3086C31.367 39.0137 33.9972 35.3311 35.3902 30.8986L32.2445 29.4183Z" fill="url(#paint4_radial_154_9)"/>
<path d="M0 18V20.4957H10.1754V18H0ZM0 22.9916V30.48H10.1754V27.9838H2.0362V25.4876H10.1754V22.9916H0ZM30.5147 22.9498L27.6005 18H25.0847L29.4869 25.4868V30.4798H31.5216V25.4868L35.9456 18H33.4293L30.5147 22.9498ZM37.8125 27.9822C37.8125 28.3102 37.8652 28.635 37.9675 28.9381C38.0699 29.2412 38.22 29.5166 38.4093 29.7485C38.5985 29.9805 38.8232 30.1645 39.0704 30.29C39.3177 30.4155 39.5827 30.4801 39.8503 30.48H48V27.9819H39.9946C39.9757 27.9819 39.9569 27.9774 39.9393 27.9685C39.9218 27.9596 39.9058 27.9465 39.8924 27.93C39.879 27.9136 39.8684 27.894 39.8611 27.8725C39.8539 27.851 39.8502 27.8279 39.8503 27.8046V20.6746C39.8503 20.5769 39.9147 20.4973 39.9946 20.4973H48V18H39.8505C39.5829 18 39.318 18.0645 39.0707 18.19C38.8235 18.3155 38.5989 18.4994 38.4097 18.7313C38.2204 18.9632 38.0703 19.2385 37.9679 19.5416C37.8655 19.8446 37.8127 20.1693 37.8127 20.4973V27.9819M21.5227 18H13.3777V20.4957H21.3783C21.458 20.4957 21.5227 20.5749 21.5227 20.6727V22.8149C21.5226 22.8382 21.5189 22.8612 21.5116 22.8826C21.5043 22.9041 21.4937 22.9236 21.4802 22.94C21.4668 22.9564 21.4509 22.9694 21.4333 22.9783C21.4158 22.9871 21.397 22.9917 21.3781 22.9916H13.3774V30.4798H15.4141V25.4876H21.5227C22.0627 25.4876 22.5806 25.2246 22.9625 24.7565C23.3443 24.2885 23.5589 23.6536 23.5589 22.9916V20.4957C23.5588 19.8338 23.3443 19.199 22.9624 18.7309C22.5806 18.2629 22.0627 18 21.5227 18Z" fill="url(#paint5_linear_154_9)"/>
<defs>
<linearGradient id="paint0_linear_154_9" x1="24.1396" y1="48" x2="24.1396" y2="0" gradientUnits="userSpaceOnUse">
<stop stop-color="#0D091D"/>
<stop offset="0.927083" stop-color="#32284F"/>
<stop offset="1" stop-color="#332A53"/>
</linearGradient>
<radialGradient id="paint1_radial_154_9" cx="0" cy="0" r="1" gradientUnits="userSpaceOnUse" gradientTransform="translate(-3.99758 29.9431) rotate(-14.4997) scale(49.6684 59.6066)">
<stop stop-color="#8ABFD1"/>
<stop offset="0.481" stop-color="#8ABFD1"/>
<stop offset="0.992" stop-color="#022D3B"/>
<stop offset="1" stop-color="#022D3B"/>
</radialGradient>
<radialGradient id="paint2_radial_154_9" cx="0" cy="0" r="1" gradientUnits="userSpaceOnUse" gradientTransform="translate(-3.99732 29.9431) rotate(-14.4997) scale(49.6684 59.6065)">
<stop stop-color="#8ABFD1"/>
<stop offset="0.481" stop-color="#8ABFD1"/>
<stop offset="0.992" stop-color="#022D3B"/>
<stop offset="1" stop-color="#022D3B"/>
</radialGradient>
<radialGradient id="paint3_radial_154_9" cx="0" cy="0" r="1" gradientUnits="userSpaceOnUse" gradientTransform="translate(-3.99745 29.9432) rotate(-14.4997) scale(49.6684 59.6066)">
<stop stop-color="#8ABFD1"/>
<stop offset="0.481" stop-color="#8ABFD1"/>
<stop offset="0.992" stop-color="#022D3B"/>
<stop offset="1" stop-color="#022D3B"/>
</radialGradient>
<radialGradient id="paint4_radial_154_9" cx="0" cy="0" r="1" gradientUnits="userSpaceOnUse" gradientTransform="translate(-3.99747 29.9431) rotate(-14.4997) scale(49.6684 59.6065)">
<stop stop-color="#8ABFD1"/>
<stop offset="0.481" stop-color="#8ABFD1"/>
<stop offset="0.992" stop-color="#022D3B"/>
<stop offset="1" stop-color="#022D3B"/>
</radialGradient>
<linearGradient id="paint5_linear_154_9" x1="1.4761e-09" y1="26.2937" x2="77" y2="26" gradientUnits="userSpaceOnUse">
<stop stop-color="#3F85C6"/>
<stop offset="0.6875" stop-color="#CD99FF"/>
</linearGradient>
</defs>
</svg>
