<svg width="48" height="48" viewBox="0 0 48 48" fill="none" xmlns="http://www.w3.org/2000/svg">
<g clip-path="url(#clip0_120_9)">
<path d="M24 48C37.2548 48 48 37.2548 48 24C48 10.7452 37.2548 0 24 0C10.7452 0 0 10.7452 0 24C0 37.2548 10.7452 48 24 48Z" fill="url(#paint0_linear_120_9)"/>
<path d="M31.835 23.6609L28.3765 14.4611C28.2163 14.0218 27.9341 13.646 27.5683 13.3847C27.2024 13.1235 26.7706 12.9894 26.3314 13.0007H21.6844C21.3237 12.9992 20.9681 13.0928 20.6489 13.2733C20.3297 13.4537 20.0566 13.7155 19.8534 14.0356C19.6634 14.3447 19.5457 14.6984 19.5103 15.0668C19.4748 15.4352 19.5228 15.8073 19.65 16.1516L21.0741 19.9005H19.1896C18.7686 19.8901 18.3541 20.0134 17.998 20.2547C17.6418 20.4961 17.3598 20.8449 17.1873 21.2574C17.0232 21.6508 16.9652 22.0857 17.0201 22.5127C17.075 22.9397 17.2406 23.3415 17.4978 23.6724L26.9203 35.5975C27.0173 35.7194 27.1369 35.8182 27.2715 35.8875C27.4061 35.9568 27.5527 35.9951 27.7019 36C27.8763 35.9976 28.048 35.9545 28.2052 35.8735C28.4215 35.7517 28.5925 35.5541 28.6899 35.3136C28.7872 35.0731 28.8051 34.804 28.7406 34.551L26.8346 26.8003H29.8434C30.2041 26.8017 30.5597 26.7081 30.8789 26.5277C31.1981 26.3472 31.4713 26.0855 31.6744 25.7653C31.8557 25.4538 31.9649 25.1002 31.9928 24.734C32.0208 24.3679 31.9667 23.9999 31.835 23.6609Z" fill="url(#paint1_linear_120_9)"/>
</g>
<defs>
<linearGradient id="paint0_linear_120_9" x1="0" y1="31.8988" x2="48" y2="31.8988" gradientUnits="userSpaceOnUse">
<stop stop-color="#3F85C6"/>
<stop offset="0.6875" stop-color="#CD99FF"/>
</linearGradient>
<linearGradient id="paint1_linear_120_9" x1="24.5" y1="13" x2="24.5" y2="36" gradientUnits="userSpaceOnUse">
<stop stop-color="#0D091D"/>
<stop offset="0.927083" stop-color="#32284F"/>
<stop offset="1" stop-color="#332A53"/>
</linearGradient>
<clipPath id="clip0_120_9">
<rect width="48" height="48" fill="white"/>
</clipPath>
</defs>
</svg>
