<svg width="48" height="48" viewBox="0 0 48 48" fill="none" xmlns="http://www.w3.org/2000/svg">
<g clip-path="url(#clip0_120_9)">
<path d="M24 48C37.2548 48 48 37.2548 48 24C48 10.7452 37.2548 0 24 0C10.7452 0 0 10.7452 0 24C0 37.2548 10.7452 48 24 48Z" fill="url(#paint0_linear_120_9)"/>
<path d="M13.0836 24.8669H17.2503C17.4804 24.8669 17.6669 24.6729 17.6669 24.4336C17.6669 24.1942 17.4804 24.0002 17.2503 24.0002H13.0836C12.8535 24.0002 12.667 24.1943 12.667 24.4336C12.667 24.6729 12.8535 24.8669 13.0836 24.8669Z" fill="url(#paint1_linear_120_9)"/>
<path d="M13.0836 23.1335H17.2503C17.4804 23.1335 17.6669 22.9395 17.6669 22.7002C17.6669 22.4609 17.4804 22.2668 17.2503 22.2668H13.0836C12.8535 22.2668 12.667 22.4609 12.667 22.7002C12.667 22.9395 12.8535 23.1335 13.0836 23.1335Z" fill="url(#paint2_linear_120_9)"/>
<path d="M17.2503 26.6003C17.4805 26.6003 17.667 26.4063 17.667 26.167C17.667 25.9277 17.4804 25.7336 17.2503 25.7336H13.0836C12.8535 25.7336 12.667 25.9277 12.667 26.167C12.667 26.4063 12.8535 26.6003 13.0836 26.6003H17.2503Z" fill="url(#paint3_linear_120_9)"/>
<path d="M35.1667 17.9333V11.4333C35.1667 11.194 34.9802 11 34.7501 11H26.4167C26.1865 11 26 11.194 26 11.4333V17.9333C25.5395 17.9333 25.1667 18.321 25.1667 18.8V27.4667C25.1667 27.9457 25.5395 28.3334 26 28.3334H28.5V29.2001C28.2699 29.2001 28.0834 29.3941 28.0834 29.6334C28.0834 29.8727 28.2699 30.0667 28.5 30.0667V30.9334C28.5 31.4123 28.8729 31.8001 29.3334 31.8001C29.3334 33.233 28.2112 34.4001 26.8334 34.4001H18.9167C17.5388 34.4001 16.4166 33.233 16.4166 31.8001C16.8772 31.8001 17.25 31.4123 17.25 30.9334V30.0667C17.4801 30.0667 17.6666 29.8727 17.6666 29.6334C17.6666 29.394 17.4801 29.2001 17.25 29.2001V28.3335H18.9167C19.1468 28.3335 19.3333 28.1395 19.3333 27.9002V17.5C19.3333 17.2607 19.1467 17.0667 18.9167 17.0667H18.5V14.0334C18.5 13.794 18.3135 13.6 18.0834 13.6V11.4333C18.0834 11.194 17.8968 11 17.6667 11H12.6667C12.4365 11 12.25 11.194 12.25 11.4333V13.6C12.0199 13.6 11.8334 13.794 11.8334 14.0333V17.0667H11.4166C11.1865 17.0667 11 17.2607 11 17.5V27.9001C11 28.1394 11.1866 28.3334 11.4166 28.3334H13.0833V29.2C12.8532 29.2 12.6667 29.394 12.6667 29.6333C12.6667 29.8726 12.8532 30.0666 13.0833 30.0666V30.9333C13.0833 31.4122 13.4561 31.8 13.9167 31.8C13.9167 34.6675 16.1595 37 18.9167 37H26.8333C29.5905 37 31.8333 34.6674 31.8333 31.8C32.2938 31.8 32.6666 31.4122 32.6666 30.9333V30.0666C32.8968 30.0666 33.0833 29.8726 33.0833 29.6333C33.0833 29.3939 32.8967 29.2 32.6666 29.2V28.3333H35.1667C35.6272 28.3333 36 27.9456 36 27.4666V18.8C36 18.321 35.6272 17.9333 35.1667 17.9333ZM26.8334 11.8667H34.3334V17.9333H26.8334V11.8667ZM13.0833 11.8667H17.25V13.6H13.0833V11.8667ZM12.6667 14.4667H17.6667V17.0667H12.6667V14.4667ZM11.8333 17.9334H12.25H18.0833H18.5V27.4668H16.8349C16.8344 27.4668 16.8338 27.4667 16.8333 27.4667H13.5C13.4995 27.4667 13.4989 27.4668 13.4984 27.4668H11.8333V17.9334ZM13.9167 28.3335H16.4167V29.2001H13.9167V28.3335ZM16.4167 30.0668V30.9334H16H14.3334H13.9167V30.0668H16.4167ZM26.8334 36.1335H18.9167C16.6197 36.1335 14.75 34.189 14.75 31.8001H15.5833C15.5833 33.7117 17.0787 35.2668 18.9167 35.2668H26.8334C28.6714 35.2668 30.1667 33.7117 30.1667 31.8001H31.0001C31 34.189 29.1303 36.1335 26.8334 36.1335ZM31.8333 30.9334H31.4167H29.75H29.3334V30.0668H31.8334V30.9334H31.8333ZM31.8333 29.2001H29.3333V28.3334H31.8333V29.2001ZM35.1667 27.4667H32.25H28.9167H26V18.8H26.4151C26.4156 18.8 26.4162 18.8001 26.4167 18.8001H34.7501C34.7506 18.8001 34.7512 18.8 34.7517 18.8H35.1668V27.4667H35.1667Z" fill="url(#paint4_linear_120_9)"/>
<path d="M29.7498 13.6001H28.0831C27.853 13.6001 27.6665 13.7941 27.6665 14.0334V15.7668C27.6665 16.0061 27.8531 16.2001 28.0831 16.2001H29.7498C29.98 16.2001 30.1665 16.0061 30.1665 15.7668V14.0335C30.1665 13.7941 29.9799 13.6001 29.7498 13.6001ZM29.3331 15.3335H28.4998V14.4668H29.3331V15.3335Z" fill="url(#paint5_linear_120_9)"/>
<path d="M33.0838 13.6001H31.4171C31.187 13.6001 31.0005 13.7941 31.0005 14.0334V15.7668C31.0005 16.0061 31.187 16.2001 31.4171 16.2001H33.0838C33.314 16.2001 33.5005 16.0061 33.5005 15.7668V14.0335C33.5005 13.7941 33.314 13.6001 33.0838 13.6001ZM32.6672 15.3335H31.8338V14.4668H32.6672V15.3335Z" fill="url(#paint6_linear_120_9)"/>
</g>
<defs>
<linearGradient id="paint0_linear_120_9" x1="24" y1="0" x2="24" y2="48" gradientUnits="userSpaceOnUse">
<stop stop-color="#0D091D"/>
<stop offset="0.927083" stop-color="#32284F"/>
<stop offset="1" stop-color="#332A53"/>
</linearGradient>
<linearGradient id="paint1_linear_120_9" x1="12.667" y1="24.5762" x2="17.6669" y2="24.5762" gradientUnits="userSpaceOnUse">
<stop stop-color="#3F85C6"/>
<stop offset="0.6875" stop-color="#CD99FF"/>
</linearGradient>
<linearGradient id="paint2_linear_120_9" x1="12.667" y1="22.8428" x2="17.6669" y2="22.8428" gradientUnits="userSpaceOnUse">
<stop stop-color="#3F85C6"/>
<stop offset="0.6875" stop-color="#CD99FF"/>
</linearGradient>
<linearGradient id="paint3_linear_120_9" x1="12.667" y1="26.3096" x2="17.667" y2="26.3096" gradientUnits="userSpaceOnUse">
<stop stop-color="#3F85C6"/>
<stop offset="0.6875" stop-color="#CD99FF"/>
</linearGradient>
<linearGradient id="paint4_linear_120_9" x1="11" y1="28.2785" x2="36" y2="28.2785" gradientUnits="userSpaceOnUse">
<stop stop-color="#3F85C6"/>
<stop offset="0.6875" stop-color="#CD99FF"/>
</linearGradient>
<linearGradient id="paint5_linear_120_9" x1="27.6665" y1="15.3279" x2="30.1665" y2="15.3279" gradientUnits="userSpaceOnUse">
<stop stop-color="#3F85C6"/>
<stop offset="0.6875" stop-color="#CD99FF"/>
</linearGradient>
<linearGradient id="paint6_linear_120_9" x1="31.0005" y1="15.3279" x2="33.5005" y2="15.3279" gradientUnits="userSpaceOnUse">
<stop stop-color="#3F85C6"/>
<stop offset="0.6875" stop-color="#CD99FF"/>
</linearGradient>
<clipPath id="clip0_120_9">
<rect width="48" height="48" fill="white"/>
</clipPath>
</defs>
</svg>
