<svg width="48" height="48" viewBox="0 0 48 48" fill="none" xmlns="http://www.w3.org/2000/svg">
<g clip-path="url(#clip0_120_9)">
<path d="M24 48C37.2548 48 48 37.2548 48 24C48 10.7452 37.2548 0 24 0C10.7452 0 0 10.7452 0 24C0 37.2548 10.7452 48 24 48Z" fill="url(#paint0_linear_120_9)"/>
<path d="M24.23 13.4839C27.5366 14.371 31.1552 15.4356 32.9644 16.027V25.3121C32.9644 27.3229 30.6561 30.8713 24.23 34.4198C17.8039 30.8122 15.4956 27.3229 15.4956 25.3121V16.027C17.3048 15.3764 20.9234 14.371 24.23 13.4839ZM24.23 11C24.23 11 13 14.0162 13 14.5484V25.3121C13 30.753 21.2977 35.5434 23.6061 36.8445C23.7908 36.9615 24.0079 37.0239 24.23 37.0239C24.4521 37.0239 24.6692 36.9615 24.8539 36.8445C27.2247 35.6026 35.46 30.753 35.46 25.3121V14.5484C35.46 14.0162 24.23 11 24.23 11Z" fill="url(#paint1_linear_120_9)"/>
<path d="M21.4848 27.2044L18.3654 24.3065C18.1492 24.0971 18.0181 23.8219 17.9953 23.5297C17.9724 23.2375 18.0593 22.947 18.2406 22.7097C18.3416 22.5672 18.4757 22.4485 18.6326 22.3627C18.7895 22.2769 18.9651 22.2264 19.1458 22.215C19.3265 22.2036 19.5076 22.2316 19.6751 22.2968C19.8427 22.3621 19.9922 22.4628 20.1123 22.5914L22.3583 24.7205L28.3476 19.043C28.5879 18.8721 28.8851 18.7892 29.1847 18.8094C29.4843 18.8296 29.7662 18.9515 29.9786 19.1528C30.191 19.3542 30.3196 19.6214 30.3409 19.9054C30.3622 20.1894 30.2747 20.4711 30.0945 20.6989L23.2317 27.2044C23.1207 27.3191 22.9857 27.4107 22.8353 27.4734C22.685 27.536 22.5225 27.5684 22.3583 27.5684C22.194 27.5684 22.0316 27.536 21.8812 27.4734C21.7308 27.4107 21.5959 27.3191 21.4848 27.2044Z" fill="url(#paint2_linear_120_9)"/>
</g>
<defs>
<linearGradient id="paint0_linear_120_9" x1="24" y1="0" x2="24" y2="48" gradientUnits="userSpaceOnUse">
<stop stop-color="#0D091D"/>
<stop offset="0.927083" stop-color="#32284F"/>
<stop offset="1" stop-color="#332A53"/>
</linearGradient>
<linearGradient id="paint1_linear_120_9" x1="13" y1="28.2944" x2="48.5" y2="28" gradientUnits="userSpaceOnUse">
<stop stop-color="#3F85C6"/>
<stop offset="0.6875" stop-color="#CD99FF"/>
</linearGradient>
<linearGradient id="paint2_linear_120_9" x1="17.9917" y1="24.6293" x2="37.5134" y2="24.3648" gradientUnits="userSpaceOnUse">
<stop stop-color="#3F85C6"/>
<stop offset="0.6875" stop-color="#CD99FF"/>
</linearGradient>
<clipPath id="clip0_120_9">
<rect width="48" height="48" fill="white"/>
</clipPath>
</defs>
</svg>
