<svg width="48" height="48" viewBox="0 0 48 48" fill="none" xmlns="http://www.w3.org/2000/svg">
<g clip-path="url(#clip0_120_9)">
<path d="M24 48C37.2548 48 48 37.2548 48 24C48 10.7452 37.2548 0 24 0C10.7452 0 0 10.7452 0 24C0 37.2548 10.7452 48 24 48Z" fill="url(#paint0_linear_120_9)"/>
<path d="M29.3512 25.2957C29.5273 25.4834 29.6262 25.738 29.6262 26.0034C29.6262 26.2688 29.5273 26.5234 29.3512 26.7111C29.1752 26.8988 28.9365 27.0042 28.6875 27.0042C28.4385 27.0042 28.1998 26.8988 28.0237 26.7111L24.9375 23.4185V29.0021C24.9375 29.2672 24.8387 29.5215 24.6629 29.7089C24.4871 29.8964 24.2486 30.0017 24 30.0017C23.7514 30.0017 23.5129 29.8964 23.3371 29.7089C23.1613 29.5215 23.0625 29.2672 23.0625 29.0021V23.4185L19.9762 26.7111C19.8002 26.8988 19.5615 27.0042 19.3125 27.0042C19.0635 27.0042 18.8248 26.8988 18.6487 26.7111C18.4727 26.5234 18.3738 26.2688 18.3738 26.0034C18.3738 25.738 18.4727 25.4834 18.6487 25.2957L23.3362 20.2978C23.4242 20.2051 23.5279 20.1311 23.6419 20.0799C23.8714 19.9799 24.1286 19.9799 24.3581 20.0799C24.4721 20.1311 24.5758 20.2051 24.6637 20.2978L29.3512 25.2957ZM39 28.0025C39 29.5932 38.4074 31.1186 37.3525 32.2434C36.2976 33.3681 34.8668 34 33.375 34H13.6875C12.4443 34 11.252 33.4734 10.3729 32.5362C9.49386 31.5989 9 30.3276 9 29.0021C9 27.6766 9.49386 26.4054 10.3729 25.4681C11.252 24.5308 12.4443 24.0042 13.6875 24.0042C14.0025 24.0047 14.3166 24.0395 14.625 24.1082V24.0042C14.6174 21.5279 15.4744 19.1371 17.029 17.2973C18.5836 15.4574 20.7247 14.3002 23.0355 14.0507C25.3463 13.8013 27.6614 14.4776 29.5303 15.9479C31.3992 17.4182 32.6882 19.5774 33.1462 22.0051C33.904 21.9722 34.6601 22.103 35.3692 22.3897C36.0782 22.6763 36.7256 23.1129 37.2724 23.6731C37.8192 24.2333 38.2542 24.9056 38.551 25.6497C38.8479 26.3937 39.0006 27.194 39 28.0025ZM37.125 28.0025C37.1296 27.4021 37.0063 26.8085 36.7644 26.2663C36.5224 25.7241 36.1682 25.2475 35.7284 24.8725C35.2886 24.4975 34.7747 24.2339 34.2254 24.1015C33.6761 23.9691 33.1058 23.9714 32.5575 24.1082C32.4279 24.1389 32.2937 24.1398 32.1637 24.1111C32.0337 24.0823 31.911 24.0244 31.8036 23.9412C31.6962 23.8581 31.6065 23.7515 31.5406 23.6287C31.4747 23.5058 31.434 23.3695 31.4212 23.2286C31.2388 21.1872 30.3256 19.2994 28.8716 17.9572C27.4175 16.6151 25.5343 15.922 23.6133 16.0218C21.6924 16.1217 19.8814 17.0069 18.5566 18.4934C17.2319 19.98 16.4953 21.9537 16.5 24.0042V25.5576C16.5 25.7335 16.4566 25.9062 16.374 26.0585C16.2913 26.2107 16.1725 26.337 16.0295 26.4246C15.8865 26.5122 15.7243 26.5581 15.5593 26.5575C15.3944 26.5569 15.2325 26.5099 15.09 26.4212C14.6661 26.1504 14.1817 26.0061 13.6875 26.0034C12.9416 26.0034 12.2262 26.3193 11.6988 26.8817C11.1713 27.4441 10.875 28.2068 10.875 29.0021C10.875 29.7974 11.1713 30.5602 11.6988 31.1225C12.2262 31.6849 12.9416 32.0008 13.6875 32.0008H33.375C34.3696 32.0008 35.3234 31.5796 36.0266 30.8298C36.7299 30.0799 37.125 29.063 37.125 28.0025Z" fill="url(#paint1_linear_120_9)"/>
</g>
<defs>
<linearGradient id="paint0_linear_120_9" x1="24" y1="0" x2="24" y2="48" gradientUnits="userSpaceOnUse">
<stop stop-color="#0D091D"/>
<stop offset="0.927083" stop-color="#32284F"/>
<stop offset="1" stop-color="#332A53"/>
</linearGradient>
<linearGradient id="paint1_linear_120_9" x1="9" y1="27.2912" x2="39" y2="27.2912" gradientUnits="userSpaceOnUse">
<stop stop-color="#3F85C6"/>
<stop offset="0.6875" stop-color="#CD99FF"/>
</linearGradient>
<clipPath id="clip0_120_9">
<rect width="48" height="48" fill="white"/>
</clipPath>
</defs>
</svg>
