<svg width="48" height="48" viewBox="0 0 48 48" fill="none" xmlns="http://www.w3.org/2000/svg">
<g clip-path="url(#clip0_120_9)">
<path d="M24 48C37.2548 48 48 37.2548 48 24C48 10.7452 37.2548 0 24 0C10.7452 0 0 10.7452 0 24C0 37.2548 10.7452 48 24 48Z" fill="url(#paint0_linear_120_9)"/>
<path d="M29.6807 24.8335L25.3613 27.1251V31.7084L29.6807 34.0001L34.0002 31.7087V27.1251L29.6807 24.8335ZM32.2725 30.7231L29.681 32.0981L27.0895 30.7231V28.1107L29.681 26.7357L32.2725 28.1107V30.7231Z" fill="url(#paint1_linear_120_9)"/>
<path d="M28.3843 29.4166C28.3843 30.107 28.9645 30.6666 29.6802 30.6666C30.3959 30.6666 30.9761 30.107 30.9761 29.4166C30.9761 28.7261 30.3959 28.1665 29.6802 28.1665C28.9645 28.1665 28.3843 28.7264 28.3843 29.4166ZM30.1122 29.4166C30.1122 29.6463 29.9185 29.8333 29.6802 29.8333C29.4418 29.8333 29.2482 29.6465 29.2482 29.4166C29.2482 29.1867 29.4418 28.9998 29.6802 28.9998C29.9185 28.9998 30.1122 29.1869 30.1122 29.4166ZM17.5879 23.1655H22.7711V24.8321H17.5879V23.1655Z" fill="url(#paint2_linear_120_9)"/>
<path d="M16.7166 20.6794H30.5498V23.9359H32.2774V15.6516C32.2774 14.741 31.5097 14 30.5658 14H29.9196C29.2298 14 28.6192 14.3812 28.3634 14.9705C28.2285 15.2806 27.7057 15.2813 27.5709 14.9705C27.3143 14.3808 26.7037 14 26.0145 14H25.5855C24.8957 14 24.2851 14.3812 24.0295 14.9705C23.8947 15.2806 23.3719 15.2813 23.237 14.9705C22.9805 14.3808 22.3699 14 21.6806 14H21.2689C20.5792 14 19.9685 14.3812 19.7127 14.9705C19.5778 15.2806 19.0551 15.2813 18.9202 14.9705C18.6635 14.381 18.0526 14 17.3633 14H16.7121C15.7682 14 15 14.741 15 15.6516V33.9975H24.4772V32.3309H16.727L16.7166 20.6794ZM17.3262 15.6147C17.6633 16.391 18.444 16.8928 19.3159 16.8928C20.1873 16.8928 20.9682 16.3915 21.2684 15.6668L21.6431 15.6147C21.9801 16.391 22.7608 16.8928 23.6327 16.8928C24.5041 16.8928 25.285 16.3915 25.5852 15.6668L25.9771 15.6147C26.3142 16.391 27.0949 16.8928 27.9668 16.8928C28.8382 16.8928 29.6191 16.3915 29.9193 15.6668L30.5495 15.6518V19.0128H16.7152L16.7123 15.6668L17.3262 15.6147Z" fill="url(#paint3_linear_120_9)"/>
</g>
<defs>
<linearGradient id="paint0_linear_120_9" x1="24" y1="0" x2="24" y2="48" gradientUnits="userSpaceOnUse">
<stop stop-color="#0D091D"/>
<stop offset="0.927083" stop-color="#32284F"/>
<stop offset="1" stop-color="#332A53"/>
</linearGradient>
<linearGradient id="paint1_linear_120_9" x1="25.3613" y1="30.9252" x2="34.0002" y2="30.9252" gradientUnits="userSpaceOnUse">
<stop stop-color="#3F85C6"/>
<stop offset="0.6875" stop-color="#CD99FF"/>
</linearGradient>
<linearGradient id="paint2_linear_120_9" x1="17.5879" y1="28.1505" x2="30.9761" y2="28.1505" gradientUnits="userSpaceOnUse">
<stop stop-color="#3F85C6"/>
<stop offset="0.6875" stop-color="#CD99FF"/>
</linearGradient>
<linearGradient id="paint3_linear_120_9" x1="15" y1="27.2895" x2="32.2774" y2="27.2895" gradientUnits="userSpaceOnUse">
<stop stop-color="#3F85C6"/>
<stop offset="0.6875" stop-color="#CD99FF"/>
</linearGradient>
<clipPath id="clip0_120_9">
<rect width="48" height="48" fill="white"/>
</clipPath>
</defs>
</svg>
