<svg width="48" height="48" viewBox="0 0 48 48" fill="none" xmlns="http://www.w3.org/2000/svg">
<g clip-path="url(#clip0_120_9)">
<path d="M24 48C37.2548 48 48 37.2548 48 24C48 10.7452 37.2548 0 24 0C10.7452 0 0 10.7452 0 24C0 37.2548 10.7452 48 24 48Z" fill="url(#paint0_linear_120_9)"/>
<path d="M33.52 14H14.48C13.12 14 12 14.9333 12 16.0667V31.9333C12 33.0667 13.12 34 14.48 34H33.52C34.88 34 36 33.0667 36 31.9333V16.0667C36 14.9333 34.88 14 33.52 14ZM22.96 16.4667C22.96 16.2 23.28 16 23.6 16H32.96C33.28 16 33.52 16.2667 33.52 16.5333V17.5333C33.52 17.8 33.2 18 32.88 18H23.52C23.2 18 22.96 17.7333 22.96 17.4667V16.4667ZM19.76 16C20.44 16 20.96 16.4333 20.96 17C20.96 17.5667 20.44 18 19.76 18C19.08 18 18.56 17.5667 18.56 17C18.56 16.4333 19.08 16 19.76 16ZM15.6 16C16.28 16 16.8 16.4333 16.8 17C16.8 17.5667 16.28 18 15.6 18C14.92 18 14.4 17.5667 14.4 17C14.4 16.4333 14.92 16 15.6 16ZM33.6 31.5333C33.6 31.8 33.28 32 32.96 32H14.96C14.64 32 14.4 31.7333 14.4 31.4667V20.4667C14.4 20.2 14.72 20 15.04 20H33.04C33.36 20 33.6 20.2667 33.6 20.5333V31.5333Z" fill="url(#paint1_linear_120_9)"/>
<path d="M31.2001 24.7665C31.2001 25.1332 30.8401 25.4332 30.4001 25.4332H27.3601C26.9201 25.4332 26.5601 25.1332 26.5601 24.7665V23.7665C26.5601 23.3999 26.9201 23.0999 27.3601 23.0999H30.4001C30.8401 23.0999 31.2001 23.3999 31.2001 23.7665V24.7665Z" fill="url(#paint2_linear_120_9)"/>
<path d="M31.2001 28.4333C31.2001 28.7999 30.8401 29.0999 30.4001 29.0999H27.3601C26.9201 29.0999 26.5601 28.7999 26.5601 28.4333V27.4333C26.5601 27.0666 26.9201 26.7666 27.3601 26.7666H30.4001C30.8401 26.7666 31.2001 27.0666 31.2001 27.4333V28.4333Z" fill="url(#paint3_linear_120_9)"/>
<path d="M23.6003 23.0999H17.4403C17.1203 23.0999 16.8003 23.2999 16.8003 23.5665V28.5665C16.8003 28.8332 17.0403 29.0999 17.3603 29.0999H17.4403H23.5203C23.8403 29.0999 24.1603 28.8999 24.1603 28.6332V23.6332C24.1603 23.3665 23.9203 23.0999 23.6003 23.0999ZM22.0003 28.0665H19.0003C18.6803 28.0665 18.4003 27.7665 18.4003 27.4665C18.4003 27.0332 18.9603 26.7665 19.5203 26.5332C19.9203 26.3999 19.9603 26.2665 19.9603 26.0999C19.9603 25.9332 19.8403 25.8332 19.7203 25.7332C19.4803 25.5665 19.3603 25.2999 19.3603 24.9999C19.3603 24.4332 19.7603 23.9665 20.4803 23.9665C21.1603 23.9665 21.6003 24.4332 21.6003 24.9999C21.6003 25.2999 21.4803 25.5665 21.2403 25.7332C21.1203 25.8332 21.0003 25.9665 21.0003 26.0999C21.0003 26.2332 21.0403 26.3665 21.4403 26.4999C22.0003 26.6999 22.5603 26.9999 22.5603 27.4332C22.6003 27.7665 22.3203 28.0665 22.0003 28.0665Z" fill="url(#paint4_linear_120_9)"/>
</g>
<defs>
<linearGradient id="paint0_linear_120_9" x1="24" y1="0" x2="24" y2="48" gradientUnits="userSpaceOnUse">
<stop stop-color="#0D091D"/>
<stop offset="0.927083" stop-color="#32284F"/>
<stop offset="1" stop-color="#332A53"/>
</linearGradient>
<linearGradient id="paint1_linear_120_9" x1="12" y1="27.2912" x2="36" y2="27.2912" gradientUnits="userSpaceOnUse">
<stop stop-color="#3F85C6"/>
<stop offset="0.6875" stop-color="#CD99FF"/>
</linearGradient>
<linearGradient id="paint2_linear_120_9" x1="26.5601" y1="24.6505" x2="31.2001" y2="24.6505" gradientUnits="userSpaceOnUse">
<stop stop-color="#3F85C6"/>
<stop offset="0.6875" stop-color="#CD99FF"/>
</linearGradient>
<linearGradient id="paint3_linear_120_9" x1="26.5601" y1="28.3172" x2="31.2001" y2="28.3172" gradientUnits="userSpaceOnUse">
<stop stop-color="#3F85C6"/>
<stop offset="0.6875" stop-color="#CD99FF"/>
</linearGradient>
<linearGradient id="paint4_linear_120_9" x1="16.8003" y1="27.0872" x2="24.1603" y2="27.0872" gradientUnits="userSpaceOnUse">
<stop stop-color="#3F85C6"/>
<stop offset="0.6875" stop-color="#CD99FF"/>
</linearGradient>
<clipPath id="clip0_120_9">
<rect width="48" height="48" fill="white"/>
</clipPath>
</defs>
</svg>
