<svg width="48" height="48" viewBox="0 0 48 48" fill="none" xmlns="http://www.w3.org/2000/svg">
<g clip-path="url(#clip0_120_9)">
<path d="M24 48C37.2548 48 48 37.2548 48 24C48 10.7452 37.2548 0 24 0C10.7452 0 0 10.7452 0 24C0 37.2548 10.7452 48 24 48Z" fill="url(#paint0_linear_120_9)"/>
<path d="M21.4602 19.6714C20.3129 18.0571 18.4798 17 16.3669 17C12.8546 17 10 19.9143 10 23.5C10 27.0857 12.8546 30 16.3669 30C18.7317 30 20.9286 28.7286 22.146 26.6571L24.007 23.5L25.8542 20.3428C27.0716 18.2714 29.2685 17 31.6333 17C35.1456 17 38 19.9143 38 23.5C38 27.0857 35.1456 30 31.6333 30C29.5344 30 27.7011 28.9429 26.5397 27.3286" stroke="url(#paint1_linear_120_9)" stroke-width="1.75" stroke-linecap="round" stroke-linejoin="round"/>
</g>
<defs>
<linearGradient id="paint0_linear_120_9" x1="24" y1="0" x2="24" y2="48" gradientUnits="userSpaceOnUse">
<stop stop-color="#0D091D"/>
<stop offset="0.927083" stop-color="#32284F"/>
<stop offset="1" stop-color="#332A53"/>
</linearGradient>
<linearGradient id="paint1_linear_120_9" x1="10" y1="25.6393" x2="38" y2="25.6393" gradientUnits="userSpaceOnUse">
<stop stop-color="#3F85C6"/>
<stop offset="0.6875" stop-color="#CD99FF"/>
</linearGradient>
<clipPath id="clip0_120_9">
<rect width="48" height="48" fill="white"/>
</clipPath>
</defs>
</svg>
