<svg width="48" height="48" viewBox="0 0 48 48" fill="none" xmlns="http://www.w3.org/2000/svg">
<g clip-path="url(#clip0_120_9)">
<path d="M24 48C37.2548 48 48 37.2548 48 24C48 10.7452 37.2548 0 24 0C10.7452 0 0 10.7452 0 24C0 37.2548 10.7452 48 24 48Z" fill="url(#paint0_linear_120_9)"/>
<path d="M19.2821 18.132H21.2376V25.5548H19.2821V18.132ZM25.5629 18.0765C24.3736 18.0765 23.5303 18.1428 22.9281 18.232V25.5548H24.8597V22.9008C25.0402 22.9225 25.2687 22.9345 25.525 22.9345C26.6751 22.9345 27.6599 22.6909 28.3252 22.1505C28.8365 21.7308 29.118 21.1154 29.118 20.3881C29.118 19.6618 28.7456 19.0464 28.1977 18.6712C27.622 18.2744 26.7635 18.0765 25.5629 18.0765ZM25.5099 21.6439C25.2296 21.6439 25.0238 21.633 24.8584 21.5993V19.4095C24.9986 19.3769 25.2675 19.3432 25.6651 19.3432C26.636 19.3432 27.1864 19.7509 27.1864 20.4326C27.1864 21.1926 26.5463 21.6439 25.5099 21.6439ZM23.5 13C17.7002 13 13 17.0479 13 22.0418C13 27.0357 23.5 35 23.5 35C23.5 35 34 27.0368 34 22.0429C34 17.049 29.2998 13 23.5 13ZM23.5265 27.5402C19.676 27.5402 16.5551 24.8513 16.5551 21.5341C16.5551 18.2179 19.6772 15.5301 23.5265 15.5301C27.3783 15.5301 30.4979 18.2189 30.4979 21.5341C30.4979 24.8503 27.3771 27.5402 23.5265 27.5402Z" fill="url(#paint1_linear_120_9)"/>
</g>
<defs>
<linearGradient id="paint0_linear_120_9" x1="24" y1="0" x2="24" y2="48" gradientUnits="userSpaceOnUse">
<stop stop-color="#0D091D"/>
<stop offset="0.927083" stop-color="#32284F"/>
<stop offset="1" stop-color="#332A53"/>
</linearGradient>
<linearGradient id="paint1_linear_120_9" x1="13" y1="27.6203" x2="42.5" y2="28" gradientUnits="userSpaceOnUse">
<stop stop-color="#3F85C6"/>
<stop offset="0.6875" stop-color="#CD99FF"/>
</linearGradient>
<clipPath id="clip0_120_9">
<rect width="48" height="48" fill="white"/>
</clipPath>
</defs>
</svg>
