<svg width="48" height="48" viewBox="0 0 48 48" fill="none" xmlns="http://www.w3.org/2000/svg">
<g clip-path="url(#clip0_120_9)">
<path d="M24 48C37.2548 48 48 37.2548 48 24C48 10.7452 37.2548 0 24 0C10.7452 0 0 10.7452 0 24C0 37.2548 10.7452 48 24 48Z" fill="url(#paint0_linear_120_9)"/>
<path d="M38.9634 27.052C38.7538 25.5317 38.1003 24.1189 37.0944 23.0115C36.0885 21.904 34.7805 21.1574 33.3537 20.8761C33.1465 19.4254 32.5786 18.0591 31.7082 16.9172C30.903 15.8708 29.8584 15.0596 28.6737 14.5607C27.489 14.0618 26.2035 13.8918 24.9392 14.0669C23.1507 14.3917 21.5102 15.3225 20.2645 16.7193C18.7259 16.4439 17.1452 16.7753 15.8219 17.6508C14.4986 18.5263 13.5245 19.8852 13.0842 21.47C11.8972 21.8361 10.8577 22.607 10.1273 23.663C9.39685 24.719 9.01646 26.0009 9.04521 27.3093C8.94379 28.1499 9.01348 29.0037 9.24961 29.8134C9.48574 30.623 9.88283 31.3699 10.4142 32.0036C10.9456 32.6374 11.5989 33.1434 12.3304 33.4877C13.0618 33.832 13.8544 34.0066 14.6549 33.9998H33.0171C34.745 33.8552 36.3561 33.0201 37.5236 31.6641C38.0664 31.0527 38.4765 30.3232 38.7252 29.5265C38.9739 28.7299 39.0552 27.8853 38.9634 27.052ZM36.6447 30.7337C35.7363 31.8307 34.4783 32.5353 33.1106 32.7132H14.6549C14.4679 32.7132 10.4102 32.7132 10.4102 27.4083C10.3774 26.1549 10.7988 24.9357 11.5881 24.0008C12.3773 23.0659 13.4746 22.4862 14.6549 22.3805H14.9727C15.1329 22.3177 15.2645 22.1927 15.3409 22.031C15.4173 21.8693 15.4327 21.6829 15.3841 21.5095C15.3481 21.3398 15.2532 21.1906 15.1181 21.0916C14.983 20.9926 14.8176 20.951 14.6549 20.9751C15.0729 20.0094 15.766 19.2065 16.6369 18.6789C17.4074 18.2638 18.2562 18.0375 19.1204 18.0169C19.9847 17.9964 20.8423 18.182 21.6295 18.5602C21.7091 18.595 21.7946 18.6123 21.8807 18.6111C21.9668 18.6099 22.0517 18.5901 22.1304 18.5531C22.2091 18.5161 22.2799 18.4626 22.3384 18.3957C22.3969 18.3289 22.4421 18.2501 22.471 18.1643C22.5401 17.9963 22.5434 17.8061 22.4803 17.6354C22.4172 17.4648 22.2929 17.3275 22.1344 17.2537L21.7417 17.1152C22.6841 16.2148 23.8419 15.6055 25.0888 15.3535C26.1368 15.1929 27.2062 15.3259 28.1904 15.7392C29.1747 16.1525 30.0394 16.8317 30.6985 17.709C31.78 19.2027 32.3236 21.0553 32.2318 22.9347C32.2318 23.1185 32.3007 23.2947 32.4235 23.4246C32.5462 23.5546 32.7127 23.6275 32.8863 23.6275C33.0259 23.5836 33.1477 23.4916 33.2324 23.3661C33.3171 23.2406 33.3598 23.0888 33.3537 22.9347C33.3537 22.717 33.3537 22.5389 33.3537 22.3211C34.4435 22.597 35.4302 23.2121 36.1867 24.087C36.9432 24.962 37.4349 26.0567 37.5984 27.2301C37.6743 27.8596 37.62 28.499 37.4392 29.104C37.2584 29.709 36.9554 30.2651 36.5512 30.7337H36.6447Z" fill="url(#paint1_linear_120_9)"/>
<path d="M27.9876 20.1437C28.0061 20.0859 28.0061 20.0233 27.9876 19.9655C27.9719 19.8757 27.9395 19.7901 27.8924 19.7136C27.8453 19.637 27.7844 19.5711 27.7132 19.5196C27.6419 19.4681 27.5617 19.432 27.4773 19.4134C27.3928 19.3948 27.3057 19.3941 27.2209 19.4113C26.2821 19.6274 25.3335 19.7925 24.3787 19.9062C24.2264 19.9337 24.0883 20.0174 23.9887 20.1423C23.8891 20.2673 23.8345 20.4256 23.8345 20.5891C23.8345 20.7526 23.8891 20.9108 23.9887 21.0358C24.0883 21.1608 24.2264 21.2444 24.3787 21.272L25.725 21.074L24.0047 23.6275C23.9187 23.7261 23.8626 23.8497 23.8434 23.9824C23.8243 24.1151 23.8431 24.2508 23.8974 24.3721C23.9516 24.4934 24.0389 24.5947 24.148 24.6631C24.2571 24.7315 24.383 24.7637 24.5096 24.7558C24.6048 24.7563 24.6991 24.7353 24.7861 24.6944C24.8731 24.6534 24.951 24.5934 25.0145 24.5183L26.8844 22.0044L26.9965 23.0139C26.9957 23.1121 27.0147 23.2094 27.0521 23.2992C27.0895 23.3891 27.1446 23.4695 27.2136 23.5352C27.2826 23.6008 27.364 23.6502 27.4524 23.68C27.5408 23.7098 27.6342 23.7193 27.7264 23.708C27.8185 23.6967 27.9074 23.6648 27.987 23.6144C28.0666 23.564 28.1352 23.4962 28.1882 23.4156C28.2412 23.3349 28.2774 23.2433 28.2944 23.1468C28.3114 23.0502 28.3088 22.9509 28.2868 22.8555C28.1372 21.3907 27.9876 20.2427 27.9876 20.2427V20.1437Z" fill="url(#paint2_linear_120_9)"/>
<path d="M23.2375 28.4178L21.9286 28.7543L23.5928 26.2602C23.646 26.1873 23.6844 26.1035 23.7057 26.0142C23.727 25.9249 23.7308 25.8319 23.7167 25.7409C23.7027 25.65 23.6712 25.5631 23.6242 25.4856C23.5771 25.4081 23.5155 25.3416 23.4432 25.2903C23.3733 25.2368 23.2941 25.1984 23.2102 25.1773C23.1262 25.1563 23.0392 25.153 22.954 25.1677C22.8688 25.1825 22.7873 25.2149 22.714 25.2631C22.6407 25.3113 22.5772 25.3744 22.527 25.4487L20.8441 28.0615C20.8441 27.7646 20.7132 27.4281 20.6384 27.0718C20.6207 26.9843 20.5868 26.9014 20.5385 26.828C20.4902 26.7545 20.4285 26.692 20.3572 26.6441C20.2858 26.5962 20.2061 26.5638 20.1227 26.5489C20.0394 26.5339 19.9541 26.5368 19.8718 26.5572C19.7038 26.5953 19.5568 26.7017 19.4624 26.8535C19.3679 27.0053 19.3336 27.1904 19.3669 27.3687C19.6661 28.7741 19.8157 29.8628 19.8157 29.9024C19.7969 29.9937 19.7969 30.0882 19.8157 30.1795C19.8589 30.3223 19.9437 30.4471 20.0579 30.5359C20.172 30.6248 20.3097 30.6732 20.4514 30.6744H20.6384C20.6384 30.6744 22.1343 30.041 23.518 29.7638C23.6719 29.71 23.8013 29.5977 23.8815 29.4486C23.9616 29.2995 23.9866 29.1243 23.9517 28.9568C23.9168 28.7893 23.8244 28.6415 23.6925 28.542C23.5606 28.4424 23.3985 28.3982 23.2375 28.4178Z" fill="url(#paint3_linear_120_9)"/>
</g>
<defs>
<linearGradient id="paint0_linear_120_9" x1="24" y1="0" x2="24" y2="48" gradientUnits="userSpaceOnUse">
<stop stop-color="#0D091D"/>
<stop offset="0.927083" stop-color="#32284F"/>
<stop offset="1" stop-color="#332A53"/>
</linearGradient>
<linearGradient id="paint1_linear_120_9" x1="9" y1="27.2912" x2="39" y2="27.2912" gradientUnits="userSpaceOnUse">
<stop stop-color="#3F85C6"/>
<stop offset="0.6875" stop-color="#CD99FF"/>
</linearGradient>
<linearGradient id="paint2_linear_120_9" x1="23.8345" y1="22.9597" x2="28.3054" y2="22.9597" gradientUnits="userSpaceOnUse">
<stop stop-color="#3F85C6"/>
<stop offset="0.6875" stop-color="#CD99FF"/>
</linearGradient>
<linearGradient id="paint3_linear_120_9" x1="19.3545" y1="28.8242" x2="23.967" y2="28.8242" gradientUnits="userSpaceOnUse">
<stop stop-color="#3F85C6"/>
<stop offset="0.6875" stop-color="#CD99FF"/>
</linearGradient>
<clipPath id="clip0_120_9">
<rect width="48" height="48" fill="white"/>
</clipPath>
</defs>
</svg>
