<svg width="48" height="48" viewBox="0 0 48 48" fill="none" xmlns="http://www.w3.org/2000/svg">
<g clip-path="url(#clip0_120_9)">
<path d="M24 48C37.2548 48 48 37.2548 48 24C48 10.7452 37.2548 0 24 0C10.7452 0 0 10.7452 0 24C0 37.2548 10.7452 48 24 48Z" fill="url(#paint0_linear_120_9)"/>
<path d="M14.1261 33.9987C13.7125 34.0096 13.3007 33.9518 12.9165 33.8288C12.5323 33.7059 12.1842 33.5205 11.8942 33.2845C11.6014 33.0541 11.3709 32.7779 11.2174 32.4732C11.0638 32.1685 10.9903 31.8417 11.0015 31.5133V16.5009C10.9878 16.1701 11.0601 15.8406 11.2137 15.5333C11.3674 15.226 11.5991 14.9475 11.8942 14.7155C12.1842 14.4794 12.5323 14.294 12.9165 14.1711C13.3007 14.0482 13.7125 13.9903 14.1261 14.0013H32.8736C33.2871 13.9903 33.699 14.0482 34.0832 14.1711C34.4673 14.294 34.8154 14.4794 35.1055 14.7155C35.4006 14.9475 35.6323 15.226 35.7859 15.5333C35.9396 15.8406 36.0119 16.1701 35.9982 16.5009V31.499C35.9935 32.162 35.6616 32.7967 35.0747 33.2649C34.4878 33.7331 33.6935 33.9968 32.8647 33.9987H14.1261ZM29.6955 27.7923C31.3559 27.4686 32.1862 26.7758 32.1862 25.714C32.226 25.3743 32.1439 25.0326 31.9494 24.729C31.7549 24.4254 31.4561 24.1725 31.0881 24C30.3858 23.6858 29.6356 23.4458 28.8563 23.2858C28.3711 23.1861 27.8988 23.0498 27.4457 22.8787C27.33 22.8428 27.2293 22.7815 27.1551 22.702C27.0809 22.6224 27.0362 22.5277 27.0262 22.4287C27.0262 22.0859 27.3029 21.836 27.8564 21.7145C28.0652 21.6503 28.2849 21.6118 28.5081 21.6003C28.8968 21.5678 29.288 21.6383 29.6219 21.8008C29.6977 21.8378 29.7697 21.879 29.8372 21.9241C30.2179 22.1781 30.6732 22.4217 31.1175 22.3118V22.3118C31.6912 22.1699 32.0006 21.5374 31.5756 21.1268C31.2793 20.8405 30.9112 20.6021 30.49 20.429C29.886 20.195 29.2238 20.0729 28.5527 20.0719C28.3478 20.0577 28.1417 20.0577 27.9368 20.0719C27.1519 20.1483 26.4238 20.4383 25.8745 20.8932C25.3964 21.3045 25.1316 21.8457 25.1335 22.4073C25.0893 22.7347 25.1644 23.0653 25.3498 23.3593C25.5351 23.6532 25.8227 23.8981 26.1781 24.0642C26.8364 24.3829 27.5491 24.6235 28.2938 24.7784C28.8155 24.8847 29.3213 25.0356 29.8026 25.2284C29.9268 25.2717 30.033 25.3423 30.1089 25.4321C30.1848 25.5219 30.2271 25.6271 30.2311 25.7355C30.2311 26.0925 29.874 26.3497 29.1687 26.5139C28.8334 26.566 28.4926 26.5923 28.151 26.5925C26.8119 26.5925 25.9102 26.3068 25.4728 25.7355C25.1381 25.2455 24.8545 24.7343 24.6247 24.2071C24.3378 23.5774 24.0039 22.9621 23.6248 22.3645C23.2334 21.7479 22.6898 21.2012 22.0268 20.7575C21.2796 20.2918 20.3482 20.0561 19.4022 20.0933C18.7467 20.1068 18.0984 20.2057 17.4828 20.3862C16.7176 20.6112 16.0675 21.0333 15.6348 21.586C15.0361 22.4324 14.7628 23.4013 14.8492 24.3713C14.8899 25.2228 15.2647 26.0424 15.9205 26.7139C16.3211 27.1275 16.8445 27.4545 17.4431 27.6653C18.0418 27.8761 18.6967 27.9639 19.3486 27.9209C19.9936 27.9397 20.6384 27.877 21.2591 27.7352C21.5854 27.6548 21.8888 27.5238 22.1518 27.3495V27.3495C22.3846 27.1948 22.3783 26.8772 22.2296 26.6405L21.8347 26.012C21.7278 25.8418 21.4964 25.8027 21.3394 25.9283V25.9283C21.073 26.1355 20.7569 26.2975 20.4101 26.4042C20.0634 26.511 19.6931 26.5605 19.3218 26.5496C18.9397 26.5697 18.5576 26.5097 18.2132 26.3757C17.8688 26.2417 17.574 26.0383 17.3578 25.7854C16.9462 25.2916 16.7372 24.7075 16.7596 24.1142C16.7596 22.443 17.6524 21.6003 19.3754 21.6003C19.7816 21.5861 20.1853 21.6578 20.5458 21.8083C20.9063 21.9588 21.2108 22.1826 21.4287 22.4573C21.991 23.163 22.4437 23.9209 22.7767 24.7142C23.0338 25.3279 23.3564 25.9229 23.7409 26.4925C24.192 27.0215 24.8523 27.4139 25.6156 27.6066C26.4385 27.8272 27.301 27.9382 28.1689 27.9352C28.6832 27.9387 29.196 27.8907 29.6955 27.7923Z" fill="url(#paint1_linear_120_9)"/>
</g>
<defs>
<linearGradient id="paint0_linear_120_9" x1="24" y1="0" x2="24" y2="48" gradientUnits="userSpaceOnUse">
<stop stop-color="#0D091D"/>
<stop offset="0.927083" stop-color="#32284F"/>
<stop offset="1" stop-color="#332A53"/>
</linearGradient>
<linearGradient id="paint1_linear_120_9" x1="11" y1="27.2912" x2="36" y2="27.2912" gradientUnits="userSpaceOnUse">
<stop stop-color="#3F85C6"/>
<stop offset="0.6875" stop-color="#CD99FF"/>
</linearGradient>
<clipPath id="clip0_120_9">
<rect width="48" height="48" fill="white"/>
</clipPath>
</defs>
</svg>
