<svg width="48" height="48" viewBox="0 0 48 48" fill="none" xmlns="http://www.w3.org/2000/svg">
<path d="M24 48C37.2548 48 48 37.2548 48 24C48 10.7452 37.2548 0 24 0C10.7452 0 0 10.7452 0 24C0 37.2548 10.7452 48 24 48Z" fill="url(#paint0_linear_262_83)"/>
<path d="M24.0001 10C17.8868 10 12.7068 13.92 10.7935 19.3333H37.2068C35.2935 13.92 30.1135 10 24.0001 10Z" fill="#3E4347"/>
<path d="M24.0001 38.0001C30.1135 38.0001 35.2935 34.1267 37.2068 28.6667H10.7935C12.7068 34.1267 17.8868 38.0001 24.0001 38.0001Z" fill="#FFE62E"/>
<path d="M10.7933 19.3333C10.28 20.7799 10 22.3666 10 23.9999C10 25.6333 10.28 27.2199 10.7933 28.6666H37.2067C37.72 27.2199 38 25.6333 38 23.9999C38 22.3666 37.72 20.7799 37.2067 19.3333H10.7933Z" fill="#ED4C5C"/>
<defs>
<linearGradient id="paint0_linear_262_83" x1="0" y1="31.8988" x2="48" y2="31.8988" gradientUnits="userSpaceOnUse">
<stop stop-color="#3F85C6" stop-opacity="0.42"/>
</linearGradient>
</defs>
</svg>
