<svg width="48" height="48" viewBox="0 0 48 48" fill="none" xmlns="http://www.w3.org/2000/svg">
<path d="M24 48C37.2548 48 48 37.2548 48 24C48 10.7452 37.2548 0 24 0C10.7452 0 0 10.7452 0 24C0 37.2548 10.7452 48 24 48Z" fill="url(#paint0_linear_251_64)"/>
<path d="M24.0004 38C31.7321 38 37.9998 31.7322 37.9998 24.0005C37.9998 16.2688 31.7321 10.001 24.0004 10.001C16.2687 10.001 10.001 16.2688 10.001 24.0005C10.001 31.7322 16.2687 38 24.0004 38Z" fill="white"/>
<path d="M37.1996 19.332H28.5737C28.9484 22.3227 28.9506 25.6179 28.581 28.6123H37.218C37.7222 27.1677 37.9994 25.6164 37.9994 24C37.9996 22.3625 37.716 20.7921 37.1996 19.332Z" fill="#EFECEC"/>
<path d="M28.5738 19.3321H37.1995C37.1982 19.3277 37.1968 19.3239 37.195 19.3199C35.4034 14.2678 30.7944 10.5508 25.2568 10.0574C27.4 11.232 28.026 14.9537 28.5738 19.3321Z" fill="#E97E24"/>
<path d="M25.2578 37.9419C30.8053 37.4476 35.4207 33.7177 37.2055 28.6521C37.2101 28.6386 37.2141 28.6253 37.219 28.6123H28.5818C28.0382 33.0144 27.4095 36.7623 25.2578 37.9419Z" fill="#258F44"/>
<path d="M10 24C10 25.6166 10.2776 27.1677 10.7814 28.6123H29.3019C29.6719 25.6177 29.6692 22.3227 29.295 19.332H10.8C10.2836 20.7922 10 22.3625 10 24Z" fill="#EFEFEF"/>
<path d="M10.8042 19.32C10.8029 19.324 10.8016 19.3277 10.7998 19.3322H29.2949C28.7467 14.9538 27.4 11.2321 25.2571 10.0575C24.8426 10.0207 24.4235 10 23.9996 10C17.9093 9.99994 12.7303 13.8896 10.8042 19.32Z" fill="#EA8634"/>
<path d="M29.3017 28.6123H10.7812C10.7859 28.6254 10.7903 28.6386 10.7947 28.6521C12.7131 34.0964 17.8996 37.9998 23.9996 37.9998C24.4236 37.9998 24.8427 37.979 25.2571 37.9419C27.4091 36.7624 28.7581 33.0144 29.3017 28.6123Z" fill="#359846"/>
<defs>
<linearGradient id="paint0_linear_251_64" x1="0" y1="31.8988" x2="48" y2="31.8988" gradientUnits="userSpaceOnUse">
<stop stop-color="#3F85C6" stop-opacity="0.42"/>
</linearGradient>
</defs>
</svg>
