<svg width="160" height="22" viewBox="0 0 160 22" fill="none" xmlns="http://www.w3.org/2000/svg">
<mask id="mask0_125_78" style="mask-type:alpha" maskUnits="userSpaceOnUse" x="0" y="0" width="160" height="22">
<g clip-path="url(#clip0_125_78)">
<mask id="mask1_125_78" style="mask-type:luminance" maskUnits="userSpaceOnUse" x="0" y="0" width="153" height="22">
<path d="M152.082 0H0V21.939H152.082V0Z" fill="white"/>
</mask>
<g mask="url(#mask1_125_78)">
<path d="M0 1.60002V19.789C0 20.889 0.641 21.389 1.875 21.389H19.068C20.257 21.389 20.942 20.889 20.942 19.789C20.942 18.738 20.257 18.189 19.068 18.189H4.29799C3.70399 18.189 3.47499 17.915 3.47499 17.366V1.60002C3.47581 1.37786 3.43036 1.15797 3.34152 0.954344C3.25269 0.75072 3.12242 0.567825 2.95901 0.417311C2.79561 0.266797 2.60266 0.151964 2.39244 0.0801187C2.18222 0.00827378 1.95933 -0.0190061 1.73799 1.77273e-05C1.51744 -0.0150871 1.29611 0.0149141 1.08754 0.0881906C0.878965 0.161467 0.687517 0.27648 0.524872 0.426211C0.362226 0.575942 0.231799 0.757249 0.141556 0.959063C0.0513129 1.16088 0.00315206 1.37897 0 1.60002Z" fill="black"/>
<path d="M29.539 13.4162V1.60025C29.5042 1.16331 29.306 0.755518 28.984 0.458134C28.662 0.160749 28.2398 -0.00439453 27.8015 -0.00439453C27.3631 -0.00439453 26.9409 0.160749 26.6189 0.458134C26.2969 0.755518 26.0988 1.16331 26.064 1.60025V13.7362C26.064 21.0982 30.636 21.9362 38.547 21.9362C46.458 21.9362 51.03 21.0962 51.03 13.7362V1.60025C50.9952 1.16331 50.797 0.755518 50.475 0.458134C50.153 0.160749 49.7308 -0.00439453 49.2925 -0.00439453C48.8541 -0.00439453 48.4319 0.160749 48.1099 0.458134C47.7879 0.755518 47.5898 1.16331 47.555 1.60025V13.4162C47.555 19.4062 44.355 18.6003 38.547 18.6003C32.739 18.6003 29.539 19.3142 29.539 13.4162Z" fill="black"/>
<path d="M84.9118 5.35V20.067C84.9109 20.2892 84.9564 20.509 85.0452 20.7127C85.1341 20.9163 85.2643 21.0992 85.4277 21.2497C85.5911 21.4002 85.7841 21.5151 85.9943 21.5869C86.2045 21.6587 86.4274 21.686 86.6488 21.667C86.871 21.69 87.0955 21.6655 87.3075 21.5952C87.5195 21.5248 87.7142 21.4102 87.8785 21.2589C88.0429 21.1076 88.1732 20.9231 88.2608 20.7176C88.3484 20.5121 88.3914 20.2903 88.3868 20.067V2.377C88.4037 2.07521 88.3598 1.7731 88.2575 1.48867C88.1552 1.20424 87.9966 0.943329 87.7913 0.721497C87.586 0.499664 87.3381 0.321453 87.0625 0.197495C86.7868 0.0735358 86.489 0.00637061 86.1868 0C84.9868 0 84.4638 0.679 83.3068 1.737L74.4358 10.489H74.3898L65.5188 1.783C64.3818 0.612001 63.5188 0 62.5008 0C61.9012 0.0533513 61.342 0.324788 60.9291 0.762882C60.5163 1.20098 60.2785 1.77529 60.2608 2.377V20.067C60.2599 20.2892 60.3054 20.509 60.3942 20.7127C60.4831 20.9163 60.6133 21.0992 60.7767 21.2497C60.9401 21.4002 61.1331 21.5151 61.3433 21.5869C61.5535 21.6587 61.7764 21.686 61.9978 21.667C62.2199 21.69 62.4445 21.6655 62.6565 21.5952C62.8685 21.5248 63.0632 21.4102 63.2275 21.2589C63.3919 21.1076 63.5222 20.9231 63.6098 20.7176C63.6974 20.5121 63.7403 20.2903 63.7358 20.067V5.304H63.9188L72.3778 13.324C73.1388 14.07 73.7308 14.65 74.3438 14.65C75.1138 14.65 75.5088 14.05 76.3558 13.324L84.7698 5.35H84.9118Z" fill="black"/>
<path d="M118.84 1.91993C118.84 0.868926 118.2 0.273926 116.965 0.273926H99.5888C98.3548 0.273926 97.7148 0.873926 97.7148 1.91993V3.51393L117.015 3.47493C118.204 3.47493 118.844 2.92593 118.844 1.91993" fill="#0C9ED9"/>
<path d="M97.7119 9.3042V19.7892C97.7119 20.8892 98.3519 21.3892 99.5869 21.3892H117.145C118.334 21.3892 118.974 20.8892 118.974 19.7892C118.974 18.7372 118.334 18.1892 117.145 18.1892H102.012C101.418 18.1892 101.189 17.9142 101.189 17.3662V12.5472H112.62C113.855 12.5472 114.495 11.9982 114.495 10.9472C114.495 9.9472 113.855 9.3472 112.62 9.3472L97.7119 9.3042Z" fill="black"/>
<path d="M152.082 19.6061V1.6001C152.079 1.3791 152.031 1.16103 151.941 0.959222C151.85 0.757411 151.72 0.576092 151.558 0.426347C151.395 0.276602 151.204 0.161576 150.995 0.0882886C150.787 0.0150016 150.565 -0.0150048 150.345 0.000104193C150.123 -0.0190665 149.9 0.00810245 149.69 0.079881C149.48 0.151659 149.287 0.266472 149.123 0.417001C148.96 0.56753 148.829 0.750473 148.74 0.954171C148.651 1.15787 148.606 1.37785 148.607 1.6001V16.1771L131.412 1.7371C130.229 0.744104 129.57 0.000104193 128.44 0.000104193C127.2 0.000104193 126.383 0.823103 126.383 2.3771V20.0671C126.386 20.2881 126.434 20.5062 126.524 20.708C126.614 20.9098 126.744 21.0911 126.907 21.2409C127.07 21.3906 127.261 21.5056 127.47 21.5789C127.678 21.6522 127.899 21.6822 128.12 21.6671C128.341 21.6863 128.564 21.6591 128.775 21.5873C128.985 21.5155 129.178 21.4007 129.341 21.2502C129.505 21.0997 129.635 20.9167 129.724 20.713C129.813 20.5093 129.859 20.2894 129.858 20.0671V5.1671L146.868 19.7891C148.007 20.7571 148.797 21.6641 149.977 21.6641C150.252 21.6735 150.525 21.627 150.782 21.5274C151.038 21.4278 151.271 21.2773 151.468 21.0848C151.664 20.8924 151.819 20.6622 151.924 20.408C152.029 20.1538 152.081 19.881 152.077 19.6061" fill="black"/>
</g>
<path d="M154.505 2.91609V2.90009C154.497 2.53494 154.562 2.17188 154.696 1.83211C154.83 1.49235 155.03 1.1827 155.285 0.92128C155.54 0.659855 155.845 0.451896 156.181 0.309559C156.518 0.167222 156.879 0.0933603 157.244 0.0922968C157.61 0.0912334 157.971 0.162988 158.309 0.303364C158.646 0.44374 158.952 0.64992 159.208 0.909855C159.465 1.16979 159.667 1.47826 159.803 1.81724C159.939 2.15622 160.006 2.5189 160 2.88409V2.90009C160.008 3.26524 159.943 3.6283 159.809 3.96807C159.675 4.30783 159.475 4.61748 159.22 4.8789C158.965 5.14033 158.66 5.34829 158.324 5.49062C157.987 5.63296 157.626 5.70682 157.261 5.70788C156.895 5.70895 156.534 5.63719 156.197 5.49682C155.859 5.35644 155.554 5.15026 155.297 4.89032C155.04 4.63039 154.838 4.32192 154.702 3.98294C154.566 3.64396 154.499 3.28128 154.505 2.91609ZM159.684 2.90009V2.88409C159.689 2.56067 159.63 2.23941 159.51 1.93914C159.39 1.63886 159.211 1.36559 158.984 1.13533C158.756 0.905076 158.486 0.72245 158.187 0.598152C157.888 0.473854 157.568 0.410382 157.244 0.411446C156.921 0.41251 156.601 0.478091 156.303 0.604351C156.005 0.730612 155.736 0.915015 155.51 1.14676C155.284 1.37851 155.107 1.65295 154.989 1.95401C154.871 2.25507 154.813 2.57671 154.821 2.90009V2.91609C154.816 3.23952 154.875 3.56077 154.995 3.86105C155.115 4.16132 155.294 4.43459 155.521 4.66485C155.749 4.89511 156.02 5.07773 156.318 5.20203C156.617 5.32632 156.937 5.3898 157.261 5.38874C157.584 5.38767 157.904 5.32209 158.202 5.19583C158.5 5.06957 158.769 4.88517 158.995 4.65342C159.221 4.42167 159.398 4.14723 159.516 3.84617C159.635 3.54511 159.692 3.22347 159.684 2.90009ZM156.179 1.44809H157.442C158.058 1.44809 158.516 1.74809 158.516 2.33209C158.524 2.52726 158.463 2.71903 158.345 2.8745C158.227 3.02996 158.058 3.13942 157.868 3.18409L158.611 4.24209H157.963L157.3 3.27909H156.712V4.24209H156.175L156.179 1.44809ZM157.395 2.83709C157.758 2.83709 157.963 2.64809 157.963 2.37909C157.963 2.07909 157.763 1.92109 157.395 1.92109H156.712V2.83709H157.395Z" fill="black"/>
</g>
</mask>
<g mask="url(#mask0_125_78)">
<rect x="-12" y="-8" width="179" height="41" fill="#CACACA"/>
</g>
<defs>
<clipPath id="clip0_125_78">
<rect width="160" height="21.939" fill="white"/>
</clipPath>
</defs>
</svg>
