<svg width="48" height="48" viewBox="0 0 48 48" fill="none" xmlns="http://www.w3.org/2000/svg">
<path d="M24 48C37.2548 48 48 37.2548 48 24C48 10.7452 37.2548 0 24 0C10.7452 0 0 10.7452 0 24C0 37.2548 10.7452 48 24 48Z" fill="url(#paint0_linear_252_84)"/>
<path d="M37.9993 24C37.9993 31.1912 32.578 37.1158 25.5995 37.9091C25.5099 37.9198 25.4203 37.9292 25.3301 37.9373C25.1698 37.9528 25.0089 37.9649 24.8472 37.9744C24.7576 37.9804 24.6674 37.9845 24.5778 37.9885C24.4175 37.9946 24.2566 37.9986 24.0956 37.9993C24.064 37.9999 24.0317 37.9999 24 37.9999C23.9421 37.9999 23.8842 37.9993 23.8263 37.9986C23.6646 37.9972 23.5037 37.9925 23.3434 37.9844C23.2531 37.9804 23.1636 37.9757 23.074 37.9696C15.7736 37.4929 10 31.4209 10 24C10 16.268 16.268 10 24 10C31.7314 10 37.9993 16.268 37.9993 24Z" fill="#D7F3FF"/>
<path d="M24.5384 11.2002H24.1343V15.5104H24.5384V11.2002Z" fill="white"/>
<path d="M24.83 15.3083L24.9882 19.6632H23.6846L23.8427 15.3083H24.3364H24.83Z" fill="#CCCCCC"/>
<path d="M25.5938 19.3491V20.6509H23.0791V19.3491H23.8428H24.8301H25.5938Z" fill="#E6E6E6"/>
<path d="M26.1547 20.292V22.1777L25.6159 22.8958L25.9302 25.3202L25.8624 36.4329L25.1661 37.9516C24.7815 37.9839 24.3923 38.0001 23.9997 38.0001C23.8347 38.0001 23.6703 37.9974 23.5067 37.9913L22.6977 36.2304L22.7875 29.6754L22.8324 23.3448L22.5181 22.1777V20.292H23.0791H25.5937H26.1547Z" fill="#B3B3B3"/>
<path d="M24.0956 20.7856V37.9994C24.0639 38.0001 24.0316 38.0001 23.9999 38.0001C23.942 38.0001 23.8841 37.9994 23.8262 37.9987V20.7856H24.0956Z" fill="#999999"/>
<path d="M24.847 20.7856V37.9745C24.7574 37.9806 24.6672 37.9846 24.5776 37.9887V20.7856H24.847Z" fill="#999999"/>
<path d="M25.5995 20.7856V37.9092C25.5099 37.92 25.4203 37.9294 25.3301 37.9374V20.7856H25.5995Z" fill="#999999"/>
<path d="M23.3431 20.7856V37.9846C23.2529 37.9805 23.1633 37.9758 23.0737 37.9698V20.7856H23.3431Z" fill="#999999"/>
<path d="M21.71 32.7281L23.5068 35.7365L21.1712 37.7145C18.2814 37.1212 15.7161 35.6375 13.7759 33.5633H14.8406V32.7733H16.0529V33.9855H17.8491V31.2466H18.8815V34.2098H19.9591V32.7281H21.71Z" fill="#666666"/>
<path d="M34.147 31.9201H35.5444C33.6587 34.6658 30.818 36.7044 27.5019 37.5583L25.8633 37.1172L25.5488 34.8611L26.9631 33.0427H27.9511V32.4143H28.669V31.6957H29.6119V33.8959H31.004V32.7732H32.0815V30.7529H34.1471L34.147 31.9201Z" fill="#666666"/>
<path d="M23.5067 22.1775V25.3648H22.0688V22.1775H22.5181H23.5067Z" fill="#CCCCCC"/>
<path d="M26.6039 22.1775V25.3648H25.166V22.1775H26.1547H26.6039Z" fill="#CCCCCC"/>
<path d="M22.743 22.6262H22.4736V33.3566H22.743V22.6262Z" fill="#999999"/>
<path d="M23.2367 22.6262H22.9673V33.3566H23.2367V22.6262Z" fill="#999999"/>
<path d="M25.7064 22.6262H25.437V33.3566H25.7064V22.6262Z" fill="#999999"/>
<path d="M26.2001 22.6262H25.9307V33.3566H26.2001V22.6262Z" fill="#999999"/>
<path d="M23.5068 24.916V35.9162H21.71V32.8578V24.916H22.0689H23.5068Z" fill="#E6E6E6"/>
<path d="M26.9628 33.5657V36.4329H25.166V24.916H26.6039H26.9628V33.5657Z" fill="#E6E6E6"/>
<path d="M25.8177 25.365H25.5483V36.0953H25.8177V25.365Z" fill="#999999"/>
<path d="M26.4466 25.365H26.1772V36.0953H26.4466V25.365Z" fill="#999999"/>
<path d="M22.4955 25.365H22.2261V36.0953H22.4955V25.365Z" fill="#999999"/>
<path d="M23.1239 25.365H22.8545V36.0953H23.1239V25.365Z" fill="#999999"/>
<path d="M27.5021 35.7366V37.5583C27.3755 37.5913 27.2482 37.6217 27.1203 37.6506C27.0307 37.6715 26.9411 37.691 26.8509 37.7092C26.7317 37.7341 26.6118 37.7569 26.4919 37.7785C26.4023 37.7947 26.3128 37.8102 26.2225 37.825C26.1033 37.8431 25.9841 37.8607 25.8636 37.8768C25.774 37.889 25.6844 37.8997 25.5942 37.9098C25.4521 37.926 25.3099 37.9394 25.1665 37.9516V35.7366H27.5021Z" fill="#CCCCCC"/>
<path d="M23.507 35.7366V37.9913C23.3635 37.9866 23.2215 37.9792 23.0793 37.9704C22.9891 37.9644 22.8995 37.9577 22.8099 37.9503C22.6894 37.9395 22.5702 37.9281 22.451 37.9153C22.3607 37.9052 22.2712 37.8944 22.1816 37.8829C22.061 37.8675 21.9418 37.85 21.8226 37.8318C21.7324 37.8176 21.6428 37.8028 21.5532 37.7873C21.4252 37.7644 21.298 37.7402 21.1714 37.7146V35.7366H23.507Z" fill="#CCCCCC"/>
<path d="M25.8636 36.1406V37.8768C25.7741 37.889 25.6845 37.8998 25.5942 37.9098V36.1406H25.8636Z" fill="#999999"/>
<path d="M26.4916 36.1406V37.7785C26.402 37.7947 26.3124 37.8102 26.2222 37.825V36.1407H26.4916V36.1406Z" fill="#999999"/>
<path d="M27.12 36.1406V37.6505C27.0304 37.6714 26.9408 37.691 26.8506 37.7091V36.1406H27.12Z" fill="#999999"/>
<path d="M21.8226 36.1407V37.8317C21.7324 37.8176 21.6428 37.8027 21.5532 37.7873V36.1406H21.8226V36.1407Z" fill="#999999"/>
<path d="M22.451 36.1406V37.9152C22.3608 37.9051 22.2712 37.8943 22.1816 37.8829V36.1406H22.451Z" fill="#999999"/>
<path d="M23.0794 36.1406V37.9704C22.9892 37.9643 22.8996 37.9576 22.8101 37.9502V36.1406H23.0794Z" fill="#999999"/>
<defs>
<linearGradient id="paint0_linear_252_84" x1="0" y1="31.8988" x2="48" y2="31.8988" gradientUnits="userSpaceOnUse">
<stop stop-color="#3F85C6" stop-opacity="0.42"/>
</linearGradient>
</defs>
</svg>
