<svg width="52" height="51" viewBox="0 0 52 51" fill="none" xmlns="http://www.w3.org/2000/svg">
<path d="M39.6109 25.5C39.6109 27.1087 39.2589 28.7017 38.5748 30.1878C37.8907 31.674 36.8881 33.0244 35.6242 34.162C34.3603 35.2995 32.8598 36.2018 31.2085 36.8175C29.5572 37.4332 27.7872 37.75 25.9998 37.75C24.2124 37.75 22.4424 37.4332 20.7911 36.8175C19.1396 36.2018 17.6392 35.2995 16.3753 34.162C15.1114 33.0244 14.1088 31.674 13.4247 30.1878C12.7407 28.7017 12.3887 27.1087 12.3887 25.5C12.3887 23.8913 12.7407 22.2983 13.4247 20.8122C14.1088 19.3259 15.1114 17.9755 16.3753 16.838C17.6392 15.7004 19.1397 14.7981 20.7911 14.1825C22.4424 13.5669 24.2124 13.25 25.9998 13.25C27.7872 13.25 29.5572 13.5669 31.2085 14.1825C32.8598 14.7981 34.3603 15.7004 35.6242 16.838C36.8881 17.9755 37.8907 19.3259 38.5748 20.8122C39.2589 22.2983 39.6109 23.8913 39.6109 25.5Z" stroke="url(#paint0_linear_217_464)" stroke-width="1.75"/>
<path d="M31.0302 30.1878C31.3038 28.7017 31.4446 27.1087 31.4446 25.5C31.4446 23.8913 31.3038 22.2983 31.0302 20.8122C30.7564 19.3259 30.3554 17.9755 29.8499 16.838C29.3444 15.7004 28.7441 14.7981 28.0837 14.1825C27.423 13.5669 26.715 13.25 26.0001 13.25C25.2853 13.25 24.5772 13.5669 23.9165 14.1825C23.2561 14.7981 22.6559 15.7004 22.1503 16.838C21.6448 17.9755 21.2438 19.3259 20.97 20.8122C20.6964 22.2983 20.5557 23.8913 20.5557 25.5C20.5557 27.1087 20.6964 28.7017 20.97 30.1878C21.2436 31.674 21.6448 33.0244 22.1503 34.162C22.6559 35.2995 23.2561 36.2018 23.9165 36.8175C24.5772 37.4332 25.2853 37.75 26.0001 37.75C26.715 37.75 27.423 37.4332 28.0837 36.8175C28.7441 36.2018 29.3444 35.2995 29.8499 34.162C30.3554 33.0244 30.7564 31.674 31.0302 30.1878Z" stroke="url(#paint1_linear_217_464)" stroke-width="1.75"/>
<path d="M12.3887 25.5H39.6109" stroke="url(#paint2_linear_217_464)" stroke-width="1.75" stroke-linecap="round"/>
<path d="M1.5 21.6209C1.5 13.7867 1.5 9.86969 2.52769 8.5519C3.55536 7.23412 7.64765 5.9734 15.8323 3.45194L17.3916 2.97156C21.6581 1.65719 23.7912 1 26 1C28.2088 1 30.3419 1.65719 34.6085 2.97156L36.1678 3.45194C44.3524 5.9734 48.4447 7.23412 49.4724 8.5519C50.5 9.86969 50.5 13.7867 50.5 21.6209C50.5 22.804 50.5 24.0873 50.5 25.4789C50.5 31.6159 48.222 36.3496 45.0556 39.965M2.02495 30.4C4.35904 40.9311 13.958 46.3566 20.2794 48.8419C22.2433 49.6139 23.2252 50 26 50C28.7748 50 29.7567 49.6139 31.7205 48.8419C33.2945 48.223 35.0715 47.4221 36.8889 46.4054" stroke="url(#paint3_linear_217_464)" stroke-width="1.75" stroke-linecap="round"/>
<defs>
<linearGradient id="paint0_linear_217_464" x1="12.3887" y1="29.5317" x2="39.6109" y2="29.5317" gradientUnits="userSpaceOnUse">
<stop stop-color="#3F85C6"/>
<stop offset="0.6875" stop-color="#CD99FF"/>
</linearGradient>
<linearGradient id="paint1_linear_217_464" x1="20.5557" y1="29.5317" x2="31.4446" y2="29.5317" gradientUnits="userSpaceOnUse">
<stop stop-color="#3F85C6"/>
<stop offset="0.6875" stop-color="#CD99FF"/>
</linearGradient>
<linearGradient id="paint2_linear_217_464" x1="12.3887" y1="26.1646" x2="39.6109" y2="26.1646" gradientUnits="userSpaceOnUse">
<stop stop-color="#3F85C6"/>
<stop offset="0.6875" stop-color="#CD99FF"/>
</linearGradient>
<linearGradient id="paint3_linear_217_464" x1="1.5" y1="33.5634" x2="50.5" y2="33.5634" gradientUnits="userSpaceOnUse">
<stop stop-color="#3F85C6"/>
<stop offset="0.6875" stop-color="#CD99FF"/>
</linearGradient>
</defs>
</svg>
