<svg width="50" height="50" viewBox="0 0 50 50" fill="none" xmlns="http://www.w3.org/2000/svg">
<path d="M19.5131 43.1985C19.5116 41.7263 19.9968 40.2948 20.8936 39.1257C21.7904 37.9567 23.0486 37.1154 24.4732 36.7322C25.8979 36.3491 27.4094 36.4455 28.7736 37.0065C30.1378 37.5675 31.2784 38.5618 32.0186 39.8353C37.1164 37.5915 39.0263 34.0701 39.0263 27.3778V20.077C39.0263 10.3622 33.5358 3.65037 25.0012 3.65037C16.4667 3.65037 10.9761 10.3646 10.9761 20.077V28.5946C10.9755 29.0784 10.7826 29.5423 10.4396 29.8845C10.0967 30.2266 9.63177 30.4191 9.14679 30.4198H6.70764C4.92968 30.4178 3.22506 29.7125 1.96762 28.4583C0.710185 27.2042 0.00258226 25.5037 0 23.7298L0 21.2963C0.00193561 19.5217 0.709176 17.8204 1.96661 16.5653C3.22405 15.3103 4.92904 14.6041 6.70764 14.6015H7.87355C9.71999 5.91117 16.0398 0 25.0012 0C33.9626 0 40.28 5.91117 42.1264 14.6015H43.2924C45.0705 14.6041 46.7752 15.31 48.0325 16.5645C49.2899 17.819 49.9974 19.5197 50 21.2938V23.7274C49.9981 25.5017 49.2907 27.2028 48.0332 28.4575C46.7757 29.7121 45.0707 30.4178 43.2924 30.4198H42.5387C42.4445 33.3021 41.4753 36.088 39.7592 38.4086C38.0431 40.7291 35.661 42.475 32.9284 43.4151C32.8997 45.19 32.1653 46.8808 30.8871 48.1156C29.6088 49.3503 27.8912 50.0278 26.1122 49.9991C24.3333 49.9704 22.6386 49.2378 21.401 47.9624C20.1634 46.687 19.4844 44.9734 19.5131 43.1985ZM23.1719 43.1985C23.1719 43.8001 23.3507 44.3883 23.6857 44.8885C24.0207 45.3888 24.4969 45.7787 25.054 46.0089C25.6111 46.2391 26.2242 46.2994 26.8156 46.182C27.407 46.0646 27.9503 45.7749 28.3767 45.3495C28.8031 44.9241 29.0935 44.382 29.2111 43.7919C29.3288 43.2019 29.2684 42.5902 29.0376 42.0344C28.8069 41.4785 28.4161 41.0034 27.9147 40.6692C27.4133 40.3349 26.8238 40.1565 26.2208 40.1565C25.4124 40.1572 24.6372 40.4778 24.0656 41.0482C23.4939 41.6185 23.1725 42.3919 23.1719 43.1985ZM42.685 26.7718H43.2924C44.1012 26.7718 44.877 26.4514 45.4491 25.881C46.0213 25.3106 46.3431 24.5368 46.3437 23.7298V21.2963C46.3437 20.4893 46.0226 19.7153 45.4509 19.1444C44.8791 18.5735 44.1036 18.2525 43.2948 18.2519H42.685V26.7718ZM3.65872 21.2963V23.7298C3.66001 24.536 3.98172 25.3087 4.5533 25.8786C5.12488 26.4484 5.89964 26.7687 6.70764 26.7694H7.31743V18.2519H6.70764C5.89879 18.2525 5.12329 18.5735 4.55158 19.1444C3.97986 19.7153 3.65871 20.4893 3.65872 21.2963Z" fill="url(#paint0_linear_390_79)"/>
<defs>
<linearGradient id="paint0_linear_390_79" x1="0" y1="33.2279" x2="50" y2="33.2279" gradientUnits="userSpaceOnUse">
<stop stop-color="#3F85C6"/>
<stop offset="0.6875" stop-color="#CD99FF"/>
</linearGradient>
</defs>
</svg>
