<svg width="50" height="50" viewBox="0 0 50 50" fill="none" xmlns="http://www.w3.org/2000/svg">
<path d="M49.2756 20.2399L44.8165 19.8265C44.3402 18.0029 43.6135 16.2583 42.6504 14.6265L45.5116 11.1808C45.7749 10.8638 45.7533 10.3984 45.4619 10.107L39.8732 4.51824C39.5817 4.22684 39.1164 4.20526 38.7993 4.46854L35.3478 7.33435C33.7151 6.3739 31.9696 5.64988 30.1448 5.17615L29.732 0.724118C29.694 0.313768 29.3498 0 28.9377 0H21.0341C20.622 0 20.2778 0.313866 20.2397 0.724216L19.8263 5.18328C18.0024 5.65965 16.258 6.3864 14.6263 7.34929L11.1807 4.48826C10.8637 4.22498 10.3984 4.24647 10.1069 4.53797L4.51815 10.1265C4.22674 10.4179 4.20516 10.8834 4.46844 11.2003L7.33435 14.6518C6.3739 16.2844 5.64988 18.0299 5.17605 19.8548L0.724021 20.2675C0.313866 20.3056 0 20.6498 0 21.062V28.938C0 29.3501 0.313866 29.6943 0.724216 29.7324L5.17625 30.1451C5.65008 31.9701 6.3741 33.7155 7.33454 35.3482L4.46863 38.7997C4.20535 39.1166 4.22694 39.5821 4.51834 39.8735L10.1071 45.4622C10.3986 45.7537 10.864 45.7753 11.1809 45.5119L14.6266 42.6508C16.2584 43.6139 18.0027 44.3404 19.8266 44.8167L20.24 49.2758C20.2779 49.6861 20.6223 50 21.0344 50H28.938C29.3501 50 29.6943 49.6861 29.7324 49.2758L30.1452 44.8237C31.97 44.35 33.7155 43.626 35.3482 42.6655L38.7997 45.5313C39.1167 45.7947 39.582 45.7729 39.8736 45.4816L45.4623 39.8928C45.7537 39.6014 45.7752 39.136 45.512 38.819L42.6508 35.3733C43.6138 33.7417 44.3404 31.9972 44.8167 30.1733L49.2758 29.7599C49.6861 29.722 50 29.3776 50 28.9655V21.0342C49.9998 20.6222 49.6859 20.2778 49.2756 20.2399ZM48.4041 28.2383L44.1039 28.6369C43.7613 28.6686 43.4776 28.9165 43.4002 29.2518C42.9286 31.2936 42.1202 33.2344 40.9974 35.0202C40.8138 35.3122 40.8387 35.6892 41.059 35.9545L43.8196 39.279L39.2595 43.8391L35.9299 41.0745C35.6649 40.8545 35.2885 40.8292 34.9966 41.0123C33.2096 42.1322 31.2677 42.9375 29.2249 43.4063C28.889 43.4833 28.6406 43.7672 28.6089 44.1103L28.2108 48.4042H21.7616L21.363 44.104C21.3313 43.7614 21.0834 43.4778 20.7481 43.4003C18.7064 42.9287 16.7657 42.1203 14.9797 40.9976C14.6878 40.8141 14.3108 40.8389 14.0454 41.0593L10.7209 43.8197L6.16082 39.2597L8.92545 35.9302C9.14557 35.6651 9.17067 35.2887 8.98766 34.9968C7.86794 33.21 7.06247 31.268 6.59372 29.225C6.51667 28.8891 6.23279 28.6407 5.88972 28.609L1.5957 28.2109V21.7897L5.88972 21.3917C6.23279 21.3599 6.51677 21.1115 6.59372 20.7756C7.06247 18.7325 7.86794 16.7907 8.98766 15.0038C9.17067 14.712 9.14557 14.3356 8.92545 14.0705L6.16082 10.741L10.7209 6.18093L14.0454 8.94137C14.3108 9.16178 14.6877 9.18668 14.9797 9.00299C16.7655 7.88024 18.7062 7.07185 20.7481 6.60027C21.0833 6.52283 21.3312 6.23914 21.363 5.89656L21.7616 1.59628H28.2105L28.6086 5.89031C28.6404 6.23337 28.8888 6.51736 29.2246 6.59431C31.2675 7.06296 33.2093 7.86843 34.9963 8.98825C35.2882 9.17115 35.6647 9.14616 35.9296 8.92604L39.2592 6.1615L43.8193 10.7215L41.0587 14.046C40.8384 14.3114 40.8135 14.6884 40.9971 14.9804C42.12 16.7664 42.9283 18.7073 43.3999 20.7487C43.4774 21.0841 43.7611 21.3319 44.1036 21.3637L48.4038 21.7622V28.2383H48.4041Z" fill="url(#paint0_linear_390_76)"/>
<path d="M24.9995 7.71289C15.4674 7.71289 7.7124 15.4678 7.7124 25C7.7124 28.9945 9.11279 32.8937 11.6556 35.979C11.9357 36.319 12.4387 36.3676 12.7788 36.0873C13.1188 35.8071 13.1673 35.3042 12.8871 34.9641C10.5791 32.1639 9.3082 28.6252 9.3082 25C9.3081 16.3478 16.3472 9.30869 24.9995 9.30869C33.6519 9.30869 40.691 16.3478 40.691 25.0001C40.691 33.6524 33.6519 40.6915 24.9995 40.6915C21.3743 40.6915 17.8356 39.4205 15.0354 37.1126C14.6953 36.8323 14.1926 36.8808 13.9123 37.2209C13.6321 37.5609 13.6804 38.0637 14.0206 38.344C17.1058 40.8868 21.0049 42.2872 24.9995 42.2872C34.5317 42.2872 42.2867 34.5322 42.2867 25C42.2867 15.4678 34.5317 7.71289 24.9995 7.71289Z" fill="url(#paint1_linear_390_76)"/>
<path d="M24.9999 10.9041C17.2275 10.9041 10.9043 17.2275 10.9043 24.9998C10.9043 32.7721 17.2275 39.0955 24.9999 39.0955C32.7724 39.0955 39.0956 32.7722 39.0956 24.9999C39.0956 17.2274 32.7724 10.9041 24.9999 10.9041ZM36.6173 20.3862L31.5383 22.0365C30.8191 20.4559 29.544 19.1808 27.9633 18.4615L29.6136 13.3826C32.8011 14.6529 35.3469 17.1988 36.6173 20.3862ZM30.585 25C30.585 28.0797 28.0794 30.585 24.9999 30.585C21.9203 30.585 19.4149 28.0796 19.4149 25C19.4149 21.9202 21.9204 19.4148 24.9999 19.4148C28.0795 19.4148 30.585 21.9203 30.585 25ZM24.9999 12.4998C26.0684 12.4998 27.1058 12.6348 28.0963 12.8881L26.4466 17.9654C25.9791 17.8694 25.4954 17.8189 24.9999 17.8189C24.5045 17.8189 24.0207 17.8693 23.5533 17.9654L21.9036 12.8881C22.8941 12.6348 23.9315 12.4998 24.9999 12.4998ZM20.3864 13.3826L22.0367 18.4615C20.456 19.1808 19.181 20.4559 18.4618 22.0365L13.3828 20.3862C14.6529 17.1988 17.1988 14.6529 20.3864 13.3826ZM12.5 24.9999C12.5 23.9315 12.635 22.894 12.8884 21.9035L17.9656 23.5532C17.8696 24.0207 17.8191 24.5045 17.8191 24.9999C17.8191 25.4953 17.8695 25.9792 17.9656 26.4466L12.8884 28.0963C12.635 27.1057 12.5 26.0684 12.5 24.9999ZM13.3826 29.6136L18.4616 27.9633C19.1808 29.5439 20.4558 30.8189 22.0365 31.5382L20.3862 36.6171C17.1988 35.3468 14.6531 32.801 13.3826 29.6136ZM24.9999 37.4999C23.9316 37.4999 22.8941 37.365 21.9036 37.1116L23.5533 32.0343C24.0208 32.1303 24.5045 32.1808 24.9999 32.1808C25.4954 32.1808 25.9792 32.1304 26.4466 32.0343L28.0963 37.1116C27.1058 37.3649 26.0683 37.4999 24.9999 37.4999ZM29.6135 36.6172L27.9632 31.5383C29.5439 30.819 30.819 29.5439 31.5382 27.9633L36.6172 29.6136C35.3468 32.801 32.8011 35.3468 29.6135 36.6172ZM32.0343 26.4466C32.1303 25.9791 32.1808 25.4953 32.1808 24.9999C32.1808 24.5045 32.1304 24.0206 32.0343 23.5532L37.1115 21.9035C37.3649 22.8941 37.4999 23.9315 37.4999 24.9999C37.4999 26.0683 37.3649 27.1057 37.1115 28.0963L32.0343 26.4466Z" fill="url(#paint2_linear_390_76)"/>
<defs>
<linearGradient id="paint0_linear_390_76" x1="0" y1="33.2279" x2="50" y2="33.2279" gradientUnits="userSpaceOnUse">
<stop stop-color="#3F85C6"/>
<stop offset="0.6875" stop-color="#CD99FF"/>
</linearGradient>
<linearGradient id="paint1_linear_390_76" x1="7.7124" y1="30.6895" x2="42.2867" y2="30.6895" gradientUnits="userSpaceOnUse">
<stop stop-color="#3F85C6"/>
<stop offset="0.6875" stop-color="#CD99FF"/>
</linearGradient>
<linearGradient id="paint2_linear_390_76" x1="10.9043" y1="29.6389" x2="39.0956" y2="29.6389" gradientUnits="userSpaceOnUse">
<stop stop-color="#3F85C6"/>
<stop offset="0.6875" stop-color="#CD99FF"/>
</linearGradient>
</defs>
</svg>
