<svg width="50" height="50" viewBox="0 0 50 50" fill="none" xmlns="http://www.w3.org/2000/svg">
<path d="M37.6005 0C39.1408 0 40.5721 0.867043 41.4344 2.2973L41.6378 2.66643L49.3872 18.1005C50.3626 20.0431 50.1538 22.4568 48.9021 24.1413L48.6378 24.4681L27.055 49.0312C25.9958 50.2368 24.3222 50.3172 23.1809 49.2723L22.9449 49.0312L1.36204 24.4681C-0.0280131 22.8859 -0.384623 20.495 0.433453 18.4949L0.612773 18.1005L8.36218 2.66643C9.12639 1.14441 10.498 0.160285 12.0169 0.0178879L12.3995 0H37.6005ZM37.6005 2.66643L11.6667 2.5L2.5 20.393L24.9999 47.5L47.5 20.393L37.6005 2.66643ZM14.0562 16.651C14.8943 15.6972 15.7546 17.2934 16.6667 18.1005L24.9999 28.3333L33.3333 18.4949C34.2412 17.4616 35.0359 15.6177 35.9438 16.651C36.7821 17.6048 36.8465 19.1058 36.1372 20.1437L35.9438 20.393L27.055 30.5092C25.9958 31.7148 24.3222 31.7952 23.1809 30.7503L22.9449 30.5092L14.0562 20.393C13.1482 19.3597 13.1482 17.6843 14.0562 16.651Z" fill="url(#paint0_linear_390_65)"/>
<defs>
<linearGradient id="paint0_linear_390_65" x1="0" y1="33.2279" x2="50" y2="33.2279" gradientUnits="userSpaceOnUse">
<stop stop-color="#3F85C6"/>
<stop offset="0.6875" stop-color="#CD99FF"/>
</linearGradient>
</defs>
</svg>
