<svg width="49" height="49" viewBox="0 0 49 49" fill="none" xmlns="http://www.w3.org/2000/svg">
<path d="M48.2264 34.3716H38.2742L31.6106 31.5683C31.515 31.528 31.4123 31.5073 31.3084 31.5073H19.1358C17.0027 31.5073 15.2675 33.2282 15.2675 35.3434V36.9801C15.2675 37.3564 15.3224 37.7202 15.4247 38.0641L5.90003 33.9796C3.96802 33.1511 1.75517 33.9828 0.861881 35.8726L0.387251 36.8765C-0.0588133 37.8202 -0.100988 38.8772 0.268352 39.853C0.637788 40.8288 1.37106 41.5973 2.33345 42.0167L9.33391 45.0681C9.72497 45.2388 10.1815 45.0623 10.3535 44.6744C10.5255 44.2865 10.3476 43.8338 9.95649 43.6632L2.95612 40.6118C2.37871 40.3602 1.93882 39.8991 1.71695 39.3137C1.49546 38.7283 1.52075 38.094 1.78837 37.5278L2.263 36.5238C2.79891 35.3898 4.12658 34.8911 5.28594 35.388L17.7973 40.7532C17.8942 40.7947 17.9988 40.8162 18.1043 40.8162H19.1359H29.8642C30.2916 40.8162 30.638 40.4728 30.638 40.0489C30.638 39.6251 30.2917 39.2816 29.8642 39.2816H19.1358C17.856 39.2816 16.8148 38.2491 16.8148 36.98V35.3432C16.8148 34.0741 17.856 33.0416 19.1358 33.0416H31.1511L37.8147 35.8449C37.9103 35.8852 38.013 35.9059 38.1169 35.9059H47.4527V43.2157L37.0743 47.4087C36.9811 47.4463 36.8828 47.4655 36.7823 47.4655H18.8422C18.7343 47.4655 18.6295 47.4436 18.5308 47.4006L12.4326 44.7424C12.0413 44.572 11.585 44.7482 11.4129 45.136C11.2409 45.5239 11.4188 45.9767 11.8098 46.1472L17.9081 48.8054C18.2043 48.9345 18.5186 48.9999 18.8422 48.9999H36.7823C37.0838 48.9999 37.3783 48.9426 37.658 48.8297L48.5183 44.442C48.8096 44.3244 49.0001 44.0435 49.0001 43.7315V35.1385C49.0001 34.7151 48.6537 34.3716 48.2264 34.3716Z" fill="url(#paint0_linear_217_458)"/>
<path d="M33.1993 18.5714C33.0876 18.1623 32.6631 17.9205 32.2504 18.0312C31.838 18.1418 31.5941 18.5631 31.7057 18.9722C31.887 19.6368 31.9789 20.3266 31.9789 21.0222C31.9789 25.3374 28.4389 28.8479 24.0874 28.8479C19.7359 28.8479 16.1959 25.3374 16.1959 21.0222C16.1959 16.707 19.7359 13.1965 24.0874 13.1965C26.6659 13.1965 29.0874 14.4504 30.5649 16.5509C30.8092 16.8984 31.2914 16.984 31.642 16.7412C31.9924 16.4988 32.0783 16.0206 31.8339 15.6731C30.0673 13.1615 27.1713 11.6621 24.0874 11.6621C18.8828 11.6621 14.6484 15.8611 14.6484 21.0223C14.6484 26.1835 18.8828 30.3825 24.0874 30.3825C29.292 30.3825 33.5263 26.1835 33.5263 21.0223C33.5264 20.1912 33.4164 19.3667 33.1993 18.5714Z" fill="url(#paint1_linear_217_458)"/>
<path d="M26.9758 18.2092C27.4032 18.2092 27.7495 17.8658 27.7495 17.4419C27.7495 17.0181 27.4033 16.6747 26.9758 16.6747H24.8611V15.8051C24.8611 15.3813 24.5149 15.0378 24.0874 15.0378C23.6601 15.0378 23.3137 15.3812 23.3137 15.8051V16.6747H22.6432C21.6478 16.6747 20.8379 17.4778 20.8379 18.4649V20.1016C20.8379 21.0887 21.6478 21.8919 22.6432 21.8919H23.3137V24.0401H21.199C20.7717 24.0401 20.4253 24.3835 20.4253 24.8074C20.4253 25.2312 20.7716 25.5746 21.199 25.5746H23.3137V26.4442C23.3137 26.868 23.66 27.2115 24.0874 27.2115C24.5148 27.2115 24.8611 26.8681 24.8611 26.4442V25.5746H25.5317C26.5271 25.5746 27.337 24.7715 27.337 23.7844V22.1477C27.337 21.1606 26.5271 20.3574 25.5317 20.3574H24.8611V18.2092H26.9758ZM23.3137 20.3574H22.6432C22.5009 20.3574 22.3853 20.2428 22.3853 20.1017V18.465C22.3853 18.3239 22.5009 18.2093 22.6432 18.2093H23.3137V20.3574ZM25.5316 21.8919C25.6738 21.8919 25.7895 22.0065 25.7895 22.1476V23.7843C25.7895 23.9254 25.6738 24.04 25.5316 24.04H24.861V21.8918L25.5316 21.8919Z" fill="url(#paint2_linear_217_458)"/>
<path d="M48.328 23.9444C47.8027 23.8751 46.4791 23.5852 45.5339 22.3902C44.8623 21.5407 44.7013 20.6192 44.665 20.1457C44.6344 19.7457 44.2981 19.4365 43.8935 19.4365C43.4889 19.4365 43.1526 19.7456 43.122 20.1457C43.0857 20.6193 42.9245 21.5408 42.253 22.3902C41.3079 23.5852 39.9842 23.8752 39.459 23.9444C39.0744 23.995 38.7871 24.3202 38.7871 24.7049C38.7871 25.0897 39.0744 25.4148 39.459 25.4655C39.9843 25.5348 41.3079 25.8247 42.253 27.0196C42.9245 27.8692 43.0857 28.7906 43.122 29.2642C43.1526 29.6641 43.4889 29.9733 43.8935 29.9733C44.2981 29.9733 44.6344 29.6643 44.665 29.2642C44.7013 28.7905 44.8624 27.8692 45.5339 27.0197C46.4791 25.8246 47.8027 25.5347 48.328 25.4655C48.7126 25.4149 48.9999 25.0897 48.9999 24.7049C48.9999 24.3202 48.7126 23.9951 48.328 23.9444ZM44.3161 26.0729C44.1552 26.2765 44.0151 26.4823 43.8934 26.6874C43.7716 26.4822 43.6316 26.2764 43.4706 26.0728C42.9851 25.4589 42.429 25.0194 41.886 24.7049C42.4292 24.3904 42.9851 23.951 43.4706 23.337C43.6317 23.1334 43.7717 22.9275 43.8934 22.7224C44.0152 22.9276 44.1552 23.1335 44.3162 23.337C44.8017 23.9511 45.3578 24.3905 45.9008 24.7049C45.3576 25.0194 44.8016 25.459 44.3161 26.0729Z" fill="url(#paint3_linear_217_458)"/>
<path d="M28.9342 4.50784C28.4089 4.43855 27.0853 4.14867 26.1402 2.95371C25.4687 2.10414 25.3075 1.18271 25.2712 0.709165C25.2407 0.309123 24.9044 0 24.4998 0C24.0953 0 23.7589 0.309028 23.7283 0.709165C23.6921 1.1828 23.5309 2.10424 22.8594 2.95371C21.9143 4.14867 20.5906 4.43865 20.0654 4.50784C19.6809 4.55857 19.3936 4.88367 19.3936 5.2684C19.3936 5.65313 19.6809 5.97824 20.0654 6.02896C20.5907 6.09825 21.9144 6.38814 22.8595 7.58309C23.531 8.43266 23.6922 9.35409 23.7284 9.82764C23.759 10.2276 24.0954 10.5368 24.4999 10.5368C24.9045 10.5368 25.2408 10.2278 25.2714 9.82764C25.3077 9.354 25.4689 8.43266 26.1403 7.58319C27.0855 6.38804 28.4091 6.09815 28.9344 6.02896C29.3188 5.97824 29.6061 5.65313 29.6061 5.2684C29.6061 4.88367 29.3188 4.55857 28.9342 4.50784ZM24.9225 6.63639C24.7617 6.83995 24.6215 7.04581 24.4998 7.25091C24.378 7.04572 24.238 6.83986 24.077 6.6363C23.5915 6.02236 23.0354 5.58288 22.4925 5.2684C23.0356 4.95392 23.5915 4.51445 24.077 3.90051C24.2381 3.69685 24.3781 3.49099 24.4998 3.2859C24.6216 3.49108 24.7617 3.69694 24.9226 3.90051C25.4082 4.51454 25.9643 4.95401 26.5072 5.2684C25.9641 5.58288 25.4081 6.02245 24.9225 6.63639Z" fill="url(#paint4_linear_217_458)"/>
<path d="M9.54087 23.9444C9.01567 23.8751 7.69195 23.5851 6.74684 22.3902C6.07523 21.5407 5.91416 20.6192 5.87787 20.1457C5.84709 19.7456 5.51085 19.4365 5.10628 19.4365C4.70172 19.4365 4.36539 19.7456 4.33479 20.1457C4.29851 20.6193 4.13733 21.5408 3.46592 22.3901C2.52071 23.5853 1.1971 23.8752 0.671798 23.9444C0.287307 23.9951 0 24.3202 0 24.7049C0 25.0897 0.287307 25.4148 0.671895 25.4655C1.19719 25.5348 2.52081 25.8247 3.46592 27.0196C4.13743 27.8692 4.2986 28.7906 4.33489 29.2642C4.36558 29.6641 4.70182 29.9733 5.10638 29.9733C5.51095 29.9733 5.84728 29.6643 5.87787 29.2642C5.91416 28.7905 6.07533 27.8692 6.74674 27.0197C7.69195 25.8246 9.01557 25.5347 9.54087 25.4655C9.92545 25.4149 10.2128 25.0897 10.2128 24.7049C10.2128 24.3202 9.92545 23.9951 9.54087 23.9444ZM5.52899 26.0729C5.36811 26.2765 5.22798 26.4823 5.10628 26.6874C4.98449 26.4822 4.84446 26.2764 4.68348 26.0728C4.19794 25.4589 3.64186 25.0194 3.0989 24.7049C3.64205 24.3904 4.19804 23.9509 4.68358 23.3369C4.84446 23.1334 4.98459 22.9276 5.10628 22.7224C5.22798 22.9276 5.36811 23.1334 5.52899 23.3369L5.52909 23.337C6.01463 23.9511 6.57071 24.3905 7.11367 24.7049C6.57052 25.0194 6.01453 25.459 5.52899 26.0729Z" fill="url(#paint5_linear_217_458)"/>
<defs>
<linearGradient id="paint0_linear_217_458" x1="0.019043" y1="43.1322" x2="49.0001" y2="43.1322" gradientUnits="userSpaceOnUse">
<stop stop-color="#3F85C6"/>
<stop offset="0.6875" stop-color="#CD99FF"/>
</linearGradient>
<linearGradient id="paint1_linear_217_458" x1="14.6484" y1="24.1029" x2="33.5263" y2="24.1029" gradientUnits="userSpaceOnUse">
<stop stop-color="#3F85C6"/>
<stop offset="0.6875" stop-color="#CD99FF"/>
</linearGradient>
<linearGradient id="paint2_linear_217_458" x1="20.4253" y1="23.1279" x2="27.7495" y2="23.1279" gradientUnits="userSpaceOnUse">
<stop stop-color="#3F85C6"/>
<stop offset="0.6875" stop-color="#CD99FF"/>
</linearGradient>
<linearGradient id="paint3_linear_217_458" x1="38.7871" y1="26.4388" x2="48.9999" y2="26.4388" gradientUnits="userSpaceOnUse">
<stop stop-color="#3F85C6"/>
<stop offset="0.6875" stop-color="#CD99FF"/>
</linearGradient>
<linearGradient id="paint4_linear_217_458" x1="19.3936" y1="7.00232" x2="29.6061" y2="7.00232" gradientUnits="userSpaceOnUse">
<stop stop-color="#3F85C6"/>
<stop offset="0.6875" stop-color="#CD99FF"/>
</linearGradient>
<linearGradient id="paint5_linear_217_458" x1="0" y1="26.4388" x2="10.2128" y2="26.4388" gradientUnits="userSpaceOnUse">
<stop stop-color="#3F85C6"/>
<stop offset="0.6875" stop-color="#CD99FF"/>
</linearGradient>
</defs>
</svg>
