<svg width="48" height="48" viewBox="0 0 48 48" fill="none" xmlns="http://www.w3.org/2000/svg">
<g clip-path="url(#clip0_120_9)">
<path d="M24 48C37.2548 48 48 37.2548 48 24C48 10.7452 37.2548 0 24 0C10.7452 0 0 10.7452 0 24C0 37.2548 10.7452 48 24 48Z" fill="url(#paint0_linear_120_9)"/>
<path d="M32.4652 15.8408L24.7981 14.0108C24.7134 13.9964 24.6265 13.9964 24.5418 14.0108C24.471 14.0008 24.399 14.0008 24.3282 14.0108L16.6184 15.8408C16.1296 15.955 15.6996 16.2275 15.4046 16.6099C15.1095 16.9924 14.9683 17.4602 15.006 17.9307L15.4545 23.4404C15.6341 25.6261 16.4496 27.7239 17.8126 29.5061C19.1755 31.2884 21.0338 32.6869 23.1856 33.55L24.1253 33.93C24.2438 33.9762 24.3708 34 24.4991 34C24.6274 34 24.7544 33.9762 24.8728 33.93L25.8125 33.55C27.9644 32.6869 29.8226 31.2884 31.1856 29.5061C32.5485 27.7239 33.3641 25.6261 33.5437 23.4404L33.9922 17.9307C34.0343 17.4708 33.9052 17.0115 33.6269 16.6306C33.3486 16.2497 32.9381 15.9706 32.4652 15.8408ZM28.5035 21.7205L24.2321 25.7203C24.1329 25.8141 24.0148 25.8885 23.8846 25.9392C23.7545 25.99 23.6149 26.0161 23.474 26.0161C23.333 26.0161 23.1934 25.99 23.0633 25.9392C22.9332 25.8885 22.8151 25.8141 22.7158 25.7203L20.5801 23.7204C20.379 23.5321 20.2661 23.2767 20.2661 23.0105C20.2661 22.7442 20.379 22.4888 20.5801 22.3005C20.7812 22.1122 21.0539 22.0064 21.3383 22.0064C21.6226 22.0064 21.8954 22.1122 22.0964 22.3005L23.474 23.6004L26.9872 20.3006C27.1882 20.1123 27.461 20.0065 27.7453 20.0065C28.0297 20.0065 28.3024 20.1123 28.5035 20.3006C28.7046 20.4889 28.8175 20.7443 28.8175 21.0105C28.8175 21.2768 28.7046 21.5322 28.5035 21.7205Z" fill="url(#paint1_linear_120_9)"/>
</g>
<defs>
<linearGradient id="paint0_linear_120_9" x1="0" y1="31.8988" x2="48" y2="31.8988" gradientUnits="userSpaceOnUse">
<stop stop-color="#3F85C6"/>
<stop offset="0.6875" stop-color="#CD99FF"/>
</linearGradient>
<linearGradient id="paint1_linear_120_9" x1="24.5" y1="14" x2="24.5" y2="34" gradientUnits="userSpaceOnUse">
<stop stop-color="#0D091D"/>
<stop offset="0.927083" stop-color="#32284F"/>
<stop offset="1" stop-color="#332A53"/>
</linearGradient>
<clipPath id="clip0_120_9">
<rect width="48" height="48" fill="white"/>
</clipPath>
</defs>
</svg>
