<svg width="48" height="48" viewBox="0 0 48 48" fill="none" xmlns="http://www.w3.org/2000/svg">
<g clip-path="url(#clip0_120_9)">
<path d="M24 48C37.2548 48 48 37.2548 48 24C48 10.7452 37.2548 0 24 0C10.7452 0 0 10.7452 0 24C0 37.2548 10.7452 48 24 48Z" fill="url(#paint0_linear_120_9)"/>
<path d="M24.23 15.3271C26.1645 15.3271 28.0556 15.8525 29.664 16.8368C31.2725 17.8211 32.5261 19.2201 33.2664 20.857C34.0067 22.4938 34.2004 24.2949 33.823 26.0326C33.4456 27.7703 32.5141 29.3664 31.1462 30.6192C29.7783 31.872 28.0355 32.7251 26.1382 33.0708C24.2409 33.4164 22.2742 33.239 20.487 32.561C18.6998 31.883 17.1722 30.7349 16.0974 29.2617C15.0227 27.7886 14.449 26.0567 14.449 24.285C14.4519 21.91 15.4833 19.6331 17.317 17.9537C19.1507 16.2743 21.6368 15.3297 24.23 15.3271ZM24.23 14C22.0089 14 19.8377 14.6032 17.9909 15.7334C16.1442 16.8635 14.7048 18.4698 13.8548 20.3491C13.0049 22.2285 12.7825 24.2964 13.2158 26.2915C13.6491 28.2866 14.7186 30.1192 16.2892 31.5576C17.8597 32.996 19.8607 33.9755 22.0391 34.3724C24.2175 34.7692 26.4755 34.5656 28.5275 33.7871C30.5796 33.0087 32.3334 31.6904 33.5674 29.999C34.8014 28.3077 35.46 26.3192 35.46 24.285C35.46 21.5573 34.2769 18.9412 32.1708 17.0124C30.0648 15.0836 27.2084 14 24.23 14Z" fill="url(#paint1_linear_120_9)"/>
<path d="M34.7354 24.9486H23.5054V14.375H24.9544V23.6222H34.7354V24.9486Z" fill="url(#paint2_linear_120_9)"/>
</g>
<defs>
<linearGradient id="paint0_linear_120_9" x1="24" y1="0" x2="24" y2="48" gradientUnits="userSpaceOnUse">
<stop stop-color="#0D091D"/>
<stop offset="0.927083" stop-color="#32284F"/>
<stop offset="1" stop-color="#332A53"/>
</linearGradient>
<linearGradient id="paint1_linear_120_9" x1="13" y1="27.67" x2="35.46" y2="27.67" gradientUnits="userSpaceOnUse">
<stop stop-color="#6A48F2"/>
<stop offset="0.6875" stop-color="#CD99FF"/>
</linearGradient>
<linearGradient id="paint2_linear_120_9" x1="23.5054" y1="21.4018" x2="34.7354" y2="21.4018" gradientUnits="userSpaceOnUse">
<stop stop-color="#6A48F2"/>
<stop offset="0.6875" stop-color="#CD99FF"/>
</linearGradient>
<clipPath id="clip0_120_9">
<rect width="48" height="48" fill="white"/>
</clipPath>
</defs>
</svg>
