<svg width="48" height="48" viewBox="0 0 48 48" fill="none" xmlns="http://www.w3.org/2000/svg">
<path d="M24 48C37.2548 48 48 37.2548 48 24C48 10.7452 37.2548 0 24 0C10.7452 0 0 10.7452 0 24C0 37.2548 10.7452 48 24 48Z" fill="url(#paint0_linear_252_84)"/>
<path d="M12 32.6669C12 31.2587 12 30.5546 12.1827 29.9992C12.4263 29.2587 12.8935 28.6703 13.4816 28.3635C13.9226 28.1335 14.4817 28.1335 15.6 28.1335H32.4C33.5183 28.1335 34.0774 28.1335 34.5185 28.3635C35.1065 28.6703 35.5738 29.2587 35.8174 29.9992C36 30.5546 36 31.2587 36 32.6669C36 34.0751 36 34.7791 35.8174 35.3346C35.5738 36.075 35.1065 36.6635 34.5185 36.9702C34.0774 37.2002 33.5183 37.2002 32.4 37.2002H15.6C14.4817 37.2002 13.9226 37.2002 13.4816 36.9702C12.8935 36.6635 12.4263 36.075 12.1827 35.3346C12 34.7791 12 34.0751 12 32.6669Z" stroke="white" stroke-width="1.75"/>
<path d="M12 23.5997C12 22.1915 12 21.4875 12.1827 20.932C12.4263 20.1915 12.8935 19.6032 13.4816 19.2965C13.9226 19.0664 14.4817 19.0664 15.6 19.0664H32.4C33.5183 19.0664 34.0774 19.0664 34.5185 19.2965C35.1065 19.6032 35.5738 20.1915 35.8174 20.932C36 21.4875 36 22.1915 36 23.5997C36 25.0079 36 25.712 35.8174 26.2675C35.5738 27.0079 35.1065 27.5963 34.5185 27.9031C34.0774 28.1331 33.5183 28.1331 32.4 28.1331H15.6C14.4817 28.1331 13.9226 28.1331 13.4816 27.9031C12.8935 27.5963 12.4263 27.0079 12.1827 26.2675C12 25.712 12 25.0079 12 23.5997Z" stroke="white" stroke-width="1.75"/>
<path d="M12 14.5333C12 13.1252 12 12.4211 12.1827 11.8657C12.4263 11.1251 12.8935 10.5368 13.4816 10.2301C13.9226 10 14.4817 10 15.6 10H32.4C33.5183 10 34.0774 10 34.5185 10.2301C35.1065 10.5368 35.5738 11.1251 35.8174 11.8657C36 12.4211 36 13.1252 36 14.5333C36 15.9415 36 16.6456 35.8174 17.201C35.5738 17.9415 35.1065 18.5299 34.5185 18.8366C34.0774 19.0667 33.5183 19.0667 32.4 19.0667H15.6C14.4817 19.0667 13.9226 19.0667 13.4816 18.8366C12.8935 18.5299 12.4263 17.9415 12.1827 17.201C12 16.6456 12 15.9415 12 14.5333Z" stroke="white" stroke-width="1.75"/>
<path opacity="0.5" d="M15.8994 25.0886C16.7278 25.0886 17.3994 24.4171 17.3994 23.5886C17.3994 22.7602 16.7278 22.0886 15.8994 22.0886C15.071 22.0886 14.3994 22.7602 14.3994 23.5886C14.3994 24.4171 15.071 25.0886 15.8994 25.0886Z" fill="white"/>
<path opacity="0.5" d="M15.8994 16.0222C16.7278 16.0222 17.3994 15.3506 17.3994 14.5222C17.3994 13.6938 16.7278 13.0222 15.8994 13.0222C15.071 13.0222 14.3994 13.6938 14.3994 14.5222C14.3994 15.3506 15.071 16.0222 15.8994 16.0222Z" fill="white"/>
<path opacity="0.5" d="M15.8994 34.1558C16.7278 34.1558 17.3994 33.4842 17.3994 32.6558C17.3994 31.8273 16.7278 31.1558 15.8994 31.1558C15.071 31.1558 14.3994 31.8273 14.3994 32.6558C14.3994 33.4842 15.071 34.1558 15.8994 34.1558Z" fill="white"/>
<defs>
<linearGradient id="paint0_linear_252_84" x1="0" y1="31.8988" x2="48" y2="31.8988" gradientUnits="userSpaceOnUse">
<stop stop-color="#3F85C6" stop-opacity="0.42"/>
</linearGradient>
</defs>
</svg>
