<svg width="48" height="48" viewBox="0 0 48 48" fill="none" xmlns="http://www.w3.org/2000/svg">
<g clip-path="url(#clip0_120_9)">
<path d="M24 48C37.2548 48 48 37.2548 48 24C48 10.7452 37.2548 0 24 0C10.7452 0 0 10.7452 0 24C0 37.2548 10.7452 48 24 48Z" fill="url(#paint0_linear_120_9)"/>
<path d="M23.107 29.4275V15.2856C23.107 14.9447 23.2253 14.6177 23.4359 14.3766C23.6465 14.1354 23.9322 14 24.23 14C24.5278 14 24.8135 14.1354 25.0241 14.3766C25.2347 14.6177 25.353 14.9447 25.353 15.2856V29.4275H26.476C26.7738 29.4275 27.0595 29.5629 27.2701 29.8041C27.4807 30.0452 27.599 30.3722 27.599 30.7131C27.599 31.0541 27.4807 31.3811 27.2701 31.6222C27.0595 31.8633 26.7738 31.9987 26.476 31.9987H25.353V33.2844C25.353 33.6253 25.2347 33.9523 25.0241 34.1934C24.8135 34.4346 24.5278 34.57 24.23 34.57C23.9322 34.57 23.6465 34.4346 23.4359 34.1934C23.2253 33.9523 23.107 33.6253 23.107 33.2844V31.9987H21.984C21.6862 31.9987 21.4005 31.8633 21.1899 31.6222C20.9793 31.3811 20.861 31.0541 20.861 30.7131C20.861 30.3722 20.9793 30.0452 21.1899 29.8041C21.4005 29.5629 21.6862 29.4275 21.984 29.4275H23.107ZM30.968 16.5712V15.2856C30.968 14.9447 31.0863 14.6177 31.2969 14.3766C31.5075 14.1354 31.7932 14 32.091 14C32.3888 14 32.6745 14.1354 32.8851 14.3766C33.0957 14.6177 33.214 14.9447 33.214 15.2856V16.5712H34.337C34.6348 16.5712 34.9205 16.7067 35.1311 16.9478C35.3417 17.1889 35.46 17.5159 35.46 17.8569C35.46 18.1978 35.3417 18.5248 35.1311 18.7659C34.9205 19.0071 34.6348 19.1425 34.337 19.1425H33.214V33.2844C33.214 33.6253 33.0957 33.9523 32.8851 34.1934C32.6745 34.4346 32.3888 34.57 32.091 34.57C31.7932 34.57 31.5075 34.4346 31.2969 34.1934C31.0863 33.9523 30.968 33.6253 30.968 33.2844V19.1425H29.845C29.5472 19.1425 29.2615 19.0071 29.0509 18.7659C28.8403 18.5248 28.722 18.1978 28.722 17.8569C28.722 17.5159 28.8403 17.1889 29.0509 16.9478C29.2615 16.7067 29.5472 16.5712 29.845 16.5712H30.968ZM17.492 20.4281H18.615C18.9128 20.4281 19.1985 20.5636 19.4091 20.8047C19.6197 21.0458 19.738 21.3728 19.738 21.7137C19.738 22.0547 19.6197 22.3817 19.4091 22.6228C19.1985 22.8639 18.9128 22.9994 18.615 22.9994H17.492V33.2844C17.492 33.6253 17.3737 33.9523 17.1631 34.1934C16.9525 34.4346 16.6668 34.57 16.369 34.57C16.0712 34.57 15.7855 34.4346 15.5749 34.1934C15.3643 33.9523 15.246 33.6253 15.246 33.2844V22.9994H14.123C13.8252 22.9994 13.5395 22.8639 13.3289 22.6228C13.1183 22.3817 13 22.0547 13 21.7137C13 21.3728 13.1183 21.0458 13.3289 20.8047C13.5395 20.5636 13.8252 20.4281 14.123 20.4281H15.246V15.2856C15.246 14.9447 15.3643 14.6177 15.5749 14.3766C15.7855 14.1354 16.0712 14 16.369 14C16.6668 14 16.9525 14.1354 17.1631 14.3766C17.3737 14.6177 17.492 14.9447 17.492 15.2856V20.4281Z" fill="url(#paint1_linear_120_9)"/>
</g>
<defs>
<linearGradient id="paint0_linear_120_9" x1="24" y1="0" x2="24" y2="48" gradientUnits="userSpaceOnUse">
<stop stop-color="#0D091D"/>
<stop offset="0.927083" stop-color="#32284F"/>
<stop offset="1" stop-color="#332A53"/>
</linearGradient>
<linearGradient id="paint1_linear_120_9" x1="13" y1="27.67" x2="35.46" y2="27.67" gradientUnits="userSpaceOnUse">
<stop stop-color="#6A48F2"/>
<stop offset="0.6875" stop-color="#CD99FF"/>
</linearGradient>
<clipPath id="clip0_120_9">
<rect width="48" height="48" fill="white"/>
</clipPath>
</defs>
</svg>
