<svg width="48" height="48" viewBox="0 0 48 48" fill="none" xmlns="http://www.w3.org/2000/svg">
<path d="M24 48C37.2548 48 48 37.2548 48 24C48 10.7452 37.2548 0 24 0C10.7452 0 0 10.7452 0 24C0 37.2548 10.7452 48 24 48Z" fill="url(#paint0_linear_252_84)"/>
<path d="M24 38C31.7467 38 38 31.7467 38 24H10C10 31.7467 16.2533 38 24 38Z" fill="#F9F9F9"/>
<path d="M24 10C16.2533 10 10 16.2533 10 24H38C38 16.2533 31.7467 10 24 10Z" fill="#ED4C5C"/>
<path d="M18.9599 17.2333L18.3999 16.7667H19.0999L19.3332 16.0667L19.5666 16.7667H20.2666L19.7066 17.2333L19.8932 17.9333L19.3332 17.5133L18.7732 17.9333L18.9599 17.2333Z" fill="#F9F9F9"/>
<path d="M22.6933 17.2333L22.1333 16.7667H22.8333L23.0666 16.0667L23.3 16.7667H24L23.44 17.2333L23.6266 17.9333L23.0666 17.5133L22.5066 17.9333L22.6933 17.2333Z" fill="#F9F9F9"/>
<path d="M19.4267 19.5666L18.8667 19.0999H19.5667L19.8 18.3999L20.0334 19.0999H20.7334L20.1734 19.5666L20.36 20.2666L19.8 19.8466L19.24 20.2666L19.4267 19.5666Z" fill="#F9F9F9"/>
<path d="M22.2265 19.5666L21.6665 19.0999H22.3665L22.5998 18.3999L22.8332 19.0999H23.5332L22.9732 19.5666L23.1598 20.2666L22.5998 19.8466L22.0398 20.2666L22.2265 19.5666Z" fill="#F9F9F9"/>
<path d="M20.8266 15.8334L20.2666 15.3667H20.9666L21.1999 14.6667L21.4333 15.3667H22.1333L21.5733 15.8334L21.7599 16.5334L21.1999 16.1134L20.6399 16.5334L20.8266 15.8334Z" fill="#F9F9F9"/>
<path d="M20.4532 22.1333C18.2132 22.1333 16.4398 20.2199 16.4398 17.8866C16.4398 15.5533 18.2598 13.6399 20.4532 13.6399C20.6398 13.6399 20.7798 13.6399 20.9198 13.6866C20.3598 13.4066 19.7532 13.2666 19.0998 13.2666C16.6732 13.2666 14.6665 15.3666 14.6665 17.9333C14.6665 20.4999 16.6732 22.5999 19.0998 22.5999C19.8465 22.5999 20.5932 22.4133 21.1998 22.0399C20.9665 22.0866 20.7332 22.1333 20.4532 22.1333Z" fill="#F9F9F9"/>
<defs>
<linearGradient id="paint0_linear_252_84" x1="0" y1="31.8988" x2="48" y2="31.8988" gradientUnits="userSpaceOnUse">
<stop stop-color="#3F85C6" stop-opacity="0.42"/>
</linearGradient>
</defs>
</svg>
