<svg width="50" height="50" viewBox="0 0 50 50" fill="none" xmlns="http://www.w3.org/2000/svg">
<path d="M32.3046 47.056H32.3028H30.5129C30.2957 46.4027 29.9099 45.8129 29.3885 45.3494C28.8505 44.8712 28.1958 44.5522 27.4973 44.4202C27.343 43.8702 27.0458 43.3655 26.6297 42.9609C26.023 42.371 25.2111 42.0396 24.3649 42.0366H24.3618L11.8964 42.0366L11.8929 42.0366C11.0467 42.04 10.235 42.3718 9.62862 42.962C9.21284 43.3668 8.91594 43.8713 8.76193 44.4212C8.06362 44.553 7.40908 44.8718 6.87116 45.3498C6.34973 45.813 5.96389 46.4028 5.74662 47.056H3.95661C3.71327 47.056 3.47989 46.9593 3.30782 46.7872C3.13574 46.6151 3.03906 46.3817 3.03906 46.1383V3.11561C3.03906 2.87224 3.13574 2.63883 3.30782 2.46675C3.47989 2.29467 3.71327 2.198 3.95661 2.198H32.3028C32.5462 2.198 32.7796 2.29467 32.9516 2.46675C33.1237 2.63883 33.2204 2.87224 33.2204 3.11561V16.9604C32.8351 17.1007 32.4813 17.3236 32.1857 17.6174L32.1832 17.6199L31.4013 18.403C31.4011 18.4031 31.4009 18.4033 31.4008 18.4035C31.1344 18.6697 30.923 18.9857 30.7788 19.3336C30.6345 19.6817 30.5602 20.0548 30.5602 20.4317C30.5602 20.8085 30.6345 21.1816 30.7788 21.5297C30.8175 21.6229 30.8609 21.7138 30.9089 21.8021L22.993 29.7225C22.5763 29.4962 22.1061 29.3746 21.6234 29.3746C20.8629 29.3746 20.1335 29.6765 19.5955 30.214L19.5947 30.2148L18.8128 30.9979C18.8126 30.9981 18.8124 30.9982 18.8123 30.9984C18.5459 31.2646 18.3346 31.5806 18.1903 31.9285C18.046 32.2766 17.9717 32.6497 17.9717 33.0266C17.9717 33.4034 18.046 33.7765 18.1903 34.1246C18.3346 34.4727 18.5461 34.7889 18.8126 35.0551C18.8127 35.0552 18.8127 35.0552 18.8128 35.0553L27.7163 43.9627C27.9827 44.2293 28.299 44.4408 28.6472 44.5852C28.9954 44.7295 29.3686 44.8038 29.7455 44.8038C30.1224 44.8038 30.4956 44.7295 30.8437 44.5852C31.1919 44.4408 31.5082 44.2293 31.7746 43.9627L32.5571 43.1802L32.5583 43.179C32.8568 42.8793 33.0825 42.5205 33.224 42.1302V46.1383C33.224 46.259 33.2002 46.3785 33.154 46.4899C33.1077 46.6014 33.04 46.7026 32.9546 46.7879C32.8692 46.8731 32.7678 46.9406 32.6563 46.9866C32.5447 47.0326 32.4252 47.0562 32.3046 47.056ZM33.224 40.1724C33.1754 40.0382 33.1168 39.9078 33.0487 39.7822L33.224 39.6068V40.1724Z" stroke="url(#paint0_linear_215_430)" stroke-width="1.75"/>
<path d="M8.57262 10.0005H27.686C27.8445 10.0005 27.9965 9.93754 28.1085 9.82548C28.2206 9.71342 28.2835 9.56143 28.2835 9.40296C28.2835 9.24448 28.2206 9.0925 28.1085 8.98044C27.9965 8.86838 27.8445 8.80542 27.686 8.80542H8.57262C8.41414 8.80542 8.26216 8.86838 8.15011 8.98044C8.03805 9.0925 7.9751 9.24448 7.9751 9.40296C7.9751 9.56143 8.03805 9.71342 8.15011 9.82548C8.26216 9.93754 8.41414 10.0005 8.57262 10.0005Z" fill="url(#paint1_linear_215_430)"/>
<path d="M8.57262 16.6282H27.686C27.8445 16.6282 27.9965 16.5652 28.1085 16.4532C28.2206 16.3411 28.2835 16.1891 28.2835 16.0306C28.2835 15.8722 28.2206 15.7202 28.1085 15.6081C27.9965 15.4961 27.8445 15.4331 27.686 15.4331H8.57262C8.41414 15.4331 8.26216 15.4961 8.15011 15.6081C8.03805 15.7202 7.9751 15.8722 7.9751 16.0306C7.9751 16.1891 8.03805 16.3411 8.15011 16.4532C8.26216 16.5652 8.41414 16.6282 8.57262 16.6282Z" fill="url(#paint2_linear_215_430)"/>
<path d="M8.57262 23.2573H27.686C27.8445 23.2573 27.9965 23.1944 28.1085 23.0823C28.2206 22.9703 28.2835 22.8183 28.2835 22.6598C28.2835 22.5013 28.2206 22.3493 28.1085 22.2373C27.9965 22.1252 27.8445 22.0623 27.686 22.0623H8.57262C8.41414 22.0623 8.26216 22.1252 8.15011 22.2373C8.03805 22.3493 7.9751 22.5013 7.9751 22.6598C7.9751 22.8183 8.03805 22.9703 8.15011 23.0823C8.26216 23.1944 8.41414 23.2573 8.57262 23.2573Z" fill="url(#paint3_linear_215_430)"/>
<path d="M8.57262 29.8853H19.5753C19.7338 29.8853 19.8858 29.8223 19.9978 29.7102C20.1099 29.5982 20.1728 29.4462 20.1728 29.2877C20.1728 29.1292 20.1099 28.9773 19.9978 28.8652C19.8858 28.7531 19.7338 28.6902 19.5753 28.6902H8.57262C8.41414 28.6902 8.26216 28.7531 8.15011 28.8652C8.03805 28.9773 7.9751 29.1292 7.9751 29.2877C7.9751 29.4462 8.03805 29.5982 8.15011 29.7102C8.26216 29.8223 8.41414 29.8853 8.57262 29.8853Z" fill="url(#paint4_linear_215_430)"/>
<path d="M18.0218 35.3179H8.57262C8.41414 35.3179 8.26216 35.3808 8.15011 35.4929C8.03805 35.6049 7.9751 35.7569 7.9751 35.9154C7.9751 36.0739 8.03805 36.2259 8.15011 36.3379C8.26216 36.45 8.41414 36.5129 8.57262 36.5129H18.0218C18.1802 36.5129 18.3322 36.45 18.4443 36.3379C18.5563 36.2259 18.6193 36.0739 18.6193 35.9154C18.6193 35.7569 18.5563 35.6049 18.4443 35.4929C18.3322 35.3808 18.1802 35.3179 18.0218 35.3179Z" fill="url(#paint5_linear_215_430)"/>
<path d="M32.9078 22.73L23.916 31.7222L31.0471 38.8535L40.0389 29.8614L32.9078 22.73Z" fill="url(#paint6_linear_215_430)"/>
<path d="M31.09 40.5857C31.2399 40.7356 31.3241 40.9389 31.3241 41.1509C31.3241 41.3629 31.2399 41.5663 31.09 41.7162L30.3072 42.499C30.1551 42.6446 29.9526 42.7259 29.742 42.7259C29.5314 42.7259 29.3289 42.6446 29.1767 42.499L20.2701 33.5897C20.1959 33.5156 20.1371 33.4275 20.0969 33.3306C20.0568 33.2338 20.0361 33.1299 20.0361 33.025C20.0361 32.9201 20.0568 32.8163 20.0969 32.7194C20.1371 32.6225 20.1959 32.5345 20.2701 32.4603L21.0529 31.6764C21.2029 31.5271 21.4059 31.4434 21.6175 31.4434C21.8291 31.4434 22.0322 31.5271 22.1822 31.6764L31.09 40.5857Z" fill="#8ABFD1"/>
<path d="M43.6854 27.991C43.8347 28.1412 43.9185 28.3444 43.9185 28.5562C43.9185 28.7681 43.8347 28.9713 43.6854 29.1215L42.9015 29.9043C42.7514 30.0539 42.5481 30.1379 42.3362 30.1379C42.1243 30.1379 41.921 30.0539 41.771 29.9043L32.8644 20.9962C32.7902 20.922 32.7313 20.834 32.6912 20.7371C32.651 20.6402 32.6304 20.5364 32.6304 20.4315C32.6304 20.3266 32.651 20.2228 32.6912 20.1259C32.7313 20.029 32.7902 19.941 32.8644 19.8668L33.6471 19.0829C33.7971 18.9336 34.0002 18.8499 34.2118 18.8499C34.4234 18.8499 34.6264 18.9336 34.7764 19.0829L43.6854 27.991Z" fill="#8ABFD1"/>
<path d="M26.7745 46.4216C27.209 46.4226 27.6299 46.5732 27.9664 46.8481C28.3029 47.123 28.5344 47.5054 28.622 47.931H7.63721C7.72461 47.5053 7.95609 47.1228 8.29262 46.8478C8.62915 46.5729 9.05017 46.4224 9.48473 46.4216H26.7745Z" fill="#3089AF"/>
<path d="M10.7192 45.2264C10.7354 44.9247 10.8663 44.6405 11.0851 44.4321C11.304 44.2237 11.5942 44.1069 11.8963 44.1055H24.3618C24.6641 44.1068 24.9544 44.2237 25.1734 44.432C25.3925 44.6404 25.5236 44.9246 25.5401 45.2264H10.7192Z" fill="#C0EBFE" fill-opacity="0.19"/>
<path d="M48.2146 47.3752C48.071 47.5441 47.8935 47.6809 47.6936 47.7766C47.4936 47.8724 47.2758 47.9249 47.0542 47.9309C46.8362 47.9144 46.6239 47.8536 46.4301 47.7523C46.2364 47.651 46.0653 47.5113 45.9273 47.3417L35.4038 36.1869L37.0267 34.564L48.1811 45.0878C48.3505 45.226 48.49 45.3971 48.5913 45.5908C48.6926 45.7846 48.7535 45.9968 48.7703 46.2148C48.7584 46.4352 48.7032 46.6512 48.6079 46.8503C48.5125 47.0494 48.3789 47.2277 48.2146 47.3752Z" fill="#8ABFD1"/>
<defs>
<linearGradient id="paint0_linear_215_430" x1="2.16406" y1="32.2967" x2="34.099" y2="32.2967" gradientUnits="userSpaceOnUse">
<stop stop-color="#3F85C6"/>
<stop offset="0.6875" stop-color="#CD99FF"/>
</linearGradient>
<linearGradient id="paint1_linear_215_430" x1="7.9751" y1="9.59962" x2="28.2835" y2="9.59962" gradientUnits="userSpaceOnUse">
<stop stop-color="#3F85C6"/>
<stop offset="0.6875" stop-color="#CD99FF"/>
</linearGradient>
<linearGradient id="paint2_linear_215_430" x1="7.9751" y1="16.2273" x2="28.2835" y2="16.2273" gradientUnits="userSpaceOnUse">
<stop stop-color="#3F85C6"/>
<stop offset="0.6875" stop-color="#CD99FF"/>
</linearGradient>
<linearGradient id="paint3_linear_215_430" x1="7.9751" y1="22.8565" x2="28.2835" y2="22.8565" gradientUnits="userSpaceOnUse">
<stop stop-color="#3F85C6"/>
<stop offset="0.6875" stop-color="#CD99FF"/>
</linearGradient>
<linearGradient id="paint4_linear_215_430" x1="7.9751" y1="29.4844" x2="20.1728" y2="29.4844" gradientUnits="userSpaceOnUse">
<stop stop-color="#3F85C6"/>
<stop offset="0.6875" stop-color="#CD99FF"/>
</linearGradient>
<linearGradient id="paint5_linear_215_430" x1="7.9751" y1="36.1121" x2="18.6193" y2="36.1121" gradientUnits="userSpaceOnUse">
<stop stop-color="#3F85C6"/>
<stop offset="0.6875" stop-color="#CD99FF"/>
</linearGradient>
<linearGradient id="paint6_linear_215_430" x1="28.655" y1="36.4614" x2="37.6472" y2="27.4695" gradientUnits="userSpaceOnUse">
<stop stop-color="#3F85C6"/>
<stop offset="0.6875" stop-color="#CD99FF"/>
</linearGradient>
</defs>
</svg>
