<svg width="48" height="48" viewBox="0 0 48 48" fill="none" xmlns="http://www.w3.org/2000/svg">
<path d="M24 48C37.2548 48 48 37.2548 48 24C48 10.7452 37.2548 0 24 0C10.7452 0 0 10.7452 0 24C0 37.2548 10.7452 48 24 48Z" fill="url(#paint0_linear_252_84)"/>
<path d="M12.4659 16.0674C11.5631 17.3778 10.877 18.8491 10.4609 20.4305H16.8293L12.4659 16.0674Z" fill="#29337A"/>
<path d="M20.0791 10.5605C18.4661 11.0303 16.9722 11.7799 15.6567 12.7576L20.0791 17.18V10.5605Z" fill="#29337A"/>
<path d="M15.9858 35.4761C17.2197 36.3396 18.5983 37.008 20.0793 37.4393V31.3833L15.9858 35.4761Z" fill="#29337A"/>
<path d="M10.6216 28.1338C11.0845 29.6332 11.7938 31.0243 12.7004 32.2617L16.8283 28.1338H10.6216Z" fill="#29337A"/>
<path d="M12.6964 15.7422C12.6181 15.8492 12.541 15.9577 12.4654 16.0674L16.8288 20.4305H10.4605C10.3572 20.8233 10.273 21.2237 10.2036 21.6295H18.5842L12.6964 15.7422Z" fill="white"/>
<path d="M15.6606 35.2449C15.7672 35.3243 15.8766 35.3999 15.9853 35.476L20.0788 31.383V37.4389C20.4721 37.5539 20.8715 37.6532 21.2778 37.733V29.6279L15.6606 35.2449Z" fill="white"/>
<path d="M10.3101 26.9348C10.397 27.3411 10.4995 27.7412 10.6209 28.1338H16.8276L12.6997 32.2618C13.1487 32.8752 13.6465 33.4508 14.1874 33.9831L21.2357 26.9348H10.3101Z" fill="white"/>
<path d="M20.0793 10.5604V17.1798L15.6568 12.7577C15.0472 13.2111 14.4773 13.7144 13.9492 14.2593L21.278 21.5881V10.2664C20.872 10.3466 20.4725 10.4461 20.0793 10.5604Z" fill="white"/>
<path d="M20.0791 28.0916L20.0371 28.1338H20.0791V28.0916Z" fill="#D32030"/>
<path d="M21.2363 26.9348H21.2783V26.8926L21.2363 26.9348Z" fill="#D32030"/>
<path d="M26.6239 21.6294H26.5835V21.6701L26.6239 21.6294Z" fill="#D32030"/>
<path d="M20.1204 20.4307L20.0791 20.3892V20.4307H20.1204Z" fill="#D32030"/>
<path d="M21.2783 21.5881V21.6295H21.3197L21.2783 21.5881Z" fill="#D32030"/>
<path d="M27.7822 34.3401V37.4783C29.2825 37.0584 30.6814 36.3963 31.9325 35.5338L28.5321 32.1333C28.2603 33.088 28.1609 33.5816 27.7822 34.3401Z" fill="#252F6C"/>
<path d="M28.55 16.4119L32.2621 12.6997C30.9285 11.7231 29.4156 10.9788 27.7822 10.5212V13.7451C28.2188 14.6193 28.2555 15.2836 28.55 16.4119Z" fill="#252F6C"/>
<path d="M35.2422 32.3433C36.1771 31.0857 36.9057 29.6661 37.3789 28.1338H31.0327L35.2422 32.3433Z" fill="#252F6C"/>
<path d="M37.5393 20.4306C37.1144 18.8157 36.4077 17.3168 35.4764 15.9858L31.0312 20.4306H37.5393Z" fill="#252F6C"/>
<path d="M29.3672 27.1718L30.3292 28.1338L34.9342 32.7388C35.0388 32.6079 35.1426 32.4775 35.2426 32.3433L31.0331 28.1338H37.3793C37.5002 27.7415 37.603 27.3411 37.6896 26.9348H29.4572C29.4437 27.1048 29.3833 27.0029 29.3672 27.1718Z" fill="#E7E7E7"/>
<path d="M28.4044 17.1139L32.578 12.9398C32.4735 12.8587 32.3687 12.778 32.2619 12.6997L28.5498 16.4119C28.5883 16.5586 28.3685 16.9636 28.4044 17.1139Z" fill="#E7E7E7"/>
<path d="M27.7825 13.487V10.5209C27.3897 10.4108 26.9898 10.3175 26.5835 10.2415V11.6883C27.0296 12.1719 27.4295 12.7794 27.7825 13.487Z" fill="#E7E7E7"/>
<path d="M29.2728 21.6293H37.7964C37.7272 21.2235 37.6428 20.8234 37.5395 20.4303H31.0315L35.4767 15.9856C35.0397 15.3613 34.554 14.7742 34.0235 14.2302L29.0166 19.2366C29.1514 20.1448 29.2118 20.6721 29.2728 21.6293Z" fill="#E7E7E7"/>
<path d="M28.3301 31.9306L31.933 35.534C32.5323 35.1212 33.0967 34.6619 33.6232 34.1632L28.8841 29.4238C28.7328 30.3003 28.5533 31.1469 28.3301 31.9306Z" fill="#E7E7E7"/>
<path d="M26.5835 36.145V37.7576C26.9898 37.682 27.3895 37.5882 27.7825 37.4781V34.3398C27.4293 35.0477 27.0294 35.662 26.5835 36.145Z" fill="#E7E7E7"/>
<path d="M29.0166 19.2366L34.023 14.2302C33.5722 13.7673 33.089 13.3365 32.5779 12.9397L28.644 16.8742C28.8189 17.605 28.8983 18.4415 29.0166 19.2366Z" fill="#D71F28"/>
<path d="M23.3013 10.0173C23.5345 10.006 23.7671 10 23.9998 10C23.7657 10 23.5328 10.006 23.3013 10.0173Z" fill="#D32030"/>
<path d="M23.9999 38.0001C23.7671 38.0001 23.5345 37.9937 23.3018 37.9824C23.5332 37.9941 23.7658 38.0001 23.9999 38.0001Z" fill="#D32030"/>
<path d="M24 38.0001C24.8833 38.0001 25.7459 37.9146 26.5836 37.7578V36.1453C25.8482 36.9424 24.9879 38.0001 24 38.0001Z" fill="#D32030"/>
<path d="M37.7963 21.6294H29.3835C29.4949 23.3852 29.4815 25.1908 29.3433 26.9347H37.6898C37.8919 25.9879 38.0002 25.0069 38.0002 24.0002C38.0002 23.1915 37.9281 22.4006 37.7963 21.6294Z" fill="#D71F28"/>
<path d="M29.3674 27.1719C29.2896 27.9991 29.0186 28.6436 28.8838 29.424L33.6229 34.1631C34.0918 33.7188 34.5301 33.2435 34.9342 32.7389L30.3294 28.1337L29.3674 27.1719Z" fill="#D71F28"/>
<path d="M26.5837 11.7925V10.2418C25.7462 10.0855 24.8836 10 24 10C24.9879 10 25.8482 10.9956 26.5837 11.7925Z" fill="#D32030"/>
<path d="M27.7822 34.9456C28.1609 34.187 28.4856 33.3136 28.7575 32.3591L27.7822 31.3838V34.9456Z" fill="#29337A"/>
<path d="M28.8789 16.0829C28.584 14.9547 28.2188 13.9289 27.7822 13.0547V17.1791L28.8789 16.0829Z" fill="#29337A"/>
<path d="M29.639 27.4435C29.6549 27.2746 29.6693 27.1051 29.683 26.9348H29.1304L29.639 27.4435Z" fill="white"/>
<path d="M27.7825 17.1792V13.0546C27.4293 12.347 27.0296 11.7391 26.5835 11.2559V18.9348L28.9914 16.5269C28.9552 16.3766 28.9171 16.2293 28.8791 16.0826L27.7825 17.1792Z" fill="white"/>
<path d="M26.624 21.6295H29.7232C29.6624 20.6724 29.5656 19.7306 29.4309 18.8228L26.624 21.6295Z" fill="white"/>
<path d="M26.5835 36.744C27.0296 36.2604 27.4293 35.6529 27.7825 34.9453V31.3835L28.7578 32.3588C28.9815 31.5747 29.1692 30.7371 29.3208 29.8606L26.5836 27.1235L26.5835 36.744Z" fill="white"/>
<path d="M26.5835 36.744V27.1235L29.3206 29.8608C29.4552 29.0802 29.5611 28.2707 29.6386 27.4434L29.13 26.9347H29.6826C29.8208 25.1908 29.8342 23.3852 29.7229 21.6294H26.6237L29.4304 18.8227C29.3122 18.0274 29.1659 17.2581 28.991 16.527L26.5835 18.935V11.256C25.848 10.4589 24.9877 10 23.9997 10C23.767 10 23.5344 10.006 23.3012 10.0173C22.6126 10.0517 21.9373 10.1364 21.2781 10.2664V21.5881L13.9491 14.2593C13.4988 14.724 13.0799 15.2191 12.6966 15.7423L17.3849 20.4307L18.5844 21.6297H10.2038C10.0725 22.4007 10 23.1916 10 24.0002C10 25.0071 10.1088 25.9879 10.3103 26.9347H21.2362L14.1879 33.983C14.6494 34.4364 15.1408 34.8586 15.661 35.245L21.278 29.628V37.7331C21.9371 37.8631 22.6129 37.9478 23.3015 37.9823C23.5342 37.9936 23.7668 38 23.9996 38C24.9877 38 25.848 37.5411 26.5835 36.744Z" fill="#E51D35"/>
<defs>
<linearGradient id="paint0_linear_252_84" x1="0" y1="31.8988" x2="48" y2="31.8988" gradientUnits="userSpaceOnUse">
<stop stop-color="#3F85C6" stop-opacity="0.42"/>
</linearGradient>
</defs>
</svg>
