<svg width="48" height="48" viewBox="0 0 48 48" fill="none" xmlns="http://www.w3.org/2000/svg">
<path d="M24 48C37.2548 48 48 37.2548 48 24C48 10.7452 37.2548 0 24 0C10.7452 0 0 10.7452 0 24C0 37.2548 10.7452 48 24 48Z" fill="url(#paint0_linear_252_84)"/>
<path d="M31.4667 12.1467C29.2733 10.7933 26.7533 10 24 10V12.1467H31.4667Z" fill="#ED4C5C"/>
<path d="M24 14.2934H34.08C33.2867 13.5001 32.4 12.7534 31.4667 12.1467H24V14.2934Z" fill="white"/>
<path d="M24 16.4399H35.8067C35.2933 15.6465 34.7333 14.9465 34.1267 14.2932H24V16.4399Z" fill="#ED4C5C"/>
<path d="M24 18.5866H36.9267C36.6 17.8399 36.2267 17.0933 35.8067 16.4399H24V18.5866Z" fill="white"/>
<path d="M24 20.7333H37.6267C37.44 19.9867 37.2067 19.2867 36.9267 18.5867H24V20.7333Z" fill="#ED4C5C"/>
<path d="M24 22.9267H37.9533C37.9067 22.18 37.7667 21.48 37.6267 20.78H24V22.9267Z" fill="white"/>
<path d="M37.9533 22.9268H24V24.0001H10C10 24.3734 10 24.7001 10.0467 25.0734H37.9533C38 24.7001 38 24.3734 38 24.0001C38 23.6268 38 23.2534 37.9533 22.9268Z" fill="#ED4C5C"/>
<path d="M10.3735 27.2199H37.6269C37.8135 26.5199 37.9069 25.8199 37.9535 25.0732H10.0469C10.0935 25.7732 10.2335 26.5199 10.3735 27.2199Z" fill="white"/>
<path d="M11.0735 29.3666H36.9269C37.2069 28.6666 37.4402 27.9666 37.6269 27.22H10.3735C10.5602 27.9666 10.7935 28.6666 11.0735 29.3666Z" fill="#ED4C5C"/>
<path d="M12.1932 31.5134H35.8066C36.2266 30.8134 36.5999 30.1134 36.9266 29.3667H11.0732C11.3999 30.1134 11.7732 30.8134 12.1932 31.5134Z" fill="white"/>
<path d="M13.8734 33.6601H34.1267C34.7334 33.0068 35.34 32.2601 35.8067 31.5134H12.1934C12.66 32.3068 13.2667 33.0068 13.8734 33.6601Z" fill="#ED4C5C"/>
<path d="M16.4869 35.8066H31.5135C32.4935 35.1999 33.3335 34.4532 34.1269 33.6599H13.8735C14.6669 34.4999 15.5535 35.1999 16.4869 35.8066Z" fill="white"/>
<path d="M24.0001 38C26.7535 38 29.3201 37.2066 31.5135 35.8066H16.4868C18.6801 37.2066 21.2468 38 24.0001 38Z" fill="#ED4C5C"/>
<path d="M16.5333 12.1467C15.5533 12.7533 14.6667 13.5 13.8733 14.2933C13.22 14.9467 12.66 15.6933 12.1933 16.44C11.7733 17.14 11.3533 17.84 11.0733 18.5867C10.7933 19.2867 10.56 19.9867 10.3733 20.7333C10.1867 21.4333 10.0933 22.1333 10.0467 22.88C10 23.2533 10 23.6267 10 24H24V10C21.2467 10 18.7267 10.7933 16.5333 12.1467Z" fill="#428BC1"/>
<path d="M20.7331 10.4666L20.9665 11.1666H21.6665L21.1065 11.6332L21.2931 12.3332L20.7331 11.9132L20.1731 12.3332L20.3598 11.6332L19.7998 11.1666H20.4998L20.7331 10.4666Z" fill="white"/>
<path d="M22.5998 13.2666L22.8332 13.9666H23.5332L22.9732 14.4333L23.1598 15.1333L22.5998 14.7133L22.0398 15.1333L22.2265 14.4333L21.6665 13.9666H22.3665L22.5998 13.2666Z" fill="white"/>
<path d="M18.8664 13.2666L19.0998 13.9666H19.7998L19.2398 14.4333L19.4264 15.1333L18.8664 14.7133L18.3064 15.1333L18.4931 14.4333L17.9331 13.9666H18.6331L18.8664 13.2666Z" fill="white"/>
<path d="M20.7331 16.0667L20.9665 16.7667H21.6665L21.1065 17.2333L21.2931 17.9333L20.7331 17.5133L20.1731 17.9333L20.3598 17.2333L19.7998 16.7667H20.4998L20.7331 16.0667Z" fill="white"/>
<path d="M17.0002 16.0667L17.2336 16.7667H17.9336L17.3736 17.2333L17.5602 17.9333L17.0002 17.5133L16.4402 17.9333L16.6269 17.2333L16.0669 16.7667H16.7669L17.0002 16.0667Z" fill="white"/>
<path d="M13.2668 16.0667L13.5002 16.7667H14.2002L13.6402 17.2333L13.8268 17.9333L13.2668 17.5133L12.7068 17.9333L12.8935 17.2333L12.3335 16.7667H13.0335L13.2668 16.0667Z" fill="white"/>
<path d="M22.5998 18.8667L22.8332 19.5667H23.5332L22.9732 20.0334L23.1598 20.7334L22.5998 20.3134L22.0398 20.7334L22.2265 20.0334L21.6665 19.5667H22.3665L22.5998 18.8667Z" fill="white"/>
<path d="M18.8664 18.8667L19.0998 19.5667H19.7998L19.2398 20.0334L19.4264 20.7334L18.8664 20.3134L18.3064 20.7334L18.4931 20.0334L17.9331 19.5667H18.6331L18.8664 18.8667Z" fill="white"/>
<path d="M15.1335 18.8667L15.3669 19.5667H16.0669L15.5069 20.0334L15.6935 20.7334L15.1335 20.3134L14.5735 20.7334L14.7602 20.0334L14.2002 19.5667H14.9002L15.1335 18.8667Z" fill="white"/>
<path d="M20.7331 21.6667L20.9665 22.3667H21.6665L21.1065 22.8334L21.2931 23.5334L20.7331 23.1134L20.1731 23.5334L20.3598 22.8334L19.7998 22.3667H20.4998L20.7331 21.6667Z" fill="white"/>
<path d="M17.0002 21.6667L17.2336 22.3667H17.9336L17.3736 22.8334L17.5602 23.5334L17.0002 23.1134L16.4402 23.5334L16.6269 22.8334L16.0669 22.3667H16.7669L17.0002 21.6667Z" fill="white"/>
<path d="M13.2668 21.6667L13.5002 22.3667H14.2002L13.6402 22.8334L13.8268 23.5334L13.2668 23.1134L12.7068 23.5334L12.8935 22.8334L12.3335 22.3667H13.0335L13.2668 21.6667Z" fill="white"/>
<path d="M14.5732 15.1333L15.1332 14.7133L15.6932 15.1333L15.4599 14.4333L16.0199 13.9666H15.3199L15.1332 13.2666L14.8999 13.9666H14.2466L14.8066 14.3866L14.5732 15.1333Z" fill="white"/>
<path d="M10.84 20.7334L11.4 20.3134L11.96 20.7334L11.7267 20.0334L12.2867 19.5667H11.6333L11.4 18.8667L11.1667 19.5667H10.7C10.7 19.6134 10.6533 19.66 10.6533 19.7067L11.0267 19.9867L10.84 20.7334Z" fill="white"/>
<defs>
<linearGradient id="paint0_linear_252_84" x1="0" y1="31.8988" x2="48" y2="31.8988" gradientUnits="userSpaceOnUse">
<stop stop-color="#3F85C6" stop-opacity="0.42"/>
</linearGradient>
</defs>
</svg>
